999
dxfrw 0.6.3
  0
SECTION
  2
HEADER
  9
$ACADVER
  1
AC1021
  9
$DWGCODEPAGE
  3
ANSI_1252
  9
$INSBASE
 10
0
 20
0
 30
0
  9
$EXTMIN
 10
10.62012
 20
64.84781700000001
 30
0
  9
$EXTMAX
 10
89.995121
 20
104.535318
 30
0
  9
$LIMMIN
 10
0
 20
0
  9
$LIMMAX
 10
420
 20
297
  9
$ORTHOMODE
 70
    0
  9
$REGENMODE
 70
    1
  9
$FILLMODE
 70
    1
  9
$QTEXTMODE
 70
    0
  9
$MIRRTEXT
 70
    0
  9
$LTSCALE
 40
1
  9
$ATTMODE
 70
    0
  9
$TEXTSIZE
 40
2.5
  9
$TRACEWID
 40
15.68
  9
$TEXTSTYLE
  7
STANDARD
  9
$CLAYER
  8
0
  9
$CELTYPE
  6
BYLAYER
  9
$CECOLOR
 62
  256
  9
$CELTSCALE
 40
1
  9
$DISPSILH
 70
    0
  9
$DIMSCALE
 40
2.5
  9
$DIMASZ
 40
2.5
  9
$DIMEXO
 40
0.625
  9
$DIMDLI
 40
3.75
  9
$DIMRND
 40
0
  9
$DIMDLE
 40
0
  9
$DIMEXE
 40
1.25
  9
$DIMTP
 40
0
  9
$DIMTM
 40
0
  9
$DIMTXT
 40
2.5
  9
$DIMCEN
 40
2.5
  9
$DIMTSZ
 40
0
  9
$DIMTOL
 70
    0
  9
$DIMLIM
 70
    0
  9
$DIMTIH
 70
    0
  9
$DIMTOH
 70
    0
  9
$DIMSE1
 70
    0
  9
$DIMSE2
 70
    0
  9
$DIMTAD
 70
    1
  9
$DIMZIN
 70
    8
  9
$DIMBLK
  1

  9
$DIMASO
 70
    1
  9
$DIMSHO
 70
    1
  9
$DIMPOST
  1

  9
$DIMAPOST
  1

  9
$DIMALT
 70
    0
  9
$DIMALTD
 70
    3
  9
$DIMALTF
 40
0.03937
  9
$DIMLFAC
 40
1
  9
$DIMTOFL
 70
    1
  9
$DIMTVP
 40
0
  9
$DIMTIX
 70
    0
  9
$DIMSOXD
 70
    0
  9
$DIMSAH
 70
    0
  9
$DIMBLK1
  1

  9
$DIMBLK2
  1

  9
$DIMSTYLE
  2
Standard
  9
$DIMCLRD
 70
    0
  9
$DIMCLRE
 70
    0
  9
$DIMCLRT
 70
    0
  9
$DIMTFAC
 40
1
  9
$DIMGAP
 40
0.625
  9
$DIMJUST
 70
    0
  9
$DIMSD1
 70
    0
  9
$DIMSD2
 70
    0
  9
$DIMTOLJ
 70
    0
  9
$DIMTZIN
 70
    8
  9
$DIMALTZ
 70
    0
  9
$DIMALTTZ
 70
    0
  9
$DIMUPT
 70
    0
  9
$DIMDEC
 70
    2
  9
$DIMTDEC
 70
    2
  9
$DIMALTU
 70
    2
  9
$DIMALTTD
 70
    3
  9
$DIMTXSTY
  7
STANDARD
  9
$DIMAUNIT
 70
    0
  9
$DIMADEC
 70
    0
  9
$DIMALTRND
 40
0
  9
$DIMAZIN
 70
    0
  9
$DIMDSEP
 70
   44
  9
$DIMATFIT
 70
    3
  9
$DIMFRAC
 70
    0
  9
$DIMLDRBLK
  1
STANDARD
  9
$DIMLUNIT
 70
    2
  9
$DIMLWD
 70
   -2
  9
$DIMLWE
 70
   -2
  9
$DIMTMOVE
 70
    0
  9
$DIMFXL
 40
1
  9
$DIMFXLON
 70
    0
  9
$DIMJOGANG
 40
0.7854
  9
$DIMTFILL
 70
    0
  9
$DIMTFILLCLR
 70
    0
  9
$DIMARCSYM
 70
    0
  9
$DIMLTYPE
  6

  9
$DIMLTEX1
  6

  9
$DIMLTEX2
  6

  9
$LUNITS
 70
    2
  9
$LUPREC
 70
    4
  9
$SKETCHINC
 40
1
  9
$FILLETRAD
 40
0
  9
$AUNITS
 70
    0
  9
$AUPREC
 70
    2
  9
$MENU
  1
.
  9
$ELEVATION
 40
0
  9
$PELEVATION
 40
0
  9
$THICKNESS
 40
0
  9
$LIMCHECK
 70
    0
  9
$CHAMFERA
 40
0
  9
$CHAMFERB
 40
0
  9
$CHAMFERC
 40
0
  9
$CHAMFERD
 40
0
  9
$SKPOLY
 70
    0
  9
$USRTIMER
 70
    1
  9
$ANGBASE
 50
0
  9
$ANGDIR
 70
    0
  9
$PDMODE
 70
   34
  9
$PDSIZE
 40
0
  9
$PLINEWID
 40
0
  9
$SPLFRAME
 70
    0
  9
$SPLINETYPE
 70
    2
  9
$SPLINESEGS
 70
    8
  9
$HANDSEED
  5
20000
  9
$SURFTAB1
 70
    6
  9
$SURFTAB2
 70
    6
  9
$SURFTYPE
 70
    6
  9
$SURFU
 70
    6
  9
$SURFV
 70
    6
  9
$UCSBASE
  2

  9
$UCSNAME
  2

  9
$UCSORG
 10
0
 20
0
 30
0
  9
$UCSXDIR
 10
1
 20
0
 30
0
  9
$UCSYDIR
 10
0
 20
1
 30
0
  9
$UCSORTHOREF
  2

  9
$UCSORTHOVIEW
 70
    0
  9
$UCSORGTOP
 10
0
 20
0
 30
0
  9
$UCSORGBOTTOM
 10
0
 20
0
 30
0
  9
$UCSORGLEFT
 10
0
 20
0
 30
0
  9
$UCSORGRIGHT
 10
0
 20
0
 30
0
  9
$UCSORGFRONT
 10
0
 20
0
 30
0
  9
$UCSORGBACK
 10
0
 20
0
 30
0
  9
$PUCSBASE
  2

  9
$PUCSNAME
  2

  9
$PUCSORG
 10
0
 20
0
 30
0
  9
$PUCSXDIR
 10
1
 20
0
 30
0
  9
$PUCSYDIR
 10
0
 20
1
 30
0
  9
$PUCSORTHOREF
  2

  9
$PUCSORTHOVIEW
 70
    0
  9
$PUCSORGTOP
 10
0
 20
0
 30
0
  9
$PUCSORGBOTTOM
 10
0
 20
0
 30
0
  9
$PUCSORGLEFT
 10
0
 20
0
 30
0
  9
$PUCSORGRIGHT
 10
0
 20
0
 30
0
  9
$PUCSORGFRONT
 10
0
 20
0
 30
0
  9
$PUCSORGBACK
 10
0
 20
0
 30
0
  9
$USERI1
 70
    0
  9
$USERI2
 70
    0
  9
$USERI3
 70
    0
  9
$USERI4
 70
    0
  9
$USERI5
 70
    0
  9
$USERR1
 40
0
  9
$USERR2
 40
0
  9
$USERR3
 40
0
  9
$USERR4
 40
0
  9
$USERR5
 40
0
  9
$WORLDVIEW
 70
    1
  9
$SHADEDGE
 70
    3
  9
$SHADEDIF
 70
   70
  9
$TILEMODE
 70
    1
  9
$MAXACTVP
 70
   64
  9
$PINSBASE
 10
0
 20
0
 30
0
  9
$PLIMCHECK
 70
    0
  9
$PEXTMIN
 10
0
 20
0
 30
0
  9
$PEXTMAX
 10
0
 20
0
 30
0
  9
$GRIDMODE
 70
    0
  9
$SNAPSTYLE
 70
    0
  9
$PLIMMIN
 10
0
 20
0
  9
$PLIMMAX
 10
210
 20
297
  9
$UNITMODE
 70
    0
  9
$VISRETAIN
 70
    1
  9
$PLINEGEN
 70
    0
  9
$PSLTSCALE
 70
    1
  9
$TREEDEPTH
 70
 3020
  9
$CMLSTYLE
  2
Standard
  9
$CMLJUST
 70
    0
  9
$CMLSCALE
 40
20
  9
$PROXYGRAPHICS
 70
    1
  9
$MEASUREMENT
 70
    1
  9
$CELWEIGHT
370
   -1
  9
$ENDCAPS
280
    0
  9
$JOINSTYLE
280
    0
  9
$LWDISPLAY
290
    0
  9
$INSUNITS
 70
    4
  9
$HYPERLINKBASE
  1

  9
$STYLESHEET
  1

  9
$XEDIT
290
    1
  9
$CEPSNTYPE
380
    0
  9
$PSTYLEMODE
290
    1
  9
$EXTNAMES
290
    1
  9
$PSVPSCALE
 40
1
  9
$OLESTARTUP
290
    0
  9
$SORTENTS
280
  127
  9
$INDEXCTL
280
    0
  9
$HIDETEXT
280
    1
  9
$XCLIPFRAME
290
    0
  9
$HALOGAP
280
    0
  9
$OBSCOLOR
 70
  257
  9
$OBSLTYPE
280
    0
  9
$INTERSECTIONDISPLAY
280
    0
  9
$INTERSECTIONCOLOR
 70
  257
  9
$DIMASSOC
280
    1
  9
$PROJECTNAME
  1

  9
$CAMERADISPLAY
290
    0
  9
$LENSLENGTH
 40
50
  9
$CAMERAHEIGHT
 40
0
  9
$STEPSPERSEC
 40
2
  9
$STEPSIZE
 40
50
  9
$3DDWFPREC
 40
2
  9
$PSOLWIDTH
 40
5
  9
$PSOLHEIGHT
 40
80
  9
$LOFTANG1
 40
1.570796326794897
  9
$LOFTANG2
 40
1.570796326794897
  9
$LOFTMAG1
 40
0
  9
$LOFTMAG2
 40
0
  9
$LOFTPARAM
 70
    7
  9
$LOFTNORMALS
280
    1
  9
$LATITUDE
 40
1
  9
$LONGITUDE
 40
1
  9
$NORTHDIRECTION
 40
0
  9
$TIMEZONE
 70
-8000
  9
$LIGHTGLYPHDISPLAY
280
    1
  9
$TILEMODELIGHTSYNCH
280
    1
  9
$SOLIDHIST
280
    1
  9
$SHOWHIST
280
    1
  9
$DWFFRAME
280
    2
  9
$DGNFRAME
280
    0
  9
$REALWORLDSCALE
290
    1
  9
$INTERFERECOLOR
 62
    1
  9
$CSHADOW
280
    0
  9
$SHADOWPLANELOCATION
 40
0
  0
ENDSEC
  0
SECTION
  2
CLASSES
  0
ENDSEC
  0
SECTION
  2
TABLES
  0
TABLE
  2
VPORT
  5
8
330
0
100
AcDbSymbolTable
 70
    1
  0
VPORT
  5
31
330
2
100
AcDbSymbolTableRecord
100
AcDbViewportTableRecord
  2
*ACTIVE
 70
    0
 10
0
 20
0
 11
1
 21
1
 12
48.36057991354453
 22
55.54328597081452
 13
0
 23
0
 14
10
 24
10
 15
10
 25
10
 16
0
 26
0
 36
1
 17
0
 27
0
 37
0
 40
49.6989723465762
 41
1.822262118491921
 42
50
 43
0
 44
0
 50
0
 51
0
 71
    0
 72
  100
 73
    1
 74
    3
 75
    0
 76
    0
 77
    0
 78
    0
281
    0
 65
    1
110
0
120
0
130
0
111
1
121
0
131
0
112
0
122
1
132
0
 79
    0
146
0
348
10020
 60
    7
 61
    5
292
1
282
    1
141
0
142
0
 63
  250
421
3358443
  0
ENDTAB
  0
TABLE
  2
LTYPE
  5
5
330
0
100
AcDbSymbolTable
 70
    4
  0
LTYPE
  5
14
330
5
100
AcDbSymbolTableRecord
100
AcDbLinetypeTableRecord
  2
ByBlock
 70
    0
  3

 72
   65
 73
    0
 40
0
  0
LTYPE
  5
15
330
5
100
AcDbSymbolTableRecord
100
AcDbLinetypeTableRecord
  2
ByLayer
 70
    0
  3

 72
   65
 73
    0
 40
0
  0
LTYPE
  5
16
330
5
100
AcDbSymbolTableRecord
100
AcDbLinetypeTableRecord
  2
Continuous
 70
    0
  3
Solid line
 72
   65
 73
    0
 40
0
  0
LTYPE
  5
32
330
5
100
AcDbSymbolTableRecord
100
AcDbLinetypeTableRecord
  2
DOT
 70
    0
  3
Dot . . . . . . . . . . . . . . . . . . . . . .
 72
   65
 73
    2
 40
6.35
 49
0
 74
    0
 49
-6.35
 74
    0
  0
LTYPE
  5
33
330
5
100
AcDbSymbolTableRecord
100
AcDbLinetypeTableRecord
  2
DOTTINY
 70
    0
  3
Dot (.15x) .....................................
 72
   65
 73
    2
 40
0.9525
 49
0
 74
    0
 49
-0.9525
 74
    0
  0
LTYPE
  5
34
330
5
100
AcDbSymbolTableRecord
100
AcDbLinetypeTableRecord
  2
DOT2
 70
    0
  3
Dot (.5x) .....................................
 72
   65
 73
    2
 40
3.175
 49
0
 74
    0
 49
-3.175
 74
    0
  0
LTYPE
  5
35
330
5
100
AcDbSymbolTableRecord
100
AcDbLinetypeTableRecord
  2
DOTX2
 70
    0
  3
Dot (2x) .  .  .  .  .  .  .  .  .  .  .  .  .
 72
   65
 73
    2
 40
12.7
 49
0
 74
    0
 49
-12.7
 74
    0
  0
LTYPE
  5
36
330
5
100
AcDbSymbolTableRecord
100
AcDbLinetypeTableRecord
  2
DASHED
 70
    0
  3
Dashed _ _ _ _ _ _ _ _ _ _ _ _ _ _ _ _ _
 72
   65
 73
    2
 40
19.05
 49
12.7
 74
    0
 49
-6.35
 74
    0
  0
LTYPE
  5
37
330
5
100
AcDbSymbolTableRecord
100
AcDbLinetypeTableRecord
  2
DASHEDTINY
 70
    0
  3
Dashed (.15x) _ _ _ _ _ _ _ _ _ _ _ _ _ _ _ _ _
 72
   65
 73
    2
 40
2.8575
 49
1.905
 74
    0
 49
-0.9525
 74
    0
  0
LTYPE
  5
38
330
5
100
AcDbSymbolTableRecord
100
AcDbLinetypeTableRecord
  2
DASHED2
 70
    0
  3
Dashed (.5x) _ _ _ _ _ _ _ _ _ _ _ _ _ _ _ _ _
 72
   65
 73
    2
 40
9.524999999999999
 49
6.35
 74
    0
 49
-3.175
 74
    0
  0
LTYPE
  5
39
330
5
100
AcDbSymbolTableRecord
100
AcDbLinetypeTableRecord
  2
DASHEDX2
 70
    0
  3
Dashed (2x) ____  ____  ____  ____  ____  ___
 72
   65
 73
    2
 40
38.09999999999999
 49
25.4
 74
    0
 49
-12.7
 74
    0
  0
LTYPE
  5
3A
330
5
100
AcDbSymbolTableRecord
100
AcDbLinetypeTableRecord
  2
DASHDOT
 70
    0
  3
Dash dot __ . __ . __ . __ . __ . __ . __ . __
 72
   65
 73
    4
 40
25.4
 49
12.7
 74
    0
 49
-6.35
 74
    0
 49
0
 74
    0
 49
-6.35
 74
    0
  0
LTYPE
  5
3B
330
5
100
AcDbSymbolTableRecord
100
AcDbLinetypeTableRecord
  2
DASHDOTTINY
 70
    0
  3
Dash dot (.15x) _._._._._._._._._._._._._._._.
 72
   65
 73
    4
 40
3.81
 49
1.905
 74
    0
 49
-0.9525
 74
    0
 49
0
 74
    0
 49
-0.9525
 74
    0
  0
LTYPE
  5
3C
330
5
100
AcDbSymbolTableRecord
100
AcDbLinetypeTableRecord
  2
DASHDOT2
 70
    0
  3
Dash dot (.5x) _._._._._._._._._._._._._._._.
 72
   65
 73
    4
 40
12.7
 49
6.35
 74
    0
 49
-3.175
 74
    0
 49
0
 74
    0
 49
-3.175
 74
    0
  0
LTYPE
  5
3D
330
5
100
AcDbSymbolTableRecord
100
AcDbLinetypeTableRecord
  2
DASHDOTX2
 70
    0
  3
Dash dot (2x) ____  .  ____  .  ____  .  ___
 72
   65
 73
    4
 40
50.8
 49
25.4
 74
    0
 49
-12.7
 74
    0
 49
0
 74
    0
 49
-12.7
 74
    0
  0
LTYPE
  5
3E
330
5
100
AcDbSymbolTableRecord
100
AcDbLinetypeTableRecord
  2
DIVIDE
 70
    0
  3
Divide ____ . . ____ . . ____ . . ____ . . ____
 72
   65
 73
    6
 40
31.75
 49
12.7
 74
    0
 49
-6.35
 74
    0
 49
0
 74
    0
 49
-6.35
 74
    0
 49
0
 74
    0
 49
-6.35
 74
    0
  0
LTYPE
  5
3F
330
5
100
AcDbSymbolTableRecord
100
AcDbLinetypeTableRecord
  2
DIVIDETINY
 70
    0
  3
Divide (.15x) __..__..__..__..__..__..__..__.._
 72
   65
 73
    6
 40
4.7625
 49
1.905
 74
    0
 49
-0.9525
 74
    0
 49
0
 74
    0
 49
-0.9525
 74
    0
 49
0
 74
    0
 49
-0.9525
 74
    0
  0
LTYPE
  5
40
330
5
100
AcDbSymbolTableRecord
100
AcDbLinetypeTableRecord
  2
DIVIDE2
 70
    0
  3
Divide (.5x) __..__..__..__..__..__..__..__.._
 72
   65
 73
    6
 40
15.875
 49
6.35
 74
    0
 49
-3.175
 74
    0
 49
0
 74
    0
 49
-3.175
 74
    0
 49
0
 74
    0
 49
-3.175
 74
    0
  0
LTYPE
  5
41
330
5
100
AcDbSymbolTableRecord
100
AcDbLinetypeTableRecord
  2
DIVIDEX2
 70
    0
  3
Divide (2x) ________  .  .  ________  .  .  _
 72
   65
 73
    6
 40
63.5
 49
25.4
 74
    0
 49
-12.7
 74
    0
 49
0
 74
    0
 49
-12.7
 74
    0
 49
0
 74
    0
 49
-12.7
 74
    0
  0
LTYPE
  5
42
330
5
100
AcDbSymbolTableRecord
100
AcDbLinetypeTableRecord
  2
BORDER
 70
    0
  3
Border __ __ . __ __ . __ __ . __ __ . __ __ .
 72
   65
 73
    6
 40
44.45
 49
12.7
 74
    0
 49
-6.35
 74
    0
 49
12.7
 74
    0
 49
-6.35
 74
    0
 49
0
 74
    0
 49
-6.35
 74
    0
  0
LTYPE
  5
43
330
5
100
AcDbSymbolTableRecord
100
AcDbLinetypeTableRecord
  2
BORDERTINY
 70
    0
  3
Border (.15x) __.__.__.__.__.__.__.__.__.__.__.
 72
   65
 73
    6
 40
6.6675
 49
1.905
 74
    0
 49
-0.9525
 74
    0
 49
1.905
 74
    0
 49
-0.9525
 74
    0
 49
0
 74
    0
 49
-0.9525
 74
    0
  0
LTYPE
  5
44
330
5
100
AcDbSymbolTableRecord
100
AcDbLinetypeTableRecord
  2
BORDER2
 70
    0
  3
Border (.5x) __.__.__.__.__.__.__.__.__.__.__.
 72
   65
 73
    6
 40
22.225
 49
6.35
 74
    0
 49
-3.175
 74
    0
 49
6.35
 74
    0
 49
-3.175
 74
    0
 49
0
 74
    0
 49
-3.175
 74
    0
  0
LTYPE
  5
45
330
5
100
AcDbSymbolTableRecord
100
AcDbLinetypeTableRecord
  2
BORDERX2
 70
    0
  3
Border (2x) ____  ____  .  ____  ____  .  ___
 72
   65
 73
    6
 40
88.89999999999999
 49
25.4
 74
    0
 49
-12.7
 74
    0
 49
25.4
 74
    0
 49
-12.7
 74
    0
 49
0
 74
    0
 49
-12.7
 74
    0
  0
LTYPE
  5
46
330
5
100
AcDbSymbolTableRecord
100
AcDbLinetypeTableRecord
  2
CENTER
 70
    0
  3
Center ____ _ ____ _ ____ _ ____ _ ____ _ ____
 72
   65
 73
    4
 40
50.8
 49
31.75
 74
    0
 49
-6.35
 74
    0
 49
6.35
 74
    0
 49
-6.35
 74
    0
  0
LTYPE
  5
47
330
5
100
AcDbSymbolTableRecord
100
AcDbLinetypeTableRecord
  2
CENTERTINY
 70
    0
  3
Center (.15x) ___ _ ___ _ ___ _ ___ _ ___ _ ___
 72
   65
 73
    4
 40
7.62
 49
4.7625
 74
    0
 49
-0.9525
 74
    0
 49
0.9525
 74
    0
 49
-0.9525
 74
    0
  0
LTYPE
  5
48
330
5
100
AcDbSymbolTableRecord
100
AcDbLinetypeTableRecord
  2
CENTER2
 70
    0
  3
Center (.5x) ___ _ ___ _ ___ _ ___ _ ___ _ ___
 72
   65
 73
    4
 40
28.575
 49
19.05
 74
    0
 49
-3.175
 74
    0
 49
3.175
 74
    0
 49
-3.175
 74
    0
  0
LTYPE
  5
49
330
5
100
AcDbSymbolTableRecord
100
AcDbLinetypeTableRecord
  2
CENTERX2
 70
    0
  3
Center (2x) ________  __  ________  __  _____
 72
   65
 73
    4
 40
101.6
 49
63.5
 74
    0
 49
-12.7
 74
    0
 49
12.7
 74
    0
 49
-12.7
 74
    0
  0
ENDTAB
  0
TABLE
  2
LAYER
  5
2
330
0
100
AcDbSymbolTable
 70
    1
  0
LAYER
  5
10
330
2
100
AcDbSymbolTableRecord
100
AcDbLayerTableRecord
  2
0
 70
    0
 62
    7
  6
CONTINUOUS
370
   -3
390
F
  0
ENDTAB
  0
TABLE
  2
STYLE
  5
3
330
0
100
AcDbSymbolTable
 70
    3
  0
STYLE
  5
4A
330
2
100
AcDbSymbolTableRecord
100
AcDbTextStyleTableRecord
  2
Standard
 70
    0
 40
0
 41
1
 50
0
 71
    0
 42
1
  3
txt
  4

  0
ENDTAB
  0
TABLE
  2
VIEW
  5
6
330
0
100
AcDbSymbolTable
 70
    0
  0
ENDTAB
  0
TABLE
  2
UCS
  5
7
330
0
100
AcDbSymbolTable
 70
    0
  0
ENDTAB
  0
TABLE
  2
APPID
  5
9
330
0
100
AcDbSymbolTable
 70
    1
  0
APPID
  5
12
330
9
100
AcDbSymbolTableRecord
100
AcDbRegAppTableRecord
  2
ACAD
 70
    0
  0
APPID
  5
4B
330
9
100
AcDbSymbolTableRecord
100
AcDbRegAppTableRecord
  2
LibreCad
 70
    0
  0
ENDTAB
  0
TABLE
  2
DIMSTYLE
  5
A
330
0
100
AcDbSymbolTable
 70
    1
100
AcDbDimStyleTable
 71
    1
  0
DIMSTYLE
105
4C
330
A
100
AcDbSymbolTableRecord
100
AcDbDimStyleTableRecord
  2
Standard
 70
    0
 40
1
 41
2.5
 42
0.625
 43
0.38
 44
1.25
 45
0
 46
0
 47
0
 48
0
 49
1
140
2.5
141
0.09
142
2.5
143
25.4
144
1
145
0
146
1
147
0.625
148
0
 71
    0
 72
    0
 73
    0
 74
    1
 75
    0
 76
    0
 77
    0
 78
    1
 79
    0
170
    0
171
    2
172
    0
173
    0
174
    0
175
    0
176
    0
177
    0
178
    0
179
    0
271
    2
272
    4
273
    2
274
    2
275
    0
276
    0
277
    2
278
    0
279
    0
280
    0
281
    0
282
    0
283
    1
284
    0
285
    0
286
    0
288
    0
289
    3
340
standard
341

371
   -2
372
   -2
  0
ENDTAB
  0
TABLE
  2
BLOCK_RECORD
  5
1
330
0
100
AcDbSymbolTable
 70
    2
  0
BLOCK_RECORD
  5
1F
330
1
100
AcDbSymbolTableRecord
100
AcDbBlockTableRecord
  2
*Model_Space
 70
    0
280
    1
281
    0
  0
BLOCK_RECORD
  5
1E
330
1
100
AcDbSymbolTableRecord
100
AcDbBlockTableRecord
  2
*Paper_Space
 70
    0
280
    1
281
    0
  0
ENDTAB
  0
ENDSEC
  0
SECTION
  2
BLOCKS
  0
BLOCK
  5
20
330
1F
100
AcDbEntity
  8
0
100
AcDbBlockBegin
  2
*Model_Space
 70
    0
 10
0
 20
0
 30
0
  3
*Model_Space
  1

  0
ENDBLK
  5
21
330
1F
100
AcDbEntity
  8
0
100
AcDbBlockEnd
  0
BLOCK
  5
1C
330
1B
100
AcDbEntity
  8
0
100
AcDbBlockBegin
  2
*Paper_Space
 70
    0
 10
0
 20
0
 30
0
  3
*Paper_Space
  1

  0
ENDBLK
  5
1D
330
1F
100
AcDbEntity
  8
0
100
AcDbBlockEnd
  0
ENDSEC
  0
SECTION
  2
ENTITIES
  0
LINE
  5
4D
100
AcDbEntity
  8
0
  6
ByLayer
 62
    5
370
   -1
100
AcDbLine
 10
38.301139
 20
103.158551
 11
38.301139
 21
101.504972
  0
LINE
  5
4E
100
AcDbEntity
  8
0
  6
ByLayer
 62
    5
370
   -1
100
AcDbLine
 10
38.301139
 20
101.504972
 11
39.080347
 21
101.504972
  0
LINE
  5
4F
100
AcDbEntity
  8
0
  6
ByLayer
 62
    5
370
   -1
100
AcDbLine
 10
39.080347
 20
101.504972
 11
39.080347
 21
99.52064900000001
  0
LINE
  5
50
100
AcDbEntity
  8
0
  6
ByLayer
 62
    5
370
   -1
100
AcDbLine
 10
39.080347
 20
99.52064900000001
 11
38.301139
 21
99.52064900000001
  0
LINE
  5
51
100
AcDbEntity
  8
0
  6
ByLayer
 62
    5
370
   -1
100
AcDbLine
 10
38.301139
 20
99.52064900000001
 11
38.301139
 21
97.866934
  0
LINE
  5
52
100
AcDbEntity
  8
0
  6
ByLayer
 62
    5
370
   -1
100
AcDbLine
 10
38.301139
 20
97.866934
 11
39.094979
 21
97.866934
  0
LINE
  5
53
100
AcDbEntity
  8
0
  6
ByLayer
 62
    5
370
   -1
100
AcDbLine
 10
39.094979
 20
97.866934
 11
39.094979
 21
87.283563
  0
SPLINE
  5
54
100
AcDbEntity
  8
0
  6
ByLayer
 62
    5
370
   -1
100
AcDbSpline
210
0
220
0
230
0
 70
    8
 71
    3
 72
    8
 73
    4
 74
    0
 42
1e-07
 43
1e-07
 40
0
 40
0
 40
0
 40
0
 40
1
 40
1
 40
1
 40
1
 10
39.094979
 20
87.283563
 30
0
 10
39.094979
 20
85.81777099999999
 30
0
 10
37.914961
 20
84.637754
 30
0
 10
36.449169
 20
84.637754
 30
0
  0
LINE
  5
55
100
AcDbEntity
  8
0
  6
ByLayer
 62
    5
370
   -1
100
AcDbLine
 10
36.449169
 20
84.637754
 11
15.282429
 21
84.637754
  0
SPLINE
  5
56
100
AcDbEntity
  8
0
  6
ByLayer
 62
    5
370
   -1
100
AcDbSpline
210
0
220
0
230
0
 70
    8
 71
    3
 72
    8
 73
    4
 74
    0
 42
1e-07
 43
1e-07
 40
0
 40
0
 40
0
 40
0
 40
1
 40
1
 40
1
 40
1
 10
15.282429
 20
84.637754
 30
0
 10
13.816636
 20
84.637754
 30
0
 10
12.63662
 20
85.81777099999999
 30
0
 10
12.63662
 20
87.283563
 30
0
  0
LINE
  5
57
100
AcDbEntity
  8
0
  6
ByLayer
 62
    5
370
   -1
100
AcDbLine
 10
12.63662
 20
87.283563
 11
12.63662
 21
97.866934
  0
LINE
  5
58
100
AcDbEntity
  8
0
  6
ByLayer
 62
    5
370
   -1
100
AcDbLine
 10
12.63662
 20
97.866934
 11
13.43032
 21
97.866934
  0
LINE
  5
59
100
AcDbEntity
  8
0
  6
ByLayer
 62
    5
370
   -1
100
AcDbLine
 10
13.43032
 20
97.866934
 11
13.43032
 21
99.52064900000001
  0
LINE
  5
5A
100
AcDbEntity
  8
0
  6
ByLayer
 62
    5
370
   -1
100
AcDbLine
 10
13.43032
 20
99.52064900000001
 11
12.622127
 21
99.52064900000001
  0
LINE
  5
5B
100
AcDbEntity
  8
0
  6
ByLayer
 62
    5
370
   -1
100
AcDbLine
 10
12.622127
 20
99.52064900000001
 11
12.622127
 21
101.504972
  0
LINE
  5
5C
100
AcDbEntity
  8
0
  6
ByLayer
 62
    5
370
   -1
100
AcDbLine
 10
12.622127
 20
101.504972
 11
13.43032
 21
101.504972
  0
LINE
  5
5D
100
AcDbEntity
  8
0
  6
ByLayer
 62
    5
370
   -1
100
AcDbLine
 10
13.43032
 20
101.504972
 11
13.43032
 21
103.158551
  0
LINE
  5
5E
100
AcDbEntity
  8
0
  6
ByLayer
 62
    5
370
   -1
100
AcDbLine
 10
13.43032
 20
103.158551
 11
15.282429
 21
103.158551
  0
LINE
  5
5F
100
AcDbEntity
  8
0
  6
ByLayer
 62
    5
370
   -1
100
AcDbLine
 10
15.282429
 20
103.158551
 11
16.076267
 21
103.158551
  0
LINE
  5
60
100
AcDbEntity
  8
0
  6
ByLayer
 62
    5
370
   -1
100
AcDbLine
 10
16.076267
 20
103.158551
 11
35.655332
 21
103.158551
  0
LINE
  5
61
100
AcDbEntity
  8
0
  6
ByLayer
 62
    5
370
   -1
100
AcDbLine
 10
35.655332
 20
103.158551
 11
36.449169
 21
103.158551
  0
LINE
  5
62
100
AcDbEntity
  8
0
  6
ByLayer
 62
    5
370
   -1
100
AcDbLine
 10
36.449169
 20
103.158551
 11
38.301139
 21
103.158551
  0
LINE
  5
63
100
AcDbEntity
  8
0
  6
ByLayer
 62
    3
370
   -1
100
AcDbLine
 10
10.62012
 20
104.535318
 11
89.995121
 21
104.535318
  0
LINE
  5
64
100
AcDbEntity
  8
0
  6
ByLayer
 62
    3
370
   -1
100
AcDbLine
 10
89.995121
 20
104.535318
 11
89.995121
 21
64.84781700000001
  0
LINE
  5
65
100
AcDbEntity
  8
0
  6
ByLayer
 62
    3
370
   -1
100
AcDbLine
 10
89.995121
 20
64.84781700000001
 11
10.62012
 21
64.84781700000001
  0
LINE
  5
66
100
AcDbEntity
  8
0
  6
ByLayer
 62
    3
370
   -1
100
AcDbLine
 10
10.62012
 20
64.84781700000001
 11
10.62012
 21
104.535318
  0
LINE
  5
67
100
AcDbEntity
  8
0
  6
ByLayer
 62
    5
370
   -1
100
AcDbLine
 10
16.66076
 20
83.326718
 11
16.66076
 21
82.53288000000001
  0
LINE
  5
68
100
AcDbEntity
  8
0
  6
ByLayer
 62
    5
370
   -1
100
AcDbLine
 10
16.66076
 20
82.53288000000001
 11
15.483402
 21
82.53288000000001
  0
SPLINE
  5
69
100
AcDbEntity
  8
0
  6
ByLayer
 62
    5
370
   -1
100
AcDbSpline
210
0
220
0
230
0
 70
    8
 71
    3
 72
    8
 73
    4
 74
    0
 42
1e-07
 43
1e-07
 40
0
 40
0
 40
0
 40
0
 40
1
 40
1
 40
1
 40
1
 10
15.483402
 20
82.53288000000001
 30
0
 10
14.157183
 20
82.53288000000001
 30
0
 10
13.065037
 20
81.566894
 30
0
 10
12.869041
 20
80.297253
 30
0
  0
LINE
  5
6A
100
AcDbEntity
  8
0
  6
ByLayer
 62
    5
370
   -1
100
AcDbLine
 10
12.869041
 20
80.297253
 11
12.043892
 21
80.297253
  0
LINE
  5
6B
100
AcDbEntity
  8
0
  6
ByLayer
 62
    5
370
   -1
100
AcDbLine
 10
12.043892
 20
80.297253
 11
12.043892
 21
77.62491900000001
  0
LINE
  5
6C
100
AcDbEntity
  8
0
  6
ByLayer
 62
    5
370
   -1
100
AcDbLine
 10
12.043892
 20
77.62491900000001
 11
12.837593
 21
77.62491900000001
  0
LINE
  5
6D
100
AcDbEntity
  8
0
  6
ByLayer
 62
    5
370
   -1
100
AcDbLine
 10
12.837593
 20
77.62491900000001
 11
12.837593
 21
72.359689
  0
LINE
  5
6E
100
AcDbEntity
  8
0
  6
ByLayer
 62
    5
370
   -1
100
AcDbLine
 10
12.837593
 20
72.359689
 11
12.043892
 21
72.359689
  0
LINE
  5
6F
100
AcDbEntity
  8
0
  6
ByLayer
 62
    5
370
   -1
100
AcDbLine
 10
12.043892
 20
72.359689
 11
12.043892
 21
69.687358
  0
LINE
  5
70
100
AcDbEntity
  8
0
  6
ByLayer
 62
    5
370
   -1
100
AcDbLine
 10
12.043892
 20
69.687358
 11
12.869041
 21
69.687358
  0
SPLINE
  5
71
100
AcDbEntity
  8
0
  6
ByLayer
 62
    5
370
   -1
100
AcDbSpline
210
0
220
0
230
0
 70
    8
 71
    3
 72
    8
 73
    4
 74
    0
 42
1e-07
 43
1e-07
 40
0
 40
0
 40
0
 40
0
 40
1
 40
1
 40
1
 40
1
 10
12.869041
 20
69.687358
 30
0
 10
13.065037
 20
68.417715
 30
0
 10
14.157183
 20
67.451729
 30
0
 10
15.483402
 20
67.451729
 30
0
  0
LINE
  5
72
100
AcDbEntity
  8
0
  6
ByLayer
 62
    5
370
   -1
100
AcDbLine
 10
15.483402
 20
67.451729
 11
16.66076
 21
67.451729
  0
LINE
  5
73
100
AcDbEntity
  8
0
  6
ByLayer
 62
    5
370
   -1
100
AcDbLine
 10
16.66076
 20
67.451729
 11
16.66076
 21
66.657892
  0
LINE
  5
74
100
AcDbEntity
  8
0
  6
ByLayer
 62
    5
370
   -1
100
AcDbLine
 10
16.66076
 20
66.657892
 11
19.333094
 21
66.657892
  0
LINE
  5
75
100
AcDbEntity
  8
0
  6
ByLayer
 62
    5
370
   -1
100
AcDbLine
 10
19.333094
 20
66.657892
 11
19.333094
 21
67.451729
  0
LINE
  5
76
100
AcDbEntity
  8
0
  6
ByLayer
 62
    5
370
   -1
100
AcDbLine
 10
19.333094
 20
67.451729
 11
23.936836
 21
67.451729
  0
LINE
  5
77
100
AcDbEntity
  8
0
  6
ByLayer
 62
    5
370
   -1
100
AcDbLine
 10
23.936836
 20
67.451729
 11
23.936836
 21
66.657892
  0
LINE
  5
78
100
AcDbEntity
  8
0
  6
ByLayer
 62
    5
370
   -1
100
AcDbLine
 10
23.936836
 20
66.657892
 11
26.60917
 21
66.657892
  0
LINE
  5
79
100
AcDbEntity
  8
0
  6
ByLayer
 62
    5
370
   -1
100
AcDbLine
 10
26.60917
 20
66.657892
 11
26.60917
 21
67.451729
  0
LINE
  5
7A
100
AcDbEntity
  8
0
  6
ByLayer
 62
    5
370
   -1
100
AcDbLine
 10
26.60917
 20
67.451729
 11
31.212912
 21
67.451729
  0
LINE
  5
7B
100
AcDbEntity
  8
0
  6
ByLayer
 62
    5
370
   -1
100
AcDbLine
 10
31.212912
 20
67.451729
 11
31.212912
 21
66.657892
  0
LINE
  5
7C
100
AcDbEntity
  8
0
  6
ByLayer
 62
    5
370
   -1
100
AcDbLine
 10
31.212912
 20
66.657892
 11
33.885246
 21
66.657892
  0
LINE
  5
7D
100
AcDbEntity
  8
0
  6
ByLayer
 62
    5
370
   -1
100
AcDbLine
 10
33.885246
 20
66.657892
 11
33.885246
 21
67.451729
  0
LINE
  5
7E
100
AcDbEntity
  8
0
  6
ByLayer
 62
    5
370
   -1
100
AcDbLine
 10
33.885246
 20
67.451729
 11
35.062604
 21
67.451729
  0
SPLINE
  5
7F
100
AcDbEntity
  8
0
  6
ByLayer
 62
    5
370
   -1
100
AcDbSpline
210
0
220
0
230
0
 70
    8
 71
    3
 72
    8
 73
    4
 74
    0
 42
1e-07
 43
1e-07
 40
0
 40
0
 40
0
 40
0
 40
1
 40
1
 40
1
 40
1
 10
35.062604
 20
67.451729
 30
0
 10
36.388818
 20
67.451729
 30
0
 10
37.480968
 20
68.417715
 30
0
 10
37.676966
 20
69.687358
 30
0
  0
LINE
  5
80
100
AcDbEntity
  8
0
  6
ByLayer
 62
    5
370
   -1
100
AcDbLine
 10
37.676966
 20
69.687358
 11
38.502114
 21
69.687358
  0
LINE
  5
81
100
AcDbEntity
  8
0
  6
ByLayer
 62
    5
370
   -1
100
AcDbLine
 10
38.502114
 20
69.687358
 11
38.502114
 21
72.359689
  0
LINE
  5
82
100
AcDbEntity
  8
0
  6
ByLayer
 62
    5
370
   -1
100
AcDbLine
 10
38.502114
 20
72.359689
 11
37.708411
 21
72.359689
  0
LINE
  5
83
100
AcDbEntity
  8
0
  6
ByLayer
 62
    5
370
   -1
100
AcDbLine
 10
37.708411
 20
72.359689
 11
37.708411
 21
77.62491900000001
  0
LINE
  5
84
100
AcDbEntity
  8
0
  6
ByLayer
 62
    5
370
   -1
100
AcDbLine
 10
37.708411
 20
77.62491900000001
 11
38.502114
 21
77.62491900000001
  0
LINE
  5
85
100
AcDbEntity
  8
0
  6
ByLayer
 62
    5
370
   -1
100
AcDbLine
 10
38.502114
 20
77.62491900000001
 11
38.502114
 21
80.297253
  0
LINE
  5
86
100
AcDbEntity
  8
0
  6
ByLayer
 62
    5
370
   -1
100
AcDbLine
 10
38.502114
 20
80.297253
 11
37.676966
 21
80.297253
  0
SPLINE
  5
87
100
AcDbEntity
  8
0
  6
ByLayer
 62
    5
370
   -1
100
AcDbSpline
210
0
220
0
230
0
 70
    8
 71
    3
 72
    8
 73
    4
 74
    0
 42
1e-07
 43
1e-07
 40
0
 40
0
 40
0
 40
0
 40
1
 40
1
 40
1
 40
1
 10
37.676966
 20
80.297253
 30
0
 10
37.480968
 20
81.566894
 30
0
 10
36.388818
 20
82.53288000000001
 30
0
 10
35.062604
 20
82.53288000000001
 30
0
  0
LINE
  5
88
100
AcDbEntity
  8
0
  6
ByLayer
 62
    5
370
   -1
100
AcDbLine
 10
35.062604
 20
82.53288000000001
 11
33.885246
 21
82.53288000000001
  0
LINE
  5
89
100
AcDbEntity
  8
0
  6
ByLayer
 62
    5
370
   -1
100
AcDbLine
 10
33.885246
 20
82.53288000000001
 11
33.885246
 21
83.326718
  0
LINE
  5
8A
100
AcDbEntity
  8
0
  6
ByLayer
 62
    5
370
   -1
100
AcDbLine
 10
33.885246
 20
83.326718
 11
31.212912
 21
83.326718
  0
LINE
  5
8B
100
AcDbEntity
  8
0
  6
ByLayer
 62
    5
370
   -1
100
AcDbLine
 10
31.212912
 20
83.326718
 11
31.212912
 21
82.53288000000001
  0
LINE
  5
8C
100
AcDbEntity
  8
0
  6
ByLayer
 62
    5
370
   -1
100
AcDbLine
 10
31.212912
 20
82.53288000000001
 11
26.60917
 21
82.53288000000001
  0
LINE
  5
8D
100
AcDbEntity
  8
0
  6
ByLayer
 62
    5
370
   -1
100
AcDbLine
 10
26.60917
 20
82.53288000000001
 11
26.60917
 21
83.326718
  0
LINE
  5
8E
100
AcDbEntity
  8
0
  6
ByLayer
 62
    5
370
   -1
100
AcDbLine
 10
26.60917
 20
83.326718
 11
23.936836
 21
83.326718
  0
LINE
  5
8F
100
AcDbEntity
  8
0
  6
ByLayer
 62
    5
370
   -1
100
AcDbLine
 10
23.936836
 20
83.326718
 11
23.936836
 21
82.53288000000001
  0
LINE
  5
90
100
AcDbEntity
  8
0
  6
ByLayer
 62
    5
370
   -1
100
AcDbLine
 10
23.936836
 20
82.53288000000001
 11
19.333094
 21
82.53288000000001
  0
LINE
  5
91
100
AcDbEntity
  8
0
  6
ByLayer
 62
    5
370
   -1
100
AcDbLine
 10
19.333094
 20
82.53288000000001
 11
19.333094
 21
83.326718
  0
LINE
  5
92
100
AcDbEntity
  8
0
  6
ByLayer
 62
    5
370
   -1
100
AcDbLine
 10
19.333094
 20
83.326718
 11
16.66076
 21
83.326718
  0
SPLINE
  5
93
100
AcDbEntity
  8
0
  6
ByLayer
 62
    5
370
   -1
100
AcDbSpline
210
0
220
0
230
0
 70
    8
 71
    3
 72
    8
 73
    4
 74
    0
 42
1e-07
 43
1e-07
 40
0
 40
0
 40
0
 40
0
 40
1
 40
1
 40
1
 40
1
 10
59.842654
 20
83.68227400000001
 30
0
 10
59.842641
 20
85.14350899999999
 30
0
 10
58.658077
 20
86.32807
 30
0
 10
57.195612
 20
86.32740099999999
 30
0
  0
LINE
  5
94
100
AcDbEntity
  8
0
  6
ByLayer
 62
    5
370
   -1
100
AcDbLine
 10
57.195612
 20
86.32740099999999
 11
55.871409
 21
86.326607
  0
LINE
  5
95
100
AcDbEntity
  8
0
  6
ByLayer
 62
    5
370
   -1
100
AcDbLine
 10
55.871409
 20
86.326607
 11
54.151649
 21
86.326607
  0
LINE
  5
96
100
AcDbEntity
  8
0
  6
ByLayer
 62
    5
370
   -1
100
AcDbLine
 10
54.151649
 20
86.326607
 11
53.490164
 21
86.326607
  0
LINE
  5
97
100
AcDbEntity
  8
0
  6
ByLayer
 62
    5
370
   -1
100
AcDbLine
 10
53.490164
 20
86.326607
 11
43.965199
 21
86.326607
  0
SPLINE
  5
98
100
AcDbEntity
  8
0
  6
ByLayer
 62
    5
370
   -1
100
AcDbSpline
210
0
220
0
230
0
 70
    8
 71
    3
 72
    8
 73
    4
 74
    0
 42
1e-07
 43
1e-07
 40
0
 40
0
 40
0
 40
0
 40
1
 40
1
 40
1
 40
1
 10
43.965199
 20
86.326607
 30
0
 10
42.499404
 20
86.326607
 30
0
 10
41.319389
 20
85.14658900000001
 30
0
 10
41.319389
 20
83.680797
 30
0
  0
LINE
  5
99
100
AcDbEntity
  8
0
  6
ByLayer
 62
    5
370
   -1
100
AcDbLine
 10
41.319389
 20
83.680797
 11
41.319389
 21
70.45162000000001
  0
SPLINE
  5
9A
100
AcDbEntity
  8
0
  6
ByLayer
 62
    5
370
   -1
100
AcDbSpline
210
0
220
0
230
0
 70
    8
 71
    3
 72
    8
 73
    4
 74
    0
 42
1e-07
 43
1e-07
 40
0
 40
0
 40
0
 40
0
 40
1
 40
1
 40
1
 40
1
 10
41.319389
 20
70.45162000000001
 30
0
 10
41.319389
 20
68.985828
 30
0
 10
42.499404
 20
67.805813
 30
0
 10
43.965199
 20
67.805813
 30
0
  0
LINE
  5
9B
100
AcDbEntity
  8
0
  6
ByLayer
 62
    5
370
   -1
100
AcDbLine
 10
43.965199
 20
67.805813
 11
54.151649
 21
67.805813
  0
SPLINE
  5
9C
100
AcDbEntity
  8
0
  6
ByLayer
 62
    5
370
   -1
100
AcDbSpline
210
0
220
0
230
0
 70
    8
 71
    3
 72
    8
 73
    4
 74
    0
 42
1e-07
 43
1e-07
 40
0
 40
0
 40
0
 40
0
 40
1
 40
1
 40
1
 40
1
 10
54.151649
 20
67.805813
 30
0
 10
55.617446
 20
67.805813
 30
0
 10
56.797461
 20
68.985828
 30
0
 10
56.797461
 20
70.45162000000001
 30
0
  0
LINE
  5
9D
100
AcDbEntity
  8
0
  6
ByLayer
 62
    5
370
   -1
100
AcDbLine
 10
56.797461
 20
70.45162000000001
 11
56.797461
 21
81.034853
  0
LINE
  5
9E
100
AcDbEntity
  8
0
  6
ByLayer
 62
    5
370
   -1
100
AcDbLine
 10
56.797461
 20
81.034853
 11
57.195612
 21
81.035647
  0
SPLINE
  5
9F
100
AcDbEntity
  8
0
  6
ByLayer
 62
    5
370
   -1
100
AcDbSpline
210
0
220
0
230
0
 70
    8
 71
    3
 72
    8
 73
    4
 74
    0
 42
1e-07
 43
1e-07
 40
0
 40
0
 40
0
 40
0
 40
1
 40
1
 40
1
 40
1
 10
57.195612
 20
81.035647
 30
0
 10
58.658133
 20
81.03644
 30
0
 10
59.842715
 20
82.22098800000001
 30
0
 10
59.842654
 20
83.682276
 30
0
  0
LINE
  5
A0
100
AcDbEntity
  8
0
  6
ByLayer
 62
    5
370
   -1
100
AcDbLine
 10
59.842654
 20
83.682276
 11
59.842654
 21
83.68227400000001
  0
SPLINE
  5
A1
100
AcDbEntity
  8
0
  6
ByLayer
 62
    1
370
   -1
100
AcDbSpline
210
0
220
0
230
0
 70
    8
 71
    3
 72
    8
 73
    4
 74
    0
 42
1e-07
 43
1e-07
 40
0
 40
0
 40
0
 40
0
 40
1
 40
1
 40
1
 40
1
 10
58.252696
 20
83.68227400000001
 30
0
 10
58.252447
 20
83.89072299999999
 30
0
 10
58.190506
 20
84.094435
 30
0
 10
58.074679
 20
84.267741
 30
0
  0
LINE
  5
A2
100
AcDbEntity
  8
0
  6
ByLayer
 62
    1
370
   -1
100
AcDbLine
 10
58.074679
 20
84.267741
 11
57.541578
 21
84.148242
  0
SPLINE
  5
A3
100
AcDbEntity
  8
0
  6
ByLayer
 62
    1
370
   -1
100
AcDbSpline
210
0
220
0
230
0
 70
    8
 71
    3
 72
    8
 73
    4
 74
    0
 42
1e-07
 43
1e-07
 40
0
 40
0
 40
0
 40
0
 40
1
 40
1
 40
1
 40
1
 10
57.541578
 20
84.148242
 30
0
 10
57.541578
 20
84.148242
 30
0
 10
57.541578
 20
84.67888000000001
 30
0
 10
57.541578
 20
84.67888000000001
 30
0
  0
SPLINE
  5
A4
100
AcDbEntity
  8
0
  6
ByLayer
 62
    1
370
   -1
100
AcDbSpline
210
0
220
0
230
0
 70
    8
 71
    3
 72
    8
 73
    4
 74
    0
 42
1e-07
 43
1e-07
 40
0
 40
0
 40
0
 40
0
 40
1
 40
1
 40
1
 40
1
 10
57.541578
 20
84.67888000000001
 30
0
 10
57.430728
 20
84.717652
 30
0
 10
57.314186
 20
84.737661
 30
0
 10
57.196752
 20
84.738083
 30
0
  0
SPLINE
  5
A5
100
AcDbEntity
  8
0
  6
ByLayer
 62
    1
370
   -1
100
AcDbSpline
210
0
220
0
230
0
 70
    8
 71
    3
 72
    8
 73
    4
 74
    0
 42
1e-07
 43
1e-07
 40
0
 40
0
 40
0
 40
0
 40
1
 40
1
 40
1
 40
1
 10
57.196752
 20
84.738083
 30
0
 10
56.61367
 20
84.738023
 30
0
 10
56.141004
 20
84.265356
 30
0
 10
56.140945
 20
83.68227400000001
 30
0
  0
SPLINE
  5
A6
100
AcDbEntity
  8
0
  6
ByLayer
 62
    1
370
   -1
100
AcDbSpline
210
0
220
0
230
0
 70
    8
 71
    3
 72
    8
 73
    4
 74
    0
 42
1e-07
 43
1e-07
 40
0
 40
0
 40
0
 40
0
 40
1
 40
1
 40
1
 40
1
 10
56.140945
 20
83.68227400000001
 30
0
 10
56.141395
 20
83.460808
 30
0
 10
56.211468
 20
83.24509
 30
0
 10
56.341251
 20
83.065636
 30
0
  0
LINE
  5
A7
100
AcDbEntity
  8
0
  6
ByLayer
 62
    1
370
   -1
100
AcDbLine
 10
56.341251
 20
83.065636
 11
56.747876
 21
83.15683199999999
  0
LINE
  5
A8
100
AcDbEntity
  8
0
  6
ByLayer
 62
    1
370
   -1
100
AcDbLine
 10
56.747876
 20
83.15683199999999
 11
56.747876
 21
82.72778099999999
  0
SPLINE
  5
A9
100
AcDbEntity
  8
0
  6
ByLayer
 62
    1
370
   -1
100
AcDbSpline
210
0
220
0
230
0
 70
    8
 71
    3
 72
    8
 73
    4
 74
    0
 42
1e-07
 43
1e-07
 40
0
 40
0
 40
0
 40
0
 40
1
 40
1
 40
1
 40
1
 10
56.747876
 20
82.72778099999999
 30
0
 10
56.888222
 20
82.661373
 30
0
 10
57.041487
 20
82.626734
 30
0
 10
57.196752
 20
82.62633
 30
0
  0
SPLINE
  5
AA
100
AcDbEntity
  8
0
  6
ByLayer
 62
    1
370
   -1
100
AcDbSpline
210
0
220
0
230
0
 70
    8
 71
    3
 72
    8
 73
    4
 74
    0
 42
1e-07
 43
1e-07
 40
0
 40
0
 40
0
 40
0
 40
1
 40
1
 40
1
 40
1
 10
57.196752
 20
82.62633
 30
0
 10
57.476808
 20
82.626322
 30
0
 10
57.745396
 20
82.737571
 30
0
 10
57.943426
 20
82.93559999999999
 30
0
  0
SPLINE
  5
AB
100
AcDbEntity
  8
0
  6
ByLayer
 62
    1
370
   -1
100
AcDbSpline
210
0
220
0
230
0
 70
    8
 71
    3
 72
    8
 73
    4
 74
    0
 42
1e-07
 43
1e-07
 40
0
 40
0
 40
0
 40
0
 40
1
 40
1
 40
1
 40
1
 10
57.943426
 20
82.93559999999999
 30
0
 10
58.141455
 20
83.13363
 30
0
 10
58.252704
 20
83.402218
 30
0
 10
58.252696
 20
83.68227400000001
 30
0
  0
LINE
  5
AC
100
AcDbEntity
  8
0
  6
ByLayer
 62
    1
370
   -1
100
AcDbLine
 10
58.252696
 20
83.68227400000001
 11
58.252696
 21
83.68227400000001
  0
SPLINE
  5
AD
100
AcDbEntity
  8
0
  6
ByLayer
 62
    1
370
   -1
100
AcDbSpline
210
0
220
0
230
0
 70
    8
 71
    3
 72
    8
 73
    4
 74
    0
 42
1e-07
 43
1e-07
 40
0
 40
0
 40
0
 40
0
 40
1
 40
1
 40
1
 40
1
 10
49.303226
 20
84.452206
 30
0
 10
49.162882
 20
84.452206
 30
0
 10
49.028286
 20
84.507957
 30
0
 10
48.929048
 20
84.607195
 30
0
  0
SPLINE
  5
AE
100
AcDbEntity
  8
0
  6
ByLayer
 62
    1
370
   -1
100
AcDbSpline
210
0
220
0
230
0
 70
    8
 71
    3
 72
    8
 73
    4
 74
    0
 42
1e-07
 43
1e-07
 40
0
 40
0
 40
0
 40
0
 40
1
 40
1
 40
1
 40
1
 10
48.929048
 20
84.607195
 30
0
 10
48.82981
 20
84.706433
 30
0
 10
48.774059
 20
84.84102900000001
 30
0
 10
48.774059
 20
84.981373
 30
0
  0
SPLINE
  5
AF
100
AcDbEntity
  8
0
  6
ByLayer
 62
    1
370
   -1
100
AcDbSpline
210
0
220
0
230
0
 70
    8
 71
    3
 72
    8
 73
    4
 74
    0
 42
1e-07
 43
1e-07
 40
0
 40
0
 40
0
 40
0
 40
1
 40
1
 40
1
 40
1
 10
48.774059
 20
84.981373
 30
0
 10
48.774059
 20
85.12171600000001
 30
0
 10
48.82981
 20
85.25631199999999
 30
0
 10
48.929048
 20
85.35554999999999
 30
0
  0
SPLINE
  5
B0
100
AcDbEntity
  8
0
  6
ByLayer
 62
    1
370
   -1
100
AcDbSpline
210
0
220
0
230
0
 70
    8
 71
    3
 72
    8
 73
    4
 74
    0
 42
1e-07
 43
1e-07
 40
0
 40
0
 40
0
 40
0
 40
1
 40
1
 40
1
 40
1
 10
48.929048
 20
85.35554999999999
 30
0
 10
49.028286
 20
85.45478799999999
 30
0
 10
49.162882
 20
85.51053899999999
 30
0
 10
49.303226
 20
85.51053899999999
 30
0
  0
SPLINE
  5
B1
100
AcDbEntity
  8
0
  6
ByLayer
 62
    1
370
   -1
100
AcDbSpline
210
0
220
0
230
0
 70
    8
 71
    3
 72
    8
 73
    4
 74
    0
 42
1e-07
 43
1e-07
 40
0
 40
0
 40
0
 40
0
 40
1
 40
1
 40
1
 40
1
 10
49.303226
 20
85.51053899999999
 30
0
 10
49.443569
 20
85.51053899999999
 30
0
 10
49.578165
 20
85.45478799999999
 30
0
 10
49.677403
 20
85.35554999999999
 30
0
  0
SPLINE
  5
B2
100
AcDbEntity
  8
0
  6
ByLayer
 62
    1
370
   -1
100
AcDbSpline
210
0
220
0
230
0
 70
    8
 71
    3
 72
    8
 73
    4
 74
    0
 42
1e-07
 43
1e-07
 40
0
 40
0
 40
0
 40
0
 40
1
 40
1
 40
1
 40
1
 10
49.677403
 20
85.35554999999999
 30
0
 10
49.776641
 20
85.25631199999999
 30
0
 10
49.832392
 20
85.12171600000001
 30
0
 10
49.832392
 20
84.981373
 30
0
  0
SPLINE
  5
B3
100
AcDbEntity
  8
0
  6
ByLayer
 62
    1
370
   -1
100
AcDbSpline
210
0
220
0
230
0
 70
    8
 71
    3
 72
    8
 73
    4
 74
    0
 42
1e-07
 43
1e-07
 40
0
 40
0
 40
0
 40
0
 40
1
 40
1
 40
1
 40
1
 10
49.832392
 20
84.981373
 30
0
 10
49.832392
 20
84.84102900000001
 30
0
 10
49.776641
 20
84.706433
 30
0
 10
49.677403
 20
84.607195
 30
0
  0
SPLINE
  5
B4
100
AcDbEntity
  8
0
  6
ByLayer
 62
    1
370
   -1
100
AcDbSpline
210
0
220
0
230
0
 70
    8
 71
    3
 72
    8
 73
    4
 74
    0
 42
1e-07
 43
1e-07
 40
0
 40
0
 40
0
 40
0
 40
1
 40
1
 40
1
 40
1
 10
49.677403
 20
84.607195
 30
0
 10
49.578165
 20
84.507957
 30
0
 10
49.443569
 20
84.452206
 30
0
 10
49.303226
 20
84.452206
 30
0
  0
LINE
  5
B5
100
AcDbEntity
  8
0
  6
ByLayer
 62
    1
370
   -1
100
AcDbLine
 10
49.303226
 20
84.452206
 11
49.303226
 21
84.452206
  0
SPLINE
  5
B6
100
AcDbEntity
  8
0
  6
ByLayer
 62
    1
370
   -1
100
AcDbSpline
210
0
220
0
230
0
 70
    8
 71
    3
 72
    8
 73
    4
 74
    0
 42
1e-07
 43
1e-07
 40
0
 40
0
 40
0
 40
0
 40
1
 40
1
 40
1
 40
1
 10
49.303231
 20
68.59374200000001
 30
0
 10
49.162887
 20
68.59374200000001
 30
0
 10
49.028292
 20
68.649494
 30
0
 10
48.929054
 20
68.748732
 30
0
  0
SPLINE
  5
B7
100
AcDbEntity
  8
0
  6
ByLayer
 62
    1
370
   -1
100
AcDbSpline
210
0
220
0
230
0
 70
    8
 71
    3
 72
    8
 73
    4
 74
    0
 42
1e-07
 43
1e-07
 40
0
 40
0
 40
0
 40
0
 40
1
 40
1
 40
1
 40
1
 10
48.929054
 20
68.748732
 30
0
 10
48.829816
 20
68.84797
 30
0
 10
48.774064
 20
68.98256499999999
 30
0
 10
48.774064
 20
69.12290900000001
 30
0
  0
SPLINE
  5
B8
100
AcDbEntity
  8
0
  6
ByLayer
 62
    1
370
   -1
100
AcDbSpline
210
0
220
0
230
0
 70
    8
 71
    3
 72
    8
 73
    4
 74
    0
 42
1e-07
 43
1e-07
 40
0
 40
0
 40
0
 40
0
 40
1
 40
1
 40
1
 40
1
 10
48.774064
 20
69.12290900000001
 30
0
 10
48.774064
 20
69.26325300000001
 30
0
 10
48.829816
 20
69.397848
 30
0
 10
48.929054
 20
69.497086
 30
0
  0
SPLINE
  5
B9
100
AcDbEntity
  8
0
  6
ByLayer
 62
    1
370
   -1
100
AcDbSpline
210
0
220
0
230
0
 70
    8
 71
    3
 72
    8
 73
    4
 74
    0
 42
1e-07
 43
1e-07
 40
0
 40
0
 40
0
 40
0
 40
1
 40
1
 40
1
 40
1
 10
48.929054
 20
69.497086
 30
0
 10
49.028292
 20
69.596324
 30
0
 10
49.162887
 20
69.65207599999999
 30
0
 10
49.303231
 20
69.65207599999999
 30
0
  0
SPLINE
  5
BA
100
AcDbEntity
  8
0
  6
ByLayer
 62
    1
370
   -1
100
AcDbSpline
210
0
220
0
230
0
 70
    8
 71
    3
 72
    8
 73
    4
 74
    0
 42
1e-07
 43
1e-07
 40
0
 40
0
 40
0
 40
0
 40
1
 40
1
 40
1
 40
1
 10
49.303231
 20
69.65207599999999
 30
0
 10
49.443575
 20
69.65207599999999
 30
0
 10
49.57817
 20
69.596324
 30
0
 10
49.677408
 20
69.497086
 30
0
  0
SPLINE
  5
BB
100
AcDbEntity
  8
0
  6
ByLayer
 62
    1
370
   -1
100
AcDbSpline
210
0
220
0
230
0
 70
    8
 71
    3
 72
    8
 73
    4
 74
    0
 42
1e-07
 43
1e-07
 40
0
 40
0
 40
0
 40
0
 40
1
 40
1
 40
1
 40
1
 10
49.677408
 20
69.497086
 30
0
 10
49.776646
 20
69.397848
 30
0
 10
49.832398
 20
69.26325300000001
 30
0
 10
49.832398
 20
69.12290900000001
 30
0
  0
SPLINE
  5
BC
100
AcDbEntity
  8
0
  6
ByLayer
 62
    1
370
   -1
100
AcDbSpline
210
0
220
0
230
0
 70
    8
 71
    3
 72
    8
 73
    4
 74
    0
 42
1e-07
 43
1e-07
 40
0
 40
0
 40
0
 40
0
 40
1
 40
1
 40
1
 40
1
 10
49.832398
 20
69.12290900000001
 30
0
 10
49.832398
 20
68.98256499999999
 30
0
 10
49.776646
 20
68.84797
 30
0
 10
49.677408
 20
68.748732
 30
0
  0
SPLINE
  5
BD
100
AcDbEntity
  8
0
  6
ByLayer
 62
    1
370
   -1
100
AcDbSpline
210
0
220
0
230
0
 70
    8
 71
    3
 72
    8
 73
    4
 74
    0
 42
1e-07
 43
1e-07
 40
0
 40
0
 40
0
 40
0
 40
1
 40
1
 40
1
 40
1
 10
49.677408
 20
68.748732
 30
0
 10
49.57817
 20
68.649494
 30
0
 10
49.443575
 20
68.59374200000001
 30
0
 10
49.303231
 20
68.59374200000001
 30
0
  0
LINE
  5
BE
100
AcDbEntity
  8
0
  6
ByLayer
 62
    1
370
   -1
100
AcDbLine
 10
49.303231
 20
68.59374200000001
 11
49.303231
 21
68.59374200000001
  0
LINE
  5
BF
100
AcDbEntity
  8
0
  6
ByLayer
 62
    1
370
   -1
100
AcDbLine
 10
54.581618
 20
85.36501800000001
 11
54.581618
 21
84.597729
  0
SPLINE
  5
C0
100
AcDbEntity
  8
0
  6
ByLayer
 62
    1
370
   -1
100
AcDbSpline
210
0
220
0
230
0
 70
    8
 71
    3
 72
    8
 73
    4
 74
    0
 42
1e-07
 43
1e-07
 40
0
 40
0
 40
0
 40
0
 40
1
 40
1
 40
1
 40
1
 10
54.581618
 20
84.597729
 30
0
 10
54.581618
 20
84.59772700000001
 30
0
 10
54.581618
 20
84.59772700000001
 30
0
 10
54.581618
 20
84.59772700000001
 30
0
  0
LINE
  5
C1
100
AcDbEntity
  8
0
  6
ByLayer
 62
    1
370
   -1
100
AcDbLine
 10
54.581618
 20
84.59772700000001
 11
51.935785
 21
84.59772700000001
  0
SPLINE
  5
C2
100
AcDbEntity
  8
0
  6
ByLayer
 62
    1
370
   -1
100
AcDbSpline
210
0
220
0
230
0
 70
    8
 71
    3
 72
    8
 73
    4
 74
    0
 42
1e-07
 43
1e-07
 40
0
 40
0
 40
0
 40
0
 40
1
 40
1
 40
1
 40
1
 10
51.935785
 20
84.59772700000001
 30
0
 10
51.935785
 20
84.59772700000001
 30
0
 10
51.935785
 20
84.59772700000001
 30
0
 10
51.935785
 20
84.597729
 30
0
  0
LINE
  5
C3
100
AcDbEntity
  8
0
  6
ByLayer
 62
    1
370
   -1
100
AcDbLine
 10
51.935785
 20
84.597729
 11
51.935785
 21
85.36501800000001
  0
LINE
  5
C4
100
AcDbEntity
  8
0
  6
ByLayer
 62
    1
370
   -1
100
AcDbLine
 10
51.935785
 20
85.36501800000001
 11
51.935785
 21
85.36501800000001
  0
LINE
  5
C5
100
AcDbEntity
  8
0
  6
ByLayer
 62
    1
370
   -1
100
AcDbLine
 10
51.935785
 20
85.36501800000001
 11
54.581618
 21
85.36501800000001
  0
LINE
  5
C6
100
AcDbEntity
  8
0
  6
ByLayer
 62
    1
370
   -1
100
AcDbLine
 10
54.581618
 20
85.36501800000001
 11
54.581618
 21
85.36501800000001
  0
LINE
  5
C7
100
AcDbEntity
  8
0
  6
ByLayer
 62
    1
370
   -1
100
AcDbLine
 10
54.581618
 20
85.36501800000001
 11
54.581618
 21
85.36501800000001
  0
LINE
  5
C8
100
AcDbEntity
  8
0
  6
ByLayer
 62
    1
370
   -1
100
AcDbLine
 10
46.644118
 20
85.36501800000001
 11
46.644118
 21
84.597729
  0
SPLINE
  5
C9
100
AcDbEntity
  8
0
  6
ByLayer
 62
    1
370
   -1
100
AcDbSpline
210
0
220
0
230
0
 70
    8
 71
    3
 72
    8
 73
    4
 74
    0
 42
1e-07
 43
1e-07
 40
0
 40
0
 40
0
 40
0
 40
1
 40
1
 40
1
 40
1
 10
46.644118
 20
84.597729
 30
0
 10
46.644118
 20
84.59772700000001
 30
0
 10
46.644118
 20
84.59772700000001
 30
0
 10
46.644118
 20
84.59772700000001
 30
0
  0
LINE
  5
CA
100
AcDbEntity
  8
0
  6
ByLayer
 62
    1
370
   -1
100
AcDbLine
 10
46.644118
 20
84.59772700000001
 11
43.998285
 21
84.59772700000001
  0
SPLINE
  5
CB
100
AcDbEntity
  8
0
  6
ByLayer
 62
    1
370
   -1
100
AcDbSpline
210
0
220
0
230
0
 70
    8
 71
    3
 72
    8
 73
    4
 74
    0
 42
1e-07
 43
1e-07
 40
0
 40
0
 40
0
 40
0
 40
1
 40
1
 40
1
 40
1
 10
43.998285
 20
84.59772700000001
 30
0
 10
43.998285
 20
84.59772700000001
 30
0
 10
43.998285
 20
84.59772700000001
 30
0
 10
43.998285
 20
84.597729
 30
0
  0
LINE
  5
CC
100
AcDbEntity
  8
0
  6
ByLayer
 62
    1
370
   -1
100
AcDbLine
 10
43.998285
 20
84.597729
 11
43.998285
 21
85.36501800000001
  0
LINE
  5
CD
100
AcDbEntity
  8
0
  6
ByLayer
 62
    1
370
   -1
100
AcDbLine
 10
43.998285
 20
85.36501800000001
 11
43.998285
 21
85.36501800000001
  0
LINE
  5
CE
100
AcDbEntity
  8
0
  6
ByLayer
 62
    1
370
   -1
100
AcDbLine
 10
43.998285
 20
85.36501800000001
 11
46.644118
 21
85.36501800000001
  0
LINE
  5
CF
100
AcDbEntity
  8
0
  6
ByLayer
 62
    1
370
   -1
100
AcDbLine
 10
46.644118
 20
85.36501800000001
 11
46.644118
 21
85.36501800000001
  0
LINE
  5
D0
100
AcDbEntity
  8
0
  6
ByLayer
 62
    1
370
   -1
100
AcDbLine
 10
46.644118
 20
85.36501800000001
 11
46.644118
 21
85.36501800000001
  0
LINE
  5
D1
100
AcDbEntity
  8
0
  6
ByLayer
 62
    1
370
   -1
100
AcDbLine
 10
54.581618
 20
69.506552
 11
54.581618
 21
68.73926299999999
  0
LINE
  5
D2
100
AcDbEntity
  8
0
  6
ByLayer
 62
    1
370
   -1
100
AcDbLine
 10
54.581618
 20
68.73926299999999
 11
54.581618
 21
68.73926299999999
  0
LINE
  5
D3
100
AcDbEntity
  8
0
  6
ByLayer
 62
    1
370
   -1
100
AcDbLine
 10
54.581618
 20
68.73926299999999
 11
51.935785
 21
68.73926299999999
  0
LINE
  5
D4
100
AcDbEntity
  8
0
  6
ByLayer
 62
    1
370
   -1
100
AcDbLine
 10
51.935785
 20
68.73926299999999
 11
51.935785
 21
68.73926299999999
  0
LINE
  5
D5
100
AcDbEntity
  8
0
  6
ByLayer
 62
    1
370
   -1
100
AcDbLine
 10
51.935785
 20
68.73926299999999
 11
51.935785
 21
69.506552
  0
LINE
  5
D6
100
AcDbEntity
  8
0
  6
ByLayer
 62
    1
370
   -1
100
AcDbLine
 10
51.935785
 20
69.506552
 11
51.935785
 21
69.50655500000001
  0
LINE
  5
D7
100
AcDbEntity
  8
0
  6
ByLayer
 62
    1
370
   -1
100
AcDbLine
 10
51.935785
 20
69.50655500000001
 11
54.581618
 21
69.50655500000001
  0
LINE
  5
D8
100
AcDbEntity
  8
0
  6
ByLayer
 62
    1
370
   -1
100
AcDbLine
 10
54.581618
 20
69.50655500000001
 11
54.581618
 21
69.506552
  0
LINE
  5
D9
100
AcDbEntity
  8
0
  6
ByLayer
 62
    1
370
   -1
100
AcDbLine
 10
54.581618
 20
69.506552
 11
54.581618
 21
69.506552
  0
LINE
  5
DA
100
AcDbEntity
  8
0
  6
ByLayer
 62
    1
370
   -1
100
AcDbLine
 10
46.644118
 20
69.506552
 11
46.644118
 21
68.73926299999999
  0
LINE
  5
DB
100
AcDbEntity
  8
0
  6
ByLayer
 62
    1
370
   -1
100
AcDbLine
 10
46.644118
 20
68.73926299999999
 11
46.644118
 21
68.73926299999999
  0
LINE
  5
DC
100
AcDbEntity
  8
0
  6
ByLayer
 62
    1
370
   -1
100
AcDbLine
 10
46.644118
 20
68.73926299999999
 11
43.998285
 21
68.73926299999999
  0
LINE
  5
DD
100
AcDbEntity
  8
0
  6
ByLayer
 62
    1
370
   -1
100
AcDbLine
 10
43.998285
 20
68.73926299999999
 11
43.998285
 21
68.73926299999999
  0
LINE
  5
DE
100
AcDbEntity
  8
0
  6
ByLayer
 62
    1
370
   -1
100
AcDbLine
 10
43.998285
 20
68.73926299999999
 11
43.998285
 21
69.506552
  0
LINE
  5
DF
100
AcDbEntity
  8
0
  6
ByLayer
 62
    1
370
   -1
100
AcDbLine
 10
43.998285
 20
69.506552
 11
43.998285
 21
69.50655500000001
  0
LINE
  5
E0
100
AcDbEntity
  8
0
  6
ByLayer
 62
    1
370
   -1
100
AcDbLine
 10
43.998285
 20
69.50655500000001
 11
46.644118
 21
69.50655500000001
  0
LINE
  5
E1
100
AcDbEntity
  8
0
  6
ByLayer
 62
    1
370
   -1
100
AcDbLine
 10
46.644118
 20
69.50655500000001
 11
46.644118
 21
69.506552
  0
LINE
  5
E2
100
AcDbEntity
  8
0
  6
ByLayer
 62
    1
370
   -1
100
AcDbLine
 10
46.644118
 20
69.506552
 11
46.644118
 21
69.506552
  0
LINE
  5
E3
100
AcDbEntity
  8
0
  6
ByLayer
 62
    1
370
   -1
100
AcDbLine
 10
42.893647
 20
79.712108
 11
42.126358
 21
79.712108
  0
LINE
  5
E4
100
AcDbEntity
  8
0
  6
ByLayer
 62
    1
370
   -1
100
AcDbLine
 10
42.126358
 20
79.712108
 11
42.126358
 21
79.712108
  0
LINE
  5
E5
100
AcDbEntity
  8
0
  6
ByLayer
 62
    1
370
   -1
100
AcDbLine
 10
42.126358
 20
79.712108
 11
42.126358
 21
82.357939
  0
SPLINE
  5
E6
100
AcDbEntity
  8
0
  6
ByLayer
 62
    1
370
   -1
100
AcDbSpline
210
0
220
0
230
0
 70
    8
 71
    3
 72
    8
 73
    4
 74
    0
 42
1e-07
 43
1e-07
 40
0
 40
0
 40
0
 40
0
 40
1
 40
1
 40
1
 40
1
 10
42.126358
 20
82.357939
 30
0
 10
42.126358
 20
82.35794199999999
 30
0
 10
42.126358
 20
82.35794199999999
 30
0
 10
42.126358
 20
82.35794199999999
 30
0
  0
LINE
  5
E7
100
AcDbEntity
  8
0
  6
ByLayer
 62
    1
370
   -1
100
AcDbLine
 10
42.126358
 20
82.35794199999999
 11
42.893647
 21
82.35794199999999
  0
SPLINE
  5
E8
100
AcDbEntity
  8
0
  6
ByLayer
 62
    1
370
   -1
100
AcDbSpline
210
0
220
0
230
0
 70
    8
 71
    3
 72
    8
 73
    4
 74
    0
 42
1e-07
 43
1e-07
 40
0
 40
0
 40
0
 40
0
 40
1
 40
1
 40
1
 40
1
 10
42.893647
 20
82.35794199999999
 30
0
 10
42.893647
 20
82.35794199999999
 30
0
 10
42.893649
 20
82.35794199999999
 30
0
 10
42.893649
 20
82.357939
 30
0
  0
LINE
  5
E9
100
AcDbEntity
  8
0
  6
ByLayer
 62
    1
370
   -1
100
AcDbLine
 10
42.893649
 20
82.357939
 11
42.893649
 21
79.712108
  0
LINE
  5
EA
100
AcDbEntity
  8
0
  6
ByLayer
 62
    1
370
   -1
100
AcDbLine
 10
42.893649
 20
79.712108
 11
42.893647
 21
79.712108
  0
LINE
  5
EB
100
AcDbEntity
  8
0
  6
ByLayer
 62
    1
370
   -1
100
AcDbLine
 10
42.893647
 20
79.712108
 11
42.893647
 21
79.712108
  0
LINE
  5
EC
100
AcDbEntity
  8
0
  6
ByLayer
 62
    1
370
   -1
100
AcDbLine
 10
42.893647
 20
71.774608
 11
42.126358
 21
71.774608
  0
LINE
  5
ED
100
AcDbEntity
  8
0
  6
ByLayer
 62
    1
370
   -1
100
AcDbLine
 10
42.126358
 20
71.774608
 11
42.126358
 21
71.774608
  0
LINE
  5
EE
100
AcDbEntity
  8
0
  6
ByLayer
 62
    1
370
   -1
100
AcDbLine
 10
42.126358
 20
71.774608
 11
42.126358
 21
74.420439
  0
SPLINE
  5
EF
100
AcDbEntity
  8
0
  6
ByLayer
 62
    1
370
   -1
100
AcDbSpline
210
0
220
0
230
0
 70
    8
 71
    3
 72
    8
 73
    4
 74
    0
 42
1e-07
 43
1e-07
 40
0
 40
0
 40
0
 40
0
 40
1
 40
1
 40
1
 40
1
 10
42.126358
 20
74.420439
 30
0
 10
42.126358
 20
74.42044199999999
 30
0
 10
42.126358
 20
74.42044199999999
 30
0
 10
42.126358
 20
74.42044199999999
 30
0
  0
LINE
  5
F0
100
AcDbEntity
  8
0
  6
ByLayer
 62
    1
370
   -1
100
AcDbLine
 10
42.126358
 20
74.42044199999999
 11
42.893647
 21
74.42044199999999
  0
SPLINE
  5
F1
100
AcDbEntity
  8
0
  6
ByLayer
 62
    1
370
   -1
100
AcDbSpline
210
0
220
0
230
0
 70
    8
 71
    3
 72
    8
 73
    4
 74
    0
 42
1e-07
 43
1e-07
 40
0
 40
0
 40
0
 40
0
 40
1
 40
1
 40
1
 40
1
 10
42.893647
 20
74.42044199999999
 30
0
 10
42.893647
 20
74.42044199999999
 30
0
 10
42.893649
 20
74.42044199999999
 30
0
 10
42.893649
 20
74.420439
 30
0
  0
LINE
  5
F2
100
AcDbEntity
  8
0
  6
ByLayer
 62
    1
370
   -1
100
AcDbLine
 10
42.893649
 20
74.420439
 11
42.893649
 21
71.77461099999999
  0
SPLINE
  5
F3
100
AcDbEntity
  8
0
  6
ByLayer
 62
    1
370
   -1
100
AcDbSpline
210
0
220
0
230
0
 70
    8
 71
    3
 72
    8
 73
    4
 74
    0
 42
1e-07
 43
1e-07
 40
0
 40
0
 40
0
 40
0
 40
1
 40
1
 40
1
 40
1
 10
42.893649
 20
71.77461099999999
 30
0
 10
42.893649
 20
71.774608
 30
0
 10
42.893647
 20
71.774608
 30
0
 10
42.893647
 20
71.774608
 30
0
  0
LINE
  5
F4
100
AcDbEntity
  8
0
  6
ByLayer
 62
    1
370
   -1
100
AcDbLine
 10
42.893647
 20
71.774608
 11
42.893647
 21
71.774608
  0
SPLINE
  5
F5
100
AcDbEntity
  8
0
  6
ByLayer
 62
    5
370
   -1
100
AcDbSpline
210
0
220
0
230
0
 70
    8
 71
    3
 72
    8
 73
    4
 74
    0
 42
1e-07
 43
1e-07
 40
0
 40
0
 40
0
 40
0
 40
1
 40
1
 40
1
 40
1
 10
68.583043
 20
100.779087
 30
0
 10
68.58305900000001
 20
102.24032
 30
0
 10
69.767619
 20
103.42488
 30
0
 10
71.230085
 20
103.424211
 30
0
  0
LINE
  5
F6
100
AcDbEntity
  8
0
  6
ByLayer
 62
    5
370
   -1
100
AcDbLine
 10
71.230085
 20
103.424211
 11
72.55428999999999
 21
103.423417
  0
LINE
  5
F7
100
AcDbEntity
  8
0
  6
ByLayer
 62
    5
370
   -1
100
AcDbLine
 10
72.55428999999999
 20
103.423417
 11
74.27404799999999
 21
103.423417
  0
LINE
  5
F8
100
AcDbEntity
  8
0
  6
ByLayer
 62
    5
370
   -1
100
AcDbLine
 10
74.27404799999999
 20
103.423417
 11
74.93553199999999
 21
103.423417
  0
LINE
  5
F9
100
AcDbEntity
  8
0
  6
ByLayer
 62
    5
370
   -1
100
AcDbLine
 10
74.93553199999999
 20
103.423417
 11
84.460498
 21
103.423417
  0
SPLINE
  5
FA
100
AcDbEntity
  8
0
  6
ByLayer
 62
    5
370
   -1
100
AcDbSpline
210
0
220
0
230
0
 70
    8
 71
    3
 72
    8
 73
    4
 74
    0
 42
1e-07
 43
1e-07
 40
0
 40
0
 40
0
 40
0
 40
1
 40
1
 40
1
 40
1
 10
84.460498
 20
103.423417
 30
0
 10
85.926292
 20
103.423417
 30
0
 10
87.106308
 20
102.243402
 30
0
 10
87.106308
 20
100.777608
 30
0
  0
LINE
  5
FB
100
AcDbEntity
  8
0
  6
ByLayer
 62
    5
370
   -1
100
AcDbLine
 10
87.106308
 20
100.777608
 11
87.106308
 21
87.54843099999999
  0
SPLINE
  5
FC
100
AcDbEntity
  8
0
  6
ByLayer
 62
    5
370
   -1
100
AcDbSpline
210
0
220
0
230
0
 70
    8
 71
    3
 72
    8
 73
    4
 74
    0
 42
1e-07
 43
1e-07
 40
0
 40
0
 40
0
 40
0
 40
1
 40
1
 40
1
 40
1
 10
87.106308
 20
87.54843099999999
 30
0
 10
87.106308
 20
86.082639
 30
0
 10
85.926292
 20
84.902624
 30
0
 10
84.460498
 20
84.902624
 30
0
  0
LINE
  5
FD
100
AcDbEntity
  8
0
  6
ByLayer
 62
    5
370
   -1
100
AcDbLine
 10
84.460498
 20
84.902624
 11
74.27404799999999
 21
84.902624
  0
SPLINE
  5
FE
100
AcDbEntity
  8
0
  6
ByLayer
 62
    5
370
   -1
100
AcDbSpline
210
0
220
0
230
0
 70
    8
 71
    3
 72
    8
 73
    4
 74
    0
 42
1e-07
 43
1e-07
 40
0
 40
0
 40
0
 40
0
 40
1
 40
1
 40
1
 40
1
 10
74.27404799999999
 20
84.902624
 30
0
 10
72.80825299999999
 20
84.902624
 30
0
 10
71.628235
 20
86.082639
 30
0
 10
71.628235
 20
87.54843099999999
 30
0
  0
LINE
  5
FF
100
AcDbEntity
  8
0
  6
ByLayer
 62
    5
370
   -1
100
AcDbLine
 10
71.628235
 20
87.54843099999999
 11
71.628235
 21
98.131663
  0
LINE
  5
100
100
AcDbEntity
  8
0
  6
ByLayer
 62
    5
370
   -1
100
AcDbLine
 10
71.628235
 20
98.131663
 11
71.230085
 21
98.132457
  0
SPLINE
  5
101
100
AcDbEntity
  8
0
  6
ByLayer
 62
    5
370
   -1
100
AcDbSpline
210
0
220
0
230
0
 70
    8
 71
    3
 72
    8
 73
    4
 74
    0
 42
1e-07
 43
1e-07
 40
0
 40
0
 40
0
 40
0
 40
1
 40
1
 40
1
 40
1
 10
71.230085
 20
98.132457
 30
0
 10
69.76756399999999
 20
98.133251
 30
0
 10
68.582982
 20
99.317798
 30
0
 10
68.583043
 20
100.779087
 30
0
  0
LINE
  5
102
100
AcDbEntity
  8
0
  6
ByLayer
 62
    5
370
   -1
100
AcDbLine
 10
68.583043
 20
100.779087
 11
68.583043
 21
100.779087
  0
SPLINE
  5
103
100
AcDbEntity
  8
0
  6
ByLayer
 62
    1
370
   -1
100
AcDbSpline
210
0
220
0
230
0
 70
    8
 71
    3
 72
    8
 73
    4
 74
    0
 42
1e-07
 43
1e-07
 40
0
 40
0
 40
0
 40
0
 40
1
 40
1
 40
1
 40
1
 10
70.173001
 20
100.779087
 30
0
 10
70.17325099999999
 20
100.987535
 30
0
 10
70.235193
 20
101.191246
 30
0
 10
70.35102000000001
 20
101.364552
 30
0
  0
LINE
  5
104
100
AcDbEntity
  8
0
  6
ByLayer
 62
    1
370
   -1
100
AcDbLine
 10
70.35102000000001
 20
101.364552
 11
70.884119
 21
101.245052
  0
LINE
  5
105
100
AcDbEntity
  8
0
  6
ByLayer
 62
    1
370
   -1
100
AcDbLine
 10
70.884119
 20
101.245052
 11
70.884119
 21
101.77569
  0
SPLINE
  5
106
100
AcDbEntity
  8
0
  6
ByLayer
 62
    1
370
   -1
100
AcDbSpline
210
0
220
0
230
0
 70
    8
 71
    3
 72
    8
 73
    4
 74
    0
 42
1e-07
 43
1e-07
 40
0
 40
0
 40
0
 40
0
 40
1
 40
1
 40
1
 40
1
 10
70.884119
 20
101.77569
 30
0
 10
70.994969
 20
101.814462
 30
0
 10
71.11151
 20
101.834471
 30
0
 10
71.228945
 20
101.834893
 30
0
  0
SPLINE
  5
107
100
AcDbEntity
  8
0
  6
ByLayer
 62
    1
370
   -1
100
AcDbSpline
210
0
220
0
230
0
 70
    8
 71
    3
 72
    8
 73
    4
 74
    0
 42
1e-07
 43
1e-07
 40
0
 40
0
 40
0
 40
0
 40
1
 40
1
 40
1
 40
1
 10
71.228945
 20
101.834893
 30
0
 10
71.812027
 20
101.834835
 30
0
 10
72.284694
 20
101.362169
 30
0
 10
72.28475400000001
 20
100.779087
 30
0
  0
SPLINE
  5
108
100
AcDbEntity
  8
0
  6
ByLayer
 62
    1
370
   -1
100
AcDbSpline
210
0
220
0
230
0
 70
    8
 71
    3
 72
    8
 73
    4
 74
    0
 42
1e-07
 43
1e-07
 40
0
 40
0
 40
0
 40
0
 40
1
 40
1
 40
1
 40
1
 10
72.28475400000001
 20
100.779087
 30
0
 10
72.284305
 20
100.55762
 30
0
 10
72.214232
 20
100.341901
 30
0
 10
72.08444900000001
 20
100.162446
 30
0
  0
LINE
  5
109
100
AcDbEntity
  8
0
  6
ByLayer
 62
    1
370
   -1
100
AcDbLine
 10
72.08444900000001
 20
100.162446
 11
71.67782099999999
 21
100.253643
  0
LINE
  5
10A
100
AcDbEntity
  8
0
  6
ByLayer
 62
    1
370
   -1
100
AcDbLine
 10
71.67782099999999
 20
100.253643
 11
71.67782099999999
 21
99.824592
  0
SPLINE
  5
10B
100
AcDbEntity
  8
0
  6
ByLayer
 62
    1
370
   -1
100
AcDbSpline
210
0
220
0
230
0
 70
    8
 71
    3
 72
    8
 73
    4
 74
    0
 42
1e-07
 43
1e-07
 40
0
 40
0
 40
0
 40
0
 40
1
 40
1
 40
1
 40
1
 10
71.67782099999999
 20
99.824592
 30
0
 10
71.537474
 20
99.758185
 30
0
 10
71.384209
 20
99.723546
 30
0
 10
71.228945
 20
99.72314299999999
 30
0
  0
SPLINE
  5
10C
100
AcDbEntity
  8
0
  6
ByLayer
 62
    1
370
   -1
100
AcDbSpline
210
0
220
0
230
0
 70
    8
 71
    3
 72
    8
 73
    4
 74
    0
 42
1e-07
 43
1e-07
 40
0
 40
0
 40
0
 40
0
 40
1
 40
1
 40
1
 40
1
 10
71.228945
 20
99.72314299999999
 30
0
 10
70.94888899999999
 20
99.723135
 30
0
 10
70.680301
 20
99.834384
 30
0
 10
70.482271
 20
100.032413
 30
0
  0
SPLINE
  5
10D
100
AcDbEntity
  8
0
  6
ByLayer
 62
    1
370
   -1
100
AcDbSpline
210
0
220
0
230
0
 70
    8
 71
    3
 72
    8
 73
    4
 74
    0
 42
1e-07
 43
1e-07
 40
0
 40
0
 40
0
 40
0
 40
1
 40
1
 40
1
 40
1
 10
70.482271
 20
100.032413
 30
0
 10
70.28424200000001
 20
100.230443
 30
0
 10
70.17299300000001
 20
100.499031
 30
0
 10
70.173001
 20
100.779087
 30
0
  0
LINE
  5
10E
100
AcDbEntity
  8
0
  6
ByLayer
 62
    1
370
   -1
100
AcDbLine
 10
70.173001
 20
100.779087
 11
70.173001
 21
100.779087
  0
SPLINE
  5
10F
100
AcDbEntity
  8
0
  6
ByLayer
 62
    1
370
   -1
100
AcDbSpline
210
0
220
0
230
0
 70
    8
 71
    3
 72
    8
 73
    4
 74
    0
 42
1e-07
 43
1e-07
 40
0
 40
0
 40
0
 40
0
 40
1
 40
1
 40
1
 40
1
 10
79.122471
 20
101.549016
 30
0
 10
79.262815
 20
101.549016
 30
0
 10
79.39740999999999
 20
101.604768
 30
0
 10
79.49664799999999
 20
101.704006
 30
0
  0
SPLINE
  5
110
100
AcDbEntity
  8
0
  6
ByLayer
 62
    1
370
   -1
100
AcDbSpline
210
0
220
0
230
0
 70
    8
 71
    3
 72
    8
 73
    4
 74
    0
 42
1e-07
 43
1e-07
 40
0
 40
0
 40
0
 40
0
 40
1
 40
1
 40
1
 40
1
 10
79.49664799999999
 20
101.704006
 30
0
 10
79.59588599999999
 20
101.803244
 30
0
 10
79.65163800000001
 20
101.937839
 30
0
 10
79.65163800000001
 20
102.078183
 30
0
  0
SPLINE
  5
111
100
AcDbEntity
  8
0
  6
ByLayer
 62
    1
370
   -1
100
AcDbSpline
210
0
220
0
230
0
 70
    8
 71
    3
 72
    8
 73
    4
 74
    0
 42
1e-07
 43
1e-07
 40
0
 40
0
 40
0
 40
0
 40
1
 40
1
 40
1
 40
1
 10
79.65163800000001
 20
102.078183
 30
0
 10
79.65163800000001
 20
102.218527
 30
0
 10
79.59588599999999
 20
102.353122
 30
0
 10
79.49664799999999
 20
102.45236
 30
0
  0
SPLINE
  5
112
100
AcDbEntity
  8
0
  6
ByLayer
 62
    1
370
   -1
100
AcDbSpline
210
0
220
0
230
0
 70
    8
 71
    3
 72
    8
 73
    4
 74
    0
 42
1e-07
 43
1e-07
 40
0
 40
0
 40
0
 40
0
 40
1
 40
1
 40
1
 40
1
 10
79.49664799999999
 20
102.45236
 30
0
 10
79.39740999999999
 20
102.551598
 30
0
 10
79.262815
 20
102.60735
 30
0
 10
79.122471
 20
102.60735
 30
0
  0
SPLINE
  5
113
100
AcDbEntity
  8
0
  6
ByLayer
 62
    1
370
   -1
100
AcDbSpline
210
0
220
0
230
0
 70
    8
 71
    3
 72
    8
 73
    4
 74
    0
 42
1e-07
 43
1e-07
 40
0
 40
0
 40
0
 40
0
 40
1
 40
1
 40
1
 40
1
 10
79.122471
 20
102.60735
 30
0
 10
78.98212700000001
 20
102.60735
 30
0
 10
78.847532
 20
102.551598
 30
0
 10
78.748294
 20
102.45236
 30
0
  0
SPLINE
  5
114
100
AcDbEntity
  8
0
  6
ByLayer
 62
    1
370
   -1
100
AcDbSpline
210
0
220
0
230
0
 70
    8
 71
    3
 72
    8
 73
    4
 74
    0
 42
1e-07
 43
1e-07
 40
0
 40
0
 40
0
 40
0
 40
1
 40
1
 40
1
 40
1
 10
78.748294
 20
102.45236
 30
0
 10
78.649056
 20
102.353122
 30
0
 10
78.593304
 20
102.218527
 30
0
 10
78.593304
 20
102.078183
 30
0
  0
SPLINE
  5
115
100
AcDbEntity
  8
0
  6
ByLayer
 62
    1
370
   -1
100
AcDbSpline
210
0
220
0
230
0
 70
    8
 71
    3
 72
    8
 73
    4
 74
    0
 42
1e-07
 43
1e-07
 40
0
 40
0
 40
0
 40
0
 40
1
 40
1
 40
1
 40
1
 10
78.593304
 20
102.078183
 30
0
 10
78.593304
 20
101.937839
 30
0
 10
78.649056
 20
101.803244
 30
0
 10
78.748294
 20
101.704006
 30
0
  0
SPLINE
  5
116
100
AcDbEntity
  8
0
  6
ByLayer
 62
    1
370
   -1
100
AcDbSpline
210
0
220
0
230
0
 70
    8
 71
    3
 72
    8
 73
    4
 74
    0
 42
1e-07
 43
1e-07
 40
0
 40
0
 40
0
 40
0
 40
1
 40
1
 40
1
 40
1
 10
78.748294
 20
101.704006
 30
0
 10
78.847532
 20
101.604768
 30
0
 10
78.98212700000001
 20
101.549016
 30
0
 10
79.122471
 20
101.549016
 30
0
  0
LINE
  5
117
100
AcDbEntity
  8
0
  6
ByLayer
 62
    1
370
   -1
100
AcDbLine
 10
79.122471
 20
101.549016
 11
79.122471
 21
101.549016
  0
SPLINE
  5
118
100
AcDbEntity
  8
0
  6
ByLayer
 62
    1
370
   -1
100
AcDbSpline
210
0
220
0
230
0
 70
    8
 71
    3
 72
    8
 73
    4
 74
    0
 42
1e-07
 43
1e-07
 40
0
 40
0
 40
0
 40
0
 40
1
 40
1
 40
1
 40
1
 10
79.122466
 20
85.69055299999999
 30
0
 10
79.26281
 20
85.69055299999999
 30
0
 10
79.39740500000001
 20
85.74630399999999
 30
0
 10
79.49664300000001
 20
85.84554199999999
 30
0
  0
SPLINE
  5
119
100
AcDbEntity
  8
0
  6
ByLayer
 62
    1
370
   -1
100
AcDbSpline
210
0
220
0
230
0
 70
    8
 71
    3
 72
    8
 73
    4
 74
    0
 42
1e-07
 43
1e-07
 40
0
 40
0
 40
0
 40
0
 40
1
 40
1
 40
1
 40
1
 10
79.49664300000001
 20
85.84554199999999
 30
0
 10
79.59588100000001
 20
85.94477999999999
 30
0
 10
79.65163200000001
 20
86.079376
 30
0
 10
79.65163200000001
 20
86.21972
 30
0
  0
SPLINE
  5
11A
100
AcDbEntity
  8
0
  6
ByLayer
 62
    1
370
   -1
100
AcDbSpline
210
0
220
0
230
0
 70
    8
 71
    3
 72
    8
 73
    4
 74
    0
 42
1e-07
 43
1e-07
 40
0
 40
0
 40
0
 40
0
 40
1
 40
1
 40
1
 40
1
 10
79.65163200000001
 20
86.21972
 30
0
 10
79.65163200000001
 20
86.360063
 30
0
 10
79.59588100000001
 20
86.494659
 30
0
 10
79.49664300000001
 20
86.593897
 30
0
  0
SPLINE
  5
11B
100
AcDbEntity
  8
0
  6
ByLayer
 62
    1
370
   -1
100
AcDbSpline
210
0
220
0
230
0
 70
    8
 71
    3
 72
    8
 73
    4
 74
    0
 42
1e-07
 43
1e-07
 40
0
 40
0
 40
0
 40
0
 40
1
 40
1
 40
1
 40
1
 10
79.49664300000001
 20
86.593897
 30
0
 10
79.39740500000001
 20
86.693135
 30
0
 10
79.26281
 20
86.748886
 30
0
 10
79.122466
 20
86.748886
 30
0
  0
SPLINE
  5
11C
100
AcDbEntity
  8
0
  6
ByLayer
 62
    1
370
   -1
100
AcDbSpline
210
0
220
0
230
0
 70
    8
 71
    3
 72
    8
 73
    4
 74
    0
 42
1e-07
 43
1e-07
 40
0
 40
0
 40
0
 40
0
 40
1
 40
1
 40
1
 40
1
 10
79.122466
 20
86.748886
 30
0
 10
78.982122
 20
86.748886
 30
0
 10
78.847526
 20
86.693135
 30
0
 10
78.748288
 20
86.593897
 30
0
  0
SPLINE
  5
11D
100
AcDbEntity
  8
0
  6
ByLayer
 62
    1
370
   -1
100
AcDbSpline
210
0
220
0
230
0
 70
    8
 71
    3
 72
    8
 73
    4
 74
    0
 42
1e-07
 43
1e-07
 40
0
 40
0
 40
0
 40
0
 40
1
 40
1
 40
1
 40
1
 10
78.748288
 20
86.593897
 30
0
 10
78.64905
 20
86.494659
 30
0
 10
78.593299
 20
86.360063
 30
0
 10
78.593299
 20
86.21972
 30
0
  0
SPLINE
  5
11E
100
AcDbEntity
  8
0
  6
ByLayer
 62
    1
370
   -1
100
AcDbSpline
210
0
220
0
230
0
 70
    8
 71
    3
 72
    8
 73
    4
 74
    0
 42
1e-07
 43
1e-07
 40
0
 40
0
 40
0
 40
0
 40
1
 40
1
 40
1
 40
1
 10
78.593299
 20
86.21972
 30
0
 10
78.593299
 20
86.079376
 30
0
 10
78.64905
 20
85.94477999999999
 30
0
 10
78.748288
 20
85.84554199999999
 30
0
  0
SPLINE
  5
11F
100
AcDbEntity
  8
0
  6
ByLayer
 62
    1
370
   -1
100
AcDbSpline
210
0
220
0
230
0
 70
    8
 71
    3
 72
    8
 73
    4
 74
    0
 42
1e-07
 43
1e-07
 40
0
 40
0
 40
0
 40
0
 40
1
 40
1
 40
1
 40
1
 10
78.748288
 20
85.84554199999999
 30
0
 10
78.847526
 20
85.74630399999999
 30
0
 10
78.982122
 20
85.69055299999999
 30
0
 10
79.122466
 20
85.69055299999999
 30
0
  0
LINE
  5
120
100
AcDbEntity
  8
0
  6
ByLayer
 62
    1
370
   -1
100
AcDbLine
 10
79.122466
 20
85.69055299999999
 11
79.122466
 21
85.69055299999999
  0
LINE
  5
121
100
AcDbEntity
  8
0
  6
ByLayer
 62
    1
370
   -1
100
AcDbLine
 10
73.84407899999999
 20
102.461829
 11
73.84407899999999
 21
101.69454
  0
LINE
  5
122
100
AcDbEntity
  8
0
  6
ByLayer
 62
    1
370
   -1
100
AcDbLine
 10
73.84407899999999
 20
101.69454
 11
73.84407899999999
 21
101.694537
  0
LINE
  5
123
100
AcDbEntity
  8
0
  6
ByLayer
 62
    1
370
   -1
100
AcDbLine
 10
73.84407899999999
 20
101.694537
 11
76.489912
 21
101.694537
  0
LINE
  5
124
100
AcDbEntity
  8
0
  6
ByLayer
 62
    1
370
   -1
100
AcDbLine
 10
76.489912
 20
101.694537
 11
76.489912
 21
101.69454
  0
LINE
  5
125
100
AcDbEntity
  8
0
  6
ByLayer
 62
    1
370
   -1
100
AcDbLine
 10
76.489912
 20
101.69454
 11
76.489912
 21
102.461829
  0
LINE
  5
126
100
AcDbEntity
  8
0
  6
ByLayer
 62
    1
370
   -1
100
AcDbLine
 10
76.489912
 20
102.461829
 11
76.489912
 21
102.461829
  0
LINE
  5
127
100
AcDbEntity
  8
0
  6
ByLayer
 62
    1
370
   -1
100
AcDbLine
 10
76.489912
 20
102.461829
 11
73.84407899999999
 21
102.461829
  0
LINE
  5
128
100
AcDbEntity
  8
0
  6
ByLayer
 62
    1
370
   -1
100
AcDbLine
 10
73.84407899999999
 20
102.461829
 11
73.84407899999999
 21
102.461829
  0
LINE
  5
129
100
AcDbEntity
  8
0
  6
ByLayer
 62
    1
370
   -1
100
AcDbLine
 10
73.84407899999999
 20
102.461829
 11
73.84407899999999
 21
102.461829
  0
LINE
  5
12A
100
AcDbEntity
  8
0
  6
ByLayer
 62
    1
370
   -1
100
AcDbLine
 10
81.78157899999999
 20
102.461829
 11
81.78157899999999
 21
101.69454
  0
LINE
  5
12B
100
AcDbEntity
  8
0
  6
ByLayer
 62
    1
370
   -1
100
AcDbLine
 10
81.78157899999999
 20
101.69454
 11
81.78157899999999
 21
101.694537
  0
LINE
  5
12C
100
AcDbEntity
  8
0
  6
ByLayer
 62
    1
370
   -1
100
AcDbLine
 10
81.78157899999999
 20
101.694537
 11
84.427412
 21
101.694537
  0
LINE
  5
12D
100
AcDbEntity
  8
0
  6
ByLayer
 62
    1
370
   -1
100
AcDbLine
 10
84.427412
 20
101.694537
 11
84.427412
 21
101.69454
  0
LINE
  5
12E
100
AcDbEntity
  8
0
  6
ByLayer
 62
    1
370
   -1
100
AcDbLine
 10
84.427412
 20
101.69454
 11
84.427412
 21
102.461829
  0
LINE
  5
12F
100
AcDbEntity
  8
0
  6
ByLayer
 62
    1
370
   -1
100
AcDbLine
 10
84.427412
 20
102.461829
 11
84.427412
 21
102.461829
  0
LINE
  5
130
100
AcDbEntity
  8
0
  6
ByLayer
 62
    1
370
   -1
100
AcDbLine
 10
84.427412
 20
102.461829
 11
81.78157899999999
 21
102.461829
  0
LINE
  5
131
100
AcDbEntity
  8
0
  6
ByLayer
 62
    1
370
   -1
100
AcDbLine
 10
81.78157899999999
 20
102.461829
 11
81.78157899999999
 21
102.461829
  0
LINE
  5
132
100
AcDbEntity
  8
0
  6
ByLayer
 62
    1
370
   -1
100
AcDbLine
 10
81.78157899999999
 20
102.461829
 11
81.78157899999999
 21
102.461829
  0
LINE
  5
133
100
AcDbEntity
  8
0
  6
ByLayer
 62
    1
370
   -1
100
AcDbLine
 10
73.84407899999999
 20
86.603363
 11
73.84407899999999
 21
85.836074
  0
LINE
  5
134
100
AcDbEntity
  8
0
  6
ByLayer
 62
    1
370
   -1
100
AcDbLine
 10
73.84407899999999
 20
85.836074
 11
73.84407899999999
 21
85.836074
  0
LINE
  5
135
100
AcDbEntity
  8
0
  6
ByLayer
 62
    1
370
   -1
100
AcDbLine
 10
73.84407899999999
 20
85.836074
 11
76.489912
 21
85.836074
  0
LINE
  5
136
100
AcDbEntity
  8
0
  6
ByLayer
 62
    1
370
   -1
100
AcDbLine
 10
76.489912
 20
85.836074
 11
76.489912
 21
85.836074
  0
LINE
  5
137
100
AcDbEntity
  8
0
  6
ByLayer
 62
    1
370
   -1
100
AcDbLine
 10
76.489912
 20
85.836074
 11
76.489912
 21
86.603363
  0
LINE
  5
138
100
AcDbEntity
  8
0
  6
ByLayer
 62
    1
370
   -1
100
AcDbLine
 10
76.489912
 20
86.603363
 11
76.489912
 21
86.603365
  0
LINE
  5
139
100
AcDbEntity
  8
0
  6
ByLayer
 62
    1
370
   -1
100
AcDbLine
 10
76.489912
 20
86.603365
 11
73.84407899999999
 21
86.603365
  0
LINE
  5
13A
100
AcDbEntity
  8
0
  6
ByLayer
 62
    1
370
   -1
100
AcDbLine
 10
73.84407899999999
 20
86.603365
 11
73.84407899999999
 21
86.603363
  0
LINE
  5
13B
100
AcDbEntity
  8
0
  6
ByLayer
 62
    1
370
   -1
100
AcDbLine
 10
73.84407899999999
 20
86.603363
 11
73.84407899999999
 21
86.603363
  0
LINE
  5
13C
100
AcDbEntity
  8
0
  6
ByLayer
 62
    1
370
   -1
100
AcDbLine
 10
81.78157899999999
 20
86.603363
 11
81.78157899999999
 21
85.836074
  0
LINE
  5
13D
100
AcDbEntity
  8
0
  6
ByLayer
 62
    1
370
   -1
100
AcDbLine
 10
81.78157899999999
 20
85.836074
 11
81.78157899999999
 21
85.836074
  0
LINE
  5
13E
100
AcDbEntity
  8
0
  6
ByLayer
 62
    1
370
   -1
100
AcDbLine
 10
81.78157899999999
 20
85.836074
 11
84.427412
 21
85.836074
  0
LINE
  5
13F
100
AcDbEntity
  8
0
  6
ByLayer
 62
    1
370
   -1
100
AcDbLine
 10
84.427412
 20
85.836074
 11
84.427412
 21
85.836074
  0
LINE
  5
140
100
AcDbEntity
  8
0
  6
ByLayer
 62
    1
370
   -1
100
AcDbLine
 10
84.427412
 20
85.836074
 11
84.427412
 21
86.603363
  0
LINE
  5
141
100
AcDbEntity
  8
0
  6
ByLayer
 62
    1
370
   -1
100
AcDbLine
 10
84.427412
 20
86.603363
 11
84.427412
 21
86.603365
  0
LINE
  5
142
100
AcDbEntity
  8
0
  6
ByLayer
 62
    1
370
   -1
100
AcDbLine
 10
84.427412
 20
86.603365
 11
81.78157899999999
 21
86.603365
  0
LINE
  5
143
100
AcDbEntity
  8
0
  6
ByLayer
 62
    1
370
   -1
100
AcDbLine
 10
81.78157899999999
 20
86.603365
 11
81.78157899999999
 21
86.603363
  0
LINE
  5
144
100
AcDbEntity
  8
0
  6
ByLayer
 62
    1
370
   -1
100
AcDbLine
 10
81.78157899999999
 20
86.603363
 11
81.78157899999999
 21
86.603363
  0
LINE
  5
145
100
AcDbEntity
  8
0
  6
ByLayer
 62
    1
370
   -1
100
AcDbLine
 10
85.53205
 20
96.808919
 11
86.299339
 21
96.808919
  0
SPLINE
  5
146
100
AcDbEntity
  8
0
  6
ByLayer
 62
    1
370
   -1
100
AcDbSpline
210
0
220
0
230
0
 70
    8
 71
    3
 72
    8
 73
    4
 74
    0
 42
1e-07
 43
1e-07
 40
0
 40
0
 40
0
 40
0
 40
1
 40
1
 40
1
 40
1
 10
86.299339
 20
96.808919
 30
0
 10
86.299339
 20
96.808919
 30
0
 10
86.299339
 20
96.808919
 30
0
 10
86.299339
 20
96.808921
 30
0
  0
LINE
  5
147
100
AcDbEntity
  8
0
  6
ByLayer
 62
    1
370
   -1
100
AcDbLine
 10
86.299339
 20
96.808921
 11
86.299339
 21
99.454752
  0
LINE
  5
148
100
AcDbEntity
  8
0
  6
ByLayer
 62
    1
370
   -1
100
AcDbLine
 10
86.299339
 20
99.454752
 11
86.299339
 21
99.454752
  0
LINE
  5
149
100
AcDbEntity
  8
0
  6
ByLayer
 62
    1
370
   -1
100
AcDbLine
 10
86.299339
 20
99.454752
 11
85.53205
 21
99.454752
  0
LINE
  5
14A
100
AcDbEntity
  8
0
  6
ByLayer
 62
    1
370
   -1
100
AcDbLine
 10
85.53205
 20
99.454752
 11
85.53204700000001
 21
99.454752
  0
LINE
  5
14B
100
AcDbEntity
  8
0
  6
ByLayer
 62
    1
370
   -1
100
AcDbLine
 10
85.53204700000001
 20
99.454752
 11
85.53204700000001
 21
96.808921
  0
SPLINE
  5
14C
100
AcDbEntity
  8
0
  6
ByLayer
 62
    1
370
   -1
100
AcDbSpline
210
0
220
0
230
0
 70
    8
 71
    3
 72
    8
 73
    4
 74
    0
 42
1e-07
 43
1e-07
 40
0
 40
0
 40
0
 40
0
 40
1
 40
1
 40
1
 40
1
 10
85.53204700000001
 20
96.808921
 30
0
 10
85.53204700000001
 20
96.808919
 30
0
 10
85.53205
 20
96.808919
 30
0
 10
85.53205
 20
96.808919
 30
0
  0
LINE
  5
14D
100
AcDbEntity
  8
0
  6
ByLayer
 62
    1
370
   -1
100
AcDbLine
 10
85.53205
 20
96.808919
 11
85.53205
 21
96.808919
  0
LINE
  5
14E
100
AcDbEntity
  8
0
  6
ByLayer
 62
    1
370
   -1
100
AcDbLine
 10
85.53205
 20
88.871419
 11
86.299339
 21
88.871419
  0
SPLINE
  5
14F
100
AcDbEntity
  8
0
  6
ByLayer
 62
    1
370
   -1
100
AcDbSpline
210
0
220
0
230
0
 70
    8
 71
    3
 72
    8
 73
    4
 74
    0
 42
1e-07
 43
1e-07
 40
0
 40
0
 40
0
 40
0
 40
1
 40
1
 40
1
 40
1
 10
86.299339
 20
88.871419
 30
0
 10
86.299339
 20
88.871419
 30
0
 10
86.299339
 20
88.871419
 30
0
 10
86.299339
 20
88.871421
 30
0
  0
LINE
  5
150
100
AcDbEntity
  8
0
  6
ByLayer
 62
    1
370
   -1
100
AcDbLine
 10
86.299339
 20
88.871421
 11
86.299339
 21
91.51724900000001
  0
SPLINE
  5
151
100
AcDbEntity
  8
0
  6
ByLayer
 62
    1
370
   -1
100
AcDbSpline
210
0
220
0
230
0
 70
    8
 71
    3
 72
    8
 73
    4
 74
    0
 42
1e-07
 43
1e-07
 40
0
 40
0
 40
0
 40
0
 40
1
 40
1
 40
1
 40
1
 10
86.299339
 20
91.51724900000001
 30
0
 10
86.299339
 20
91.517252
 30
0
 10
86.299339
 20
91.517252
 30
0
 10
86.299339
 20
91.517252
 30
0
  0
LINE
  5
152
100
AcDbEntity
  8
0
  6
ByLayer
 62
    1
370
   -1
100
AcDbLine
 10
86.299339
 20
91.517252
 11
85.53205
 21
91.517252
  0
SPLINE
  5
153
100
AcDbEntity
  8
0
  6
ByLayer
 62
    1
370
   -1
100
AcDbSpline
210
0
220
0
230
0
 70
    8
 71
    3
 72
    8
 73
    4
 74
    0
 42
1e-07
 43
1e-07
 40
0
 40
0
 40
0
 40
0
 40
1
 40
1
 40
1
 40
1
 10
85.53205
 20
91.517252
 30
0
 10
85.53205
 20
91.517252
 30
0
 10
85.53204700000001
 20
91.517252
 30
0
 10
85.53204700000001
 20
91.51724900000001
 30
0
  0
LINE
  5
154
100
AcDbEntity
  8
0
  6
ByLayer
 62
    1
370
   -1
100
AcDbLine
 10
85.53204700000001
 20
91.51724900000001
 11
85.53204700000001
 21
88.871421
  0
SPLINE
  5
155
100
AcDbEntity
  8
0
  6
ByLayer
 62
    1
370
   -1
100
AcDbSpline
210
0
220
0
230
0
 70
    8
 71
    3
 72
    8
 73
    4
 74
    0
 42
1e-07
 43
1e-07
 40
0
 40
0
 40
0
 40
0
 40
1
 40
1
 40
1
 40
1
 10
85.53204700000001
 20
88.871421
 30
0
 10
85.53204700000001
 20
88.871419
 30
0
 10
85.53205
 20
88.871419
 30
0
 10
85.53205
 20
88.871419
 30
0
  0
LINE
  5
156
100
AcDbEntity
  8
0
  6
ByLayer
 62
    1
370
   -1
100
AcDbLine
 10
85.53205
 20
88.871419
 11
85.53205
 21
88.871419
  0
SPLINE
  5
157
100
AcDbEntity
  8
0
  6
ByLayer
 62
    5
370
   -1
100
AcDbSpline
210
0
220
0
230
0
 70
    8
 71
    3
 72
    8
 73
    4
 74
    0
 42
1e-07
 43
1e-07
 40
0
 40
0
 40
0
 40
0
 40
1
 40
1
 40
1
 40
1
 10
44.401303
 20
87.862807
 30
0
 10
43.091317
 20
87.862807
 30
0
 10
42.010309
 20
88.80556
 30
0
 10
41.795147
 20
90.052221
 30
0
  0
LINE
  5
158
100
AcDbEntity
  8
0
  6
ByLayer
 62
    5
370
   -1
100
AcDbLine
 10
41.795147
 20
90.052221
 11
40.961659
 21
90.052221
  0
LINE
  5
159
100
AcDbEntity
  8
0
  6
ByLayer
 62
    5
370
   -1
100
AcDbLine
 10
40.961659
 20
90.052221
 11
40.961659
 21
92.750944
  0
LINE
  5
15A
100
AcDbEntity
  8
0
  6
ByLayer
 62
    5
370
   -1
100
AcDbLine
 10
40.961659
 20
92.750944
 11
41.755494
 21
92.750944
  0
LINE
  5
15B
100
AcDbEntity
  8
0
  6
ByLayer
 62
    5
370
   -1
100
AcDbLine
 10
41.755494
 20
92.750944
 11
41.755494
 21
94.827831
  0
LINE
  5
15C
100
AcDbEntity
  8
0
  6
ByLayer
 62
    5
370
   -1
100
AcDbLine
 10
41.755494
 20
94.827831
 11
44.764997
 21
94.827831
  0
LINE
  5
15D
100
AcDbEntity
  8
0
  6
ByLayer
 62
    5
370
   -1
100
AcDbLine
 10
44.764997
 20
94.827831
 11
44.764997
 21
94.431048
  0
LINE
  5
15E
100
AcDbEntity
  8
0
  6
ByLayer
 62
    5
370
   -1
100
AcDbLine
 10
44.764997
 20
94.431048
 11
45.558699
 21
94.431048
  0
LINE
  5
15F
100
AcDbEntity
  8
0
  6
ByLayer
 62
    5
370
   -1
100
AcDbLine
 10
45.558699
 20
94.431048
 11
45.558699
 21
94.827831
  0
LINE
  5
160
100
AcDbEntity
  8
0
  6
ByLayer
 62
    5
370
   -1
100
AcDbLine
 10
45.558699
 20
94.827831
 11
46.567471
 21
94.827831
  0
LINE
  5
161
100
AcDbEntity
  8
0
  6
ByLayer
 62
    5
370
   -1
100
AcDbLine
 10
46.567471
 20
94.827831
 11
46.567471
 21
95.886236
  0
LINE
  5
162
100
AcDbEntity
  8
0
  6
ByLayer
 62
    5
370
   -1
100
AcDbLine
 10
46.567471
 20
95.886236
 11
45.558699
 21
95.886236
  0
LINE
  5
163
100
AcDbEntity
  8
0
  6
ByLayer
 62
    5
370
   -1
100
AcDbLine
 10
45.558699
 20
95.886236
 11
45.558699
 21
96.283018
  0
LINE
  5
164
100
AcDbEntity
  8
0
  6
ByLayer
 62
    5
370
   -1
100
AcDbLine
 10
45.558699
 20
96.283018
 11
44.764997
 21
96.283018
  0
LINE
  5
165
100
AcDbEntity
  8
0
  6
ByLayer
 62
    5
370
   -1
100
AcDbLine
 10
44.764997
 20
96.283018
 11
44.764997
 21
95.886236
  0
LINE
  5
166
100
AcDbEntity
  8
0
  6
ByLayer
 62
    5
370
   -1
100
AcDbLine
 10
44.764997
 20
95.886236
 11
41.755494
 21
95.886236
  0
LINE
  5
167
100
AcDbEntity
  8
0
  6
ByLayer
 62
    5
370
   -1
100
AcDbLine
 10
41.755494
 20
95.886236
 11
41.755494
 21
97.98964700000001
  0
LINE
  5
168
100
AcDbEntity
  8
0
  6
ByLayer
 62
    5
370
   -1
100
AcDbLine
 10
41.755494
 20
97.98964700000001
 11
40.961659
 21
97.98964700000001
  0
LINE
  5
169
100
AcDbEntity
  8
0
  6
ByLayer
 62
    5
370
   -1
100
AcDbLine
 10
40.961659
 20
97.98964700000001
 11
40.961659
 21
100.688508
  0
LINE
  5
16A
100
AcDbEntity
  8
0
  6
ByLayer
 62
    5
370
   -1
100
AcDbLine
 10
40.961659
 20
100.688508
 11
41.755494
 21
100.688508
  0
LINE
  5
16B
100
AcDbEntity
  8
0
  6
ByLayer
 62
    5
370
   -1
100
AcDbLine
 10
41.755494
 20
100.688508
 11
41.755494
 21
100.695069
  0
SPLINE
  5
16C
100
AcDbEntity
  8
0
  6
ByLayer
 62
    5
370
   -1
100
AcDbSpline
210
0
220
0
230
0
 70
    8
 71
    3
 72
    8
 73
    4
 74
    0
 42
1e-07
 43
1e-07
 40
0
 40
0
 40
0
 40
0
 40
1
 40
1
 40
1
 40
1
 10
41.755494
 20
100.695069
 30
0
 10
41.755494
 20
102.160861
 30
0
 10
42.935512
 20
103.340879
 30
0
 10
44.401301
 20
103.340879
 30
0
  0
LINE
  5
16D
100
AcDbEntity
  8
0
  6
ByLayer
 62
    5
370
   -1
100
AcDbLine
 10
44.401301
 20
103.340879
 11
63.980504
 21
103.340879
  0
SPLINE
  5
16E
100
AcDbEntity
  8
0
  6
ByLayer
 62
    5
370
   -1
100
AcDbSpline
210
0
220
0
230
0
 70
    8
 71
    3
 72
    8
 73
    4
 74
    0
 42
1e-07
 43
1e-07
 40
0
 40
0
 40
0
 40
0
 40
1
 40
1
 40
1
 40
1
 10
63.980504
 20
103.340879
 30
0
 10
65.446296
 20
103.340879
 30
0
 10
66.62631399999999
 20
102.160861
 30
0
 10
66.62631399999999
 20
100.695069
 30
0
  0
LINE
  5
16F
100
AcDbEntity
  8
0
  6
ByLayer
 62
    5
370
   -1
100
AcDbLine
 10
66.62631399999999
 20
100.695069
 11
66.62631399999999
 21
100.688508
  0
LINE
  5
170
100
AcDbEntity
  8
0
  6
ByLayer
 62
    5
370
   -1
100
AcDbLine
 10
66.62631399999999
 20
100.688508
 11
67.420011
 21
100.688508
  0
LINE
  5
171
100
AcDbEntity
  8
0
  6
ByLayer
 62
    5
370
   -1
100
AcDbLine
 10
67.420011
 20
100.688508
 11
67.420011
 21
97.98964700000001
  0
LINE
  5
172
100
AcDbEntity
  8
0
  6
ByLayer
 62
    5
370
   -1
100
AcDbLine
 10
67.420011
 20
97.98964700000001
 11
66.62631399999999
 21
97.98964700000001
  0
LINE
  5
173
100
AcDbEntity
  8
0
  6
ByLayer
 62
    5
370
   -1
100
AcDbLine
 10
66.62631399999999
 20
97.98964700000001
 11
66.62631399999999
 21
95.886236
  0
LINE
  5
174
100
AcDbEntity
  8
0
  6
ByLayer
 62
    5
370
   -1
100
AcDbLine
 10
66.62631399999999
 20
95.886236
 11
63.649762
 21
95.886236
  0
LINE
  5
175
100
AcDbEntity
  8
0
  6
ByLayer
 62
    5
370
   -1
100
AcDbLine
 10
63.649762
 20
95.886236
 11
63.649762
 21
96.283018
  0
LINE
  5
176
100
AcDbEntity
  8
0
  6
ByLayer
 62
    5
370
   -1
100
AcDbLine
 10
63.649762
 20
96.283018
 11
62.85606
 21
96.283018
  0
LINE
  5
177
100
AcDbEntity
  8
0
  6
ByLayer
 62
    5
370
   -1
100
AcDbLine
 10
62.85606
 20
96.283018
 11
62.85606
 21
95.886236
  0
LINE
  5
178
100
AcDbEntity
  8
0
  6
ByLayer
 62
    5
370
   -1
100
AcDbLine
 10
62.85606
 20
95.886236
 11
61.847283
 21
95.886236
  0
LINE
  5
179
100
AcDbEntity
  8
0
  6
ByLayer
 62
    5
370
   -1
100
AcDbLine
 10
61.847283
 20
95.886236
 11
61.847283
 21
94.827831
  0
LINE
  5
17A
100
AcDbEntity
  8
0
  6
ByLayer
 62
    5
370
   -1
100
AcDbLine
 10
61.847283
 20
94.827831
 11
62.85606
 21
94.827831
  0
LINE
  5
17B
100
AcDbEntity
  8
0
  6
ByLayer
 62
    5
370
   -1
100
AcDbLine
 10
62.85606
 20
94.827831
 11
62.85606
 21
94.431048
  0
LINE
  5
17C
100
AcDbEntity
  8
0
  6
ByLayer
 62
    5
370
   -1
100
AcDbLine
 10
62.85606
 20
94.431048
 11
63.649762
 21
94.431048
  0
LINE
  5
17D
100
AcDbEntity
  8
0
  6
ByLayer
 62
    5
370
   -1
100
AcDbLine
 10
63.649762
 20
94.431048
 11
63.649762
 21
94.827831
  0
LINE
  5
17E
100
AcDbEntity
  8
0
  6
ByLayer
 62
    5
370
   -1
100
AcDbLine
 10
63.649762
 20
94.827831
 11
66.62631399999999
 21
94.827831
  0
LINE
  5
17F
100
AcDbEntity
  8
0
  6
ByLayer
 62
    5
370
   -1
100
AcDbLine
 10
66.62631399999999
 20
94.827831
 11
66.62631399999999
 21
92.750944
  0
LINE
  5
180
100
AcDbEntity
  8
0
  6
ByLayer
 62
    5
370
   -1
100
AcDbLine
 10
66.62631399999999
 20
92.750944
 11
67.420011
 21
92.750944
  0
LINE
  5
181
100
AcDbEntity
  8
0
  6
ByLayer
 62
    5
370
   -1
100
AcDbLine
 10
67.420011
 20
92.750944
 11
67.420011
 21
90.052221
  0
LINE
  5
182
100
AcDbEntity
  8
0
  6
ByLayer
 62
    5
370
   -1
100
AcDbLine
 10
67.420011
 20
90.052221
 11
66.586664
 21
90.052221
  0
SPLINE
  5
183
100
AcDbEntity
  8
0
  6
ByLayer
 62
    5
370
   -1
100
AcDbSpline
210
0
220
0
230
0
 70
    8
 71
    3
 72
    8
 73
    4
 74
    0
 42
1e-07
 43
1e-07
 40
0
 40
0
 40
0
 40
0
 40
1
 40
1
 40
1
 40
1
 10
66.586664
 20
90.052221
 30
0
 10
66.371494
 20
88.80556
 30
0
 10
65.290488
 20
87.862807
 30
0
 10
63.980504
 20
87.862807
 30
0
  0
LINE
  5
184
100
AcDbEntity
  8
0
  6
ByLayer
 62
    5
370
   -1
100
AcDbLine
 10
63.980504
 20
87.862807
 11
44.401303
 21
87.862807
  0
LINE
  5
185
100
AcDbEntity
  8
0
  6
ByLayer
 62
    1
370
   -1
100
AcDbLine
 10
52.867917
 20
101.766624
 11
52.867917
 21
102.533913
  0
LINE
  5
186
100
AcDbEntity
  8
0
  6
ByLayer
 62
    1
370
   -1
100
AcDbLine
 10
52.867917
 20
102.533913
 11
52.867917
 21
102.533913
  0
LINE
  5
187
100
AcDbEntity
  8
0
  6
ByLayer
 62
    1
370
   -1
100
AcDbLine
 10
52.867917
 20
102.533913
 11
55.513748
 21
102.533913
  0
SPLINE
  5
188
100
AcDbEntity
  8
0
  6
ByLayer
 62
    1
370
   -1
100
AcDbSpline
210
0
220
0
230
0
 70
    8
 71
    3
 72
    8
 73
    4
 74
    0
 42
1e-07
 43
1e-07
 40
0
 40
0
 40
0
 40
0
 40
1
 40
1
 40
1
 40
1
 10
55.513748
 20
102.533913
 30
0
 10
55.513751
 20
102.533913
 30
0
 10
55.513751
 20
102.533913
 30
0
 10
55.513751
 20
102.533913
 30
0
  0
LINE
  5
189
100
AcDbEntity
  8
0
  6
ByLayer
 62
    1
370
   -1
100
AcDbLine
 10
55.513751
 20
102.533913
 11
55.513751
 21
101.766624
  0
SPLINE
  5
18A
100
AcDbEntity
  8
0
  6
ByLayer
 62
    1
370
   -1
100
AcDbSpline
210
0
220
0
230
0
 70
    8
 71
    3
 72
    8
 73
    4
 74
    0
 42
1e-07
 43
1e-07
 40
0
 40
0
 40
0
 40
0
 40
1
 40
1
 40
1
 40
1
 10
55.513751
 20
101.766624
 30
0
 10
55.513751
 20
101.766624
 30
0
 10
55.513751
 20
101.766621
 30
0
 10
55.513748
 20
101.766621
 30
0
  0
LINE
  5
18B
100
AcDbEntity
  8
0
  6
ByLayer
 62
    1
370
   -1
100
AcDbLine
 10
55.513748
 20
101.766621
 11
52.867917
 21
101.766621
  0
LINE
  5
18C
100
AcDbEntity
  8
0
  6
ByLayer
 62
    1
370
   -1
100
AcDbLine
 10
52.867917
 20
101.766621
 11
52.867917
 21
101.766624
  0
LINE
  5
18D
100
AcDbEntity
  8
0
  6
ByLayer
 62
    1
370
   -1
100
AcDbLine
 10
52.867917
 20
101.766624
 11
52.867917
 21
101.766624
  0
LINE
  5
18E
100
AcDbEntity
  8
0
  6
ByLayer
 62
    1
370
   -1
100
AcDbLine
 10
45.591878
 20
101.766624
 11
45.591878
 21
102.533913
  0
LINE
  5
18F
100
AcDbEntity
  8
0
  6
ByLayer
 62
    1
370
   -1
100
AcDbLine
 10
45.591878
 20
102.533913
 11
45.591878
 21
102.533913
  0
LINE
  5
190
100
AcDbEntity
  8
0
  6
ByLayer
 62
    1
370
   -1
100
AcDbLine
 10
45.591878
 20
102.533913
 11
48.237709
 21
102.533913
  0
SPLINE
  5
191
100
AcDbEntity
  8
0
  6
ByLayer
 62
    1
370
   -1
100
AcDbSpline
210
0
220
0
230
0
 70
    8
 71
    3
 72
    8
 73
    4
 74
    0
 42
1e-07
 43
1e-07
 40
0
 40
0
 40
0
 40
0
 40
1
 40
1
 40
1
 40
1
 10
48.237709
 20
102.533913
 30
0
 10
48.237712
 20
102.533913
 30
0
 10
48.237712
 20
102.533913
 30
0
 10
48.237712
 20
102.533913
 30
0
  0
LINE
  5
192
100
AcDbEntity
  8
0
  6
ByLayer
 62
    1
370
   -1
100
AcDbLine
 10
48.237712
 20
102.533913
 11
48.237712
 21
101.766624
  0
SPLINE
  5
193
100
AcDbEntity
  8
0
  6
ByLayer
 62
    1
370
   -1
100
AcDbSpline
210
0
220
0
230
0
 70
    8
 71
    3
 72
    8
 73
    4
 74
    0
 42
1e-07
 43
1e-07
 40
0
 40
0
 40
0
 40
0
 40
1
 40
1
 40
1
 40
1
 10
48.237712
 20
101.766624
 30
0
 10
48.237712
 20
101.766624
 30
0
 10
48.237712
 20
101.766621
 30
0
 10
48.237709
 20
101.766621
 30
0
  0
LINE
  5
194
100
AcDbEntity
  8
0
  6
ByLayer
 62
    1
370
   -1
100
AcDbLine
 10
48.237709
 20
101.766621
 11
45.591881
 21
101.766621
  0
SPLINE
  5
195
100
AcDbEntity
  8
0
  6
ByLayer
 62
    1
370
   -1
100
AcDbSpline
210
0
220
0
230
0
 70
    8
 71
    3
 72
    8
 73
    4
 74
    0
 42
1e-07
 43
1e-07
 40
0
 40
0
 40
0
 40
0
 40
1
 40
1
 40
1
 40
1
 10
45.591881
 20
101.766621
 30
0
 10
45.591878
 20
101.766621
 30
0
 10
45.591878
 20
101.766624
 30
0
 10
45.591878
 20
101.766624
 30
0
  0
LINE
  5
196
100
AcDbEntity
  8
0
  6
ByLayer
 62
    1
370
   -1
100
AcDbLine
 10
45.591878
 20
101.766624
 11
45.591878
 21
101.766624
  0
LINE
  5
197
100
AcDbEntity
  8
0
  6
ByLayer
 62
    1
370
   -1
100
AcDbLine
 10
60.143964
 20
101.766624
 11
60.143964
 21
102.533913
  0
LINE
  5
198
100
AcDbEntity
  8
0
  6
ByLayer
 62
    1
370
   -1
100
AcDbLine
 10
60.143964
 20
102.533913
 11
60.143964
 21
102.533913
  0
LINE
  5
199
100
AcDbEntity
  8
0
  6
ByLayer
 62
    1
370
   -1
100
AcDbLine
 10
60.143964
 20
102.533913
 11
62.789795
 21
102.533913
  0
SPLINE
  5
19A
100
AcDbEntity
  8
0
  6
ByLayer
 62
    1
370
   -1
100
AcDbSpline
210
0
220
0
230
0
 70
    8
 71
    3
 72
    8
 73
    4
 74
    0
 42
1e-07
 43
1e-07
 40
0
 40
0
 40
0
 40
0
 40
1
 40
1
 40
1
 40
1
 10
62.789795
 20
102.533913
 30
0
 10
62.789797
 20
102.533913
 30
0
 10
62.789797
 20
102.533913
 30
0
 10
62.789797
 20
102.533913
 30
0
  0
LINE
  5
19B
100
AcDbEntity
  8
0
  6
ByLayer
 62
    1
370
   -1
100
AcDbLine
 10
62.789797
 20
102.533913
 11
62.789797
 21
101.766624
  0
SPLINE
  5
19C
100
AcDbEntity
  8
0
  6
ByLayer
 62
    1
370
   -1
100
AcDbSpline
210
0
220
0
230
0
 70
    8
 71
    3
 72
    8
 73
    4
 74
    0
 42
1e-07
 43
1e-07
 40
0
 40
0
 40
0
 40
0
 40
1
 40
1
 40
1
 40
1
 10
62.789797
 20
101.766624
 30
0
 10
62.789797
 20
101.766624
 30
0
 10
62.789797
 20
101.766621
 30
0
 10
62.789795
 20
101.766621
 30
0
  0
LINE
  5
19D
100
AcDbEntity
  8
0
  6
ByLayer
 62
    1
370
   -1
100
AcDbLine
 10
62.789795
 20
101.766621
 11
60.143967
 21
101.766621
  0
SPLINE
  5
19E
100
AcDbEntity
  8
0
  6
ByLayer
 62
    1
370
   -1
100
AcDbSpline
210
0
220
0
230
0
 70
    8
 71
    3
 72
    8
 73
    4
 74
    0
 42
1e-07
 43
1e-07
 40
0
 40
0
 40
0
 40
0
 40
1
 40
1
 40
1
 40
1
 10
60.143967
 20
101.766621
 30
0
 10
60.143964
 20
101.766621
 30
0
 10
60.143964
 20
101.766624
 30
0
 10
60.143964
 20
101.766624
 30
0
  0
LINE
  5
19F
100
AcDbEntity
  8
0
  6
ByLayer
 62
    1
370
   -1
100
AcDbLine
 10
60.143964
 20
101.766624
 11
60.143964
 21
101.766624
  0
LINE
  5
1A0
100
AcDbEntity
  8
0
  6
ByLayer
 62
    5
370
   -1
100
AcDbLine
 10
60.601429
 20
81.07535799999999
 11
60.601429
 21
78.376634
  0
LINE
  5
1A1
100
AcDbEntity
  8
0
  6
ByLayer
 62
    5
370
   -1
100
AcDbLine
 10
60.601429
 20
78.376634
 11
61.395263
 21
78.376634
  0
LINE
  5
1A2
100
AcDbEntity
  8
0
  6
ByLayer
 62
    5
370
   -1
100
AcDbLine
 10
61.395263
 20
78.376634
 11
61.395263
 21
76.29974799999999
  0
LINE
  5
1A3
100
AcDbEntity
  8
0
  6
ByLayer
 62
    5
370
   -1
100
AcDbLine
 10
61.395263
 20
76.29974799999999
 11
64.40476700000001
 21
76.29974799999999
  0
LINE
  5
1A4
100
AcDbEntity
  8
0
  6
ByLayer
 62
    5
370
   -1
100
AcDbLine
 10
64.40476700000001
 20
76.29974799999999
 11
64.40476700000001
 21
76.69653
  0
LINE
  5
1A5
100
AcDbEntity
  8
0
  6
ByLayer
 62
    5
370
   -1
100
AcDbLine
 10
64.40476700000001
 20
76.69653
 11
65.198469
 21
76.69653
  0
LINE
  5
1A6
100
AcDbEntity
  8
0
  6
ByLayer
 62
    5
370
   -1
100
AcDbLine
 10
65.198469
 20
76.69653
 11
65.198469
 21
76.29974799999999
  0
LINE
  5
1A7
100
AcDbEntity
  8
0
  6
ByLayer
 62
    5
370
   -1
100
AcDbLine
 10
65.198469
 20
76.29974799999999
 11
66.20724
 21
76.29974799999999
  0
LINE
  5
1A8
100
AcDbEntity
  8
0
  6
ByLayer
 62
    5
370
   -1
100
AcDbLine
 10
66.20724
 20
76.29974799999999
 11
66.20724
 21
75.241343
  0
LINE
  5
1A9
100
AcDbEntity
  8
0
  6
ByLayer
 62
    5
370
   -1
100
AcDbLine
 10
66.20724
 20
75.241343
 11
65.198469
 21
75.241343
  0
LINE
  5
1AA
100
AcDbEntity
  8
0
  6
ByLayer
 62
    5
370
   -1
100
AcDbLine
 10
65.198469
 20
75.241343
 11
65.198469
 21
74.844561
  0
LINE
  5
1AB
100
AcDbEntity
  8
0
  6
ByLayer
 62
    5
370
   -1
100
AcDbLine
 10
65.198469
 20
74.844561
 11
64.40476700000001
 21
74.844561
  0
LINE
  5
1AC
100
AcDbEntity
  8
0
  6
ByLayer
 62
    5
370
   -1
100
AcDbLine
 10
64.40476700000001
 20
74.844561
 11
64.40476700000001
 21
75.241343
  0
LINE
  5
1AD
100
AcDbEntity
  8
0
  6
ByLayer
 62
    5
370
   -1
100
AcDbLine
 10
64.40476700000001
 20
75.241343
 11
61.395263
 21
75.241343
  0
LINE
  5
1AE
100
AcDbEntity
  8
0
  6
ByLayer
 62
    5
370
   -1
100
AcDbLine
 10
61.395263
 20
75.241343
 11
61.395263
 21
73.13793200000001
  0
LINE
  5
1AF
100
AcDbEntity
  8
0
  6
ByLayer
 62
    5
370
   -1
100
AcDbLine
 10
61.395263
 20
73.13793200000001
 11
60.601429
 21
73.13793200000001
  0
LINE
  5
1B0
100
AcDbEntity
  8
0
  6
ByLayer
 62
    5
370
   -1
100
AcDbLine
 10
60.601429
 20
73.13793200000001
 11
60.601429
 21
70.439071
  0
LINE
  5
1B1
100
AcDbEntity
  8
0
  6
ByLayer
 62
    5
370
   -1
100
AcDbLine
 10
60.601429
 20
70.439071
 11
61.395263
 21
70.439071
  0
LINE
  5
1B2
100
AcDbEntity
  8
0
  6
ByLayer
 62
    5
370
   -1
100
AcDbLine
 10
61.395263
 20
70.439071
 11
61.395263
 21
70.432509
  0
SPLINE
  5
1B3
100
AcDbEntity
  8
0
  6
ByLayer
 62
    5
370
   -1
100
AcDbSpline
210
0
220
0
230
0
 70
    8
 71
    3
 72
    8
 73
    4
 74
    0
 42
1e-07
 43
1e-07
 40
0
 40
0
 40
0
 40
0
 40
1
 40
1
 40
1
 40
1
 10
61.395263
 20
70.432509
 30
0
 10
61.395263
 20
68.966718
 30
0
 10
62.575281
 20
67.7867
 30
0
 10
64.04107
 20
67.7867
 30
0
  0
LINE
  5
1B4
100
AcDbEntity
  8
0
  6
ByLayer
 62
    5
370
   -1
100
AcDbLine
 10
64.04107
 20
67.7867
 11
83.62027399999999
 21
67.7867
  0
SPLINE
  5
1B5
100
AcDbEntity
  8
0
  6
ByLayer
 62
    5
370
   -1
100
AcDbSpline
210
0
220
0
230
0
 70
    8
 71
    3
 72
    8
 73
    4
 74
    0
 42
1e-07
 43
1e-07
 40
0
 40
0
 40
0
 40
0
 40
1
 40
1
 40
1
 40
1
 10
83.62027399999999
 20
67.7867
 30
0
 10
85.086066
 20
67.7867
 30
0
 10
86.26608299999999
 20
68.966718
 30
0
 10
86.26608299999999
 20
70.432509
 30
0
  0
LINE
  5
1B6
100
AcDbEntity
  8
0
  6
ByLayer
 62
    5
370
   -1
100
AcDbLine
 10
86.26608299999999
 20
70.432509
 11
86.26608299999999
 21
70.439071
  0
LINE
  5
1B7
100
AcDbEntity
  8
0
  6
ByLayer
 62
    5
370
   -1
100
AcDbLine
 10
86.26608299999999
 20
70.439071
 11
87.059781
 21
70.439071
  0
LINE
  5
1B8
100
AcDbEntity
  8
0
  6
ByLayer
 62
    5
370
   -1
100
AcDbLine
 10
87.059781
 20
70.439071
 11
87.059781
 21
73.13793200000001
  0
LINE
  5
1B9
100
AcDbEntity
  8
0
  6
ByLayer
 62
    5
370
   -1
100
AcDbLine
 10
87.059781
 20
73.13793200000001
 11
86.26608299999999
 21
73.13793200000001
  0
LINE
  5
1BA
100
AcDbEntity
  8
0
  6
ByLayer
 62
    5
370
   -1
100
AcDbLine
 10
86.26608299999999
 20
73.13793200000001
 11
86.26608299999999
 21
75.241343
  0
LINE
  5
1BB
100
AcDbEntity
  8
0
  6
ByLayer
 62
    5
370
   -1
100
AcDbLine
 10
86.26608299999999
 20
75.241343
 11
83.28953199999999
 21
75.241343
  0
LINE
  5
1BC
100
AcDbEntity
  8
0
  6
ByLayer
 62
    5
370
   -1
100
AcDbLine
 10
83.28953199999999
 20
75.241343
 11
83.28953199999999
 21
74.844561
  0
LINE
  5
1BD
100
AcDbEntity
  8
0
  6
ByLayer
 62
    5
370
   -1
100
AcDbLine
 10
83.28953199999999
 20
74.844561
 11
82.495829
 21
74.844561
  0
LINE
  5
1BE
100
AcDbEntity
  8
0
  6
ByLayer
 62
    5
370
   -1
100
AcDbLine
 10
82.495829
 20
74.844561
 11
82.495829
 21
75.241343
  0
LINE
  5
1BF
100
AcDbEntity
  8
0
  6
ByLayer
 62
    5
370
   -1
100
AcDbLine
 10
82.495829
 20
75.241343
 11
81.48705200000001
 21
75.241343
  0
LINE
  5
1C0
100
AcDbEntity
  8
0
  6
ByLayer
 62
    5
370
   -1
100
AcDbLine
 10
81.48705200000001
 20
75.241343
 11
81.48705200000001
 21
76.29974799999999
  0
LINE
  5
1C1
100
AcDbEntity
  8
0
  6
ByLayer
 62
    5
370
   -1
100
AcDbLine
 10
81.48705200000001
 20
76.29974799999999
 11
82.495829
 21
76.29974799999999
  0
LINE
  5
1C2
100
AcDbEntity
  8
0
  6
ByLayer
 62
    5
370
   -1
100
AcDbLine
 10
82.495829
 20
76.29974799999999
 11
82.495829
 21
76.69653
  0
LINE
  5
1C3
100
AcDbEntity
  8
0
  6
ByLayer
 62
    5
370
   -1
100
AcDbLine
 10
82.495829
 20
76.69653
 11
83.28953199999999
 21
76.69653
  0
LINE
  5
1C4
100
AcDbEntity
  8
0
  6
ByLayer
 62
    5
370
   -1
100
AcDbLine
 10
83.28953199999999
 20
76.69653
 11
83.28953199999999
 21
76.29974799999999
  0
LINE
  5
1C5
100
AcDbEntity
  8
0
  6
ByLayer
 62
    5
370
   -1
100
AcDbLine
 10
83.28953199999999
 20
76.29974799999999
 11
86.26608299999999
 21
76.29974799999999
  0
LINE
  5
1C6
100
AcDbEntity
  8
0
  6
ByLayer
 62
    5
370
   -1
100
AcDbLine
 10
86.26608299999999
 20
76.29974799999999
 11
86.26608299999999
 21
78.376634
  0
LINE
  5
1C7
100
AcDbEntity
  8
0
  6
ByLayer
 62
    5
370
   -1
100
AcDbLine
 10
86.26608299999999
 20
78.376634
 11
87.059781
 21
78.376634
  0
LINE
  5
1C8
100
AcDbEntity
  8
0
  6
ByLayer
 62
    5
370
   -1
100
AcDbLine
 10
87.059781
 20
78.376634
 11
87.059781
 21
81.07535799999999
  0
LINE
  5
1C9
100
AcDbEntity
  8
0
  6
ByLayer
 62
    5
370
   -1
100
AcDbLine
 10
87.059781
 20
81.07535799999999
 11
60.601429
 21
81.07535799999999
  0
LINE
  5
1CA
100
AcDbEntity
  8
0
  6
ByLayer
 62
    1
370
   -1
100
AcDbLine
 10
72.507687
 20
69.360955
 11
72.507687
 21
68.593666
  0
LINE
  5
1CB
100
AcDbEntity
  8
0
  6
ByLayer
 62
    1
370
   -1
100
AcDbLine
 10
72.507687
 20
68.593666
 11
72.507687
 21
68.593666
  0
LINE
  5
1CC
100
AcDbEntity
  8
0
  6
ByLayer
 62
    1
370
   -1
100
AcDbLine
 10
72.507687
 20
68.593666
 11
75.15351699999999
 21
68.593666
  0
SPLINE
  5
1CD
100
AcDbEntity
  8
0
  6
ByLayer
 62
    1
370
   -1
100
AcDbSpline
210
0
220
0
230
0
 70
    8
 71
    3
 72
    8
 73
    4
 74
    0
 42
1e-07
 43
1e-07
 40
0
 40
0
 40
0
 40
0
 40
1
 40
1
 40
1
 40
1
 10
75.15351699999999
 20
68.593666
 30
0
 10
75.15352
 20
68.593666
 30
0
 10
75.15352
 20
68.593666
 30
0
 10
75.15352
 20
68.593666
 30
0
  0
LINE
  5
1CE
100
AcDbEntity
  8
0
  6
ByLayer
 62
    1
370
   -1
100
AcDbLine
 10
75.15352
 20
68.593666
 11
75.15352
 21
69.360955
  0
SPLINE
  5
1CF
100
AcDbEntity
  8
0
  6
ByLayer
 62
    1
370
   -1
100
AcDbSpline
210
0
220
0
230
0
 70
    8
 71
    3
 72
    8
 73
    4
 74
    0
 42
1e-07
 43
1e-07
 40
0
 40
0
 40
0
 40
0
 40
1
 40
1
 40
1
 40
1
 10
75.15352
 20
69.360955
 30
0
 10
75.15352
 20
69.360955
 30
0
 10
75.15352
 20
69.360957
 30
0
 10
75.15351699999999
 20
69.360957
 30
0
  0
LINE
  5
1D0
100
AcDbEntity
  8
0
  6
ByLayer
 62
    1
370
   -1
100
AcDbLine
 10
75.15351699999999
 20
69.360957
 11
72.507687
 21
69.360957
  0
LINE
  5
1D1
100
AcDbEntity
  8
0
  6
ByLayer
 62
    1
370
   -1
100
AcDbLine
 10
72.507687
 20
69.360957
 11
72.507687
 21
69.360955
  0
LINE
  5
1D2
100
AcDbEntity
  8
0
  6
ByLayer
 62
    1
370
   -1
100
AcDbLine
 10
72.507687
 20
69.360955
 11
72.507687
 21
69.360955
  0
LINE
  5
1D3
100
AcDbEntity
  8
0
  6
ByLayer
 62
    1
370
   -1
100
AcDbLine
 10
65.23164800000001
 20
69.360955
 11
65.23164800000001
 21
68.593666
  0
LINE
  5
1D4
100
AcDbEntity
  8
0
  6
ByLayer
 62
    1
370
   -1
100
AcDbLine
 10
65.23164800000001
 20
68.593666
 11
65.23164800000001
 21
68.593666
  0
LINE
  5
1D5
100
AcDbEntity
  8
0
  6
ByLayer
 62
    1
370
   -1
100
AcDbLine
 10
65.23164800000001
 20
68.593666
 11
67.877478
 21
68.593666
  0
SPLINE
  5
1D6
100
AcDbEntity
  8
0
  6
ByLayer
 62
    1
370
   -1
100
AcDbSpline
210
0
220
0
230
0
 70
    8
 71
    3
 72
    8
 73
    4
 74
    0
 42
1e-07
 43
1e-07
 40
0
 40
0
 40
0
 40
0
 40
1
 40
1
 40
1
 40
1
 10
67.877478
 20
68.593666
 30
0
 10
67.877481
 20
68.593666
 30
0
 10
67.877481
 20
68.593666
 30
0
 10
67.877481
 20
68.593666
 30
0
  0
LINE
  5
1D7
100
AcDbEntity
  8
0
  6
ByLayer
 62
    1
370
   -1
100
AcDbLine
 10
67.877481
 20
68.593666
 11
67.877481
 21
69.360955
  0
SPLINE
  5
1D8
100
AcDbEntity
  8
0
  6
ByLayer
 62
    1
370
   -1
100
AcDbSpline
210
0
220
0
230
0
 70
    8
 71
    3
 72
    8
 73
    4
 74
    0
 42
1e-07
 43
1e-07
 40
0
 40
0
 40
0
 40
0
 40
1
 40
1
 40
1
 40
1
 10
67.877481
 20
69.360955
 30
0
 10
67.877481
 20
69.360955
 30
0
 10
67.877481
 20
69.360957
 30
0
 10
67.877478
 20
69.360957
 30
0
  0
LINE
  5
1D9
100
AcDbEntity
  8
0
  6
ByLayer
 62
    1
370
   -1
100
AcDbLine
 10
67.877478
 20
69.360957
 11
65.23165
 21
69.360957
  0
SPLINE
  5
1DA
100
AcDbEntity
  8
0
  6
ByLayer
 62
    1
370
   -1
100
AcDbSpline
210
0
220
0
230
0
 70
    8
 71
    3
 72
    8
 73
    4
 74
    0
 42
1e-07
 43
1e-07
 40
0
 40
0
 40
0
 40
0
 40
1
 40
1
 40
1
 40
1
 10
65.23165
 20
69.360957
 30
0
 10
65.23164800000001
 20
69.360957
 30
0
 10
65.23164800000001
 20
69.360955
 30
0
 10
65.23164800000001
 20
69.360955
 30
0
  0
LINE
  5
1DB
100
AcDbEntity
  8
0
  6
ByLayer
 62
    1
370
   -1
100
AcDbLine
 10
65.23164800000001
 20
69.360955
 11
65.23164800000001
 21
69.360955
  0
LINE
  5
1DC
100
AcDbEntity
  8
0
  6
ByLayer
 62
    1
370
   -1
100
AcDbLine
 10
79.783734
 20
69.360955
 11
79.783734
 21
68.593666
  0
LINE
  5
1DD
100
AcDbEntity
  8
0
  6
ByLayer
 62
    1
370
   -1
100
AcDbLine
 10
79.783734
 20
68.593666
 11
79.783734
 21
68.593666
  0
LINE
  5
1DE
100
AcDbEntity
  8
0
  6
ByLayer
 62
    1
370
   -1
100
AcDbLine
 10
79.783734
 20
68.593666
 11
82.429564
 21
68.593666
  0
SPLINE
  5
1DF
100
AcDbEntity
  8
0
  6
ByLayer
 62
    1
370
   -1
100
AcDbSpline
210
0
220
0
230
0
 70
    8
 71
    3
 72
    8
 73
    4
 74
    0
 42
1e-07
 43
1e-07
 40
0
 40
0
 40
0
 40
0
 40
1
 40
1
 40
1
 40
1
 10
82.429564
 20
68.593666
 30
0
 10
82.42956700000001
 20
68.593666
 30
0
 10
82.42956700000001
 20
68.593666
 30
0
 10
82.42956700000001
 20
68.593666
 30
0
  0
LINE
  5
1E0
100
AcDbEntity
  8
0
  6
ByLayer
 62
    1
370
   -1
100
AcDbLine
 10
82.42956700000001
 20
68.593666
 11
82.42956700000001
 21
69.360955
  0
SPLINE
  5
1E1
100
AcDbEntity
  8
0
  6
ByLayer
 62
    1
370
   -1
100
AcDbSpline
210
0
220
0
230
0
 70
    8
 71
    3
 72
    8
 73
    4
 74
    0
 42
1e-07
 43
1e-07
 40
0
 40
0
 40
0
 40
0
 40
1
 40
1
 40
1
 40
1
 10
82.42956700000001
 20
69.360955
 30
0
 10
82.42956700000001
 20
69.360955
 30
0
 10
82.42956700000001
 20
69.360957
 30
0
 10
82.429564
 20
69.360957
 30
0
  0
LINE
  5
1E2
100
AcDbEntity
  8
0
  6
ByLayer
 62
    1
370
   -1
100
AcDbLine
 10
82.429564
 20
69.360957
 11
79.783736
 21
69.360957
  0
SPLINE
  5
1E3
100
AcDbEntity
  8
0
  6
ByLayer
 62
    1
370
   -1
100
AcDbSpline
210
0
220
0
230
0
 70
    8
 71
    3
 72
    8
 73
    4
 74
    0
 42
1e-07
 43
1e-07
 40
0
 40
0
 40
0
 40
0
 40
1
 40
1
 40
1
 40
1
 10
79.783736
 20
69.360957
 30
0
 10
79.783734
 20
69.360957
 30
0
 10
79.783734
 20
69.360955
 30
0
 10
79.783734
 20
69.360955
 30
0
  0
LINE
  5
1E4
100
AcDbEntity
  8
0
  6
ByLayer
 62
    1
370
   -1
100
AcDbLine
 10
79.783734
 20
69.360955
 11
79.783734
 21
69.360955
  0
SPLINE
  5
1E5
100
AcDbEntity
  8
0
  6
ByLayer
 62
    3
370
   -1
100
AcDbSpline
210
0
220
0
230
0
 70
    8
 71
    3
 72
    8
 73
    4
 74
    0
 42
1e-07
 43
1e-07
 40
0
 40
0
 40
0
 40
0
 40
1
 40
1
 40
1
 40
1
 10
46.683894
 20
65.54568399999999
 30
0
 10
46.734141
 20
65.532353
 30
0
 10
46.772596
 20
65.50859699999999
 30
0
 10
46.799258
 20
65.47441499999999
 30
0
  0
SPLINE
  5
1E6
100
AcDbEntity
  8
0
  6
ByLayer
 62
    3
370
   -1
100
AcDbSpline
210
0
220
0
230
0
 70
    8
 71
    3
 72
    8
 73
    4
 74
    0
 42
1e-07
 43
1e-07
 40
0
 40
0
 40
0
 40
0
 40
1
 40
1
 40
1
 40
1
 10
46.799258
 20
65.47441499999999
 30
0
 10
46.825919
 20
65.440575
 30
0
 10
46.83925
 20
65.39819
 30
0
 10
46.83925
 20
65.34725899999999
 30
0
  0
SPLINE
  5
1E7
100
AcDbEntity
  8
0
  6
ByLayer
 62
    3
370
   -1
100
AcDbSpline
210
0
220
0
230
0
 70
    8
 71
    3
 72
    8
 73
    4
 74
    0
 42
1e-07
 43
1e-07
 40
0
 40
0
 40
0
 40
0
 40
1
 40
1
 40
1
 40
1
 10
46.83925
 20
65.34725899999999
 30
0
 10
46.83925
 20
65.276844
 30
0
 10
46.815494
 20
65.22147
 30
0
 10
46.767982
 20
65.181135
 30
0
  0
SPLINE
  5
1E8
100
AcDbEntity
  8
0
  6
ByLayer
 62
    3
370
   -1
100
AcDbSpline
210
0
220
0
230
0
 70
    8
 71
    3
 72
    8
 73
    4
 74
    0
 42
1e-07
 43
1e-07
 40
0
 40
0
 40
0
 40
0
 40
1
 40
1
 40
1
 40
1
 10
46.767982
 20
65.181135
 30
0
 10
46.720811
 20
65.141142
 30
0
 10
46.655352
 20
65.121146
 30
0
 10
46.571607
 20
65.121146
 30
0
  0
SPLINE
  5
1E9
100
AcDbEntity
  8
0
  6
ByLayer
 62
    3
370
   -1
100
AcDbSpline
210
0
220
0
230
0
 70
    8
 71
    3
 72
    8
 73
    4
 74
    0
 42
1e-07
 43
1e-07
 40
0
 40
0
 40
0
 40
0
 40
1
 40
1
 40
1
 40
1
 10
46.571607
 20
65.121146
 30
0
 10
46.5364
 20
65.121146
 30
0
 10
46.500509
 20
65.124393
 30
0
 10
46.463934
 20
65.130888
 30
0
  0
SPLINE
  5
1EA
100
AcDbEntity
  8
0
  6
ByLayer
 62
    3
370
   -1
100
AcDbSpline
210
0
220
0
230
0
 70
    8
 71
    3
 72
    8
 73
    4
 74
    0
 42
1e-07
 43
1e-07
 40
0
 40
0
 40
0
 40
0
 40
1
 40
1
 40
1
 40
1
 10
46.463934
 20
65.130888
 30
0
 10
46.42736
 20
65.137382
 30
0
 10
46.391469
 20
65.146782
 30
0
 10
46.356262
 20
65.159088
 30
0
  0
LINE
  5
1EB
100
AcDbEntity
  8
0
  6
ByLayer
 62
    3
370
   -1
100
AcDbLine
 10
46.356262
 20
65.159088
 11
46.356262
 21
65.262146
  0
SPLINE
  5
1EC
100
AcDbEntity
  8
0
  6
ByLayer
 62
    3
370
   -1
100
AcDbSpline
210
0
220
0
230
0
 70
    8
 71
    3
 72
    8
 73
    4
 74
    0
 42
1e-07
 43
1e-07
 40
0
 40
0
 40
0
 40
0
 40
1
 40
1
 40
1
 40
1
 10
46.356262
 20
65.262146
 30
0
 10
46.391127
 20
65.24403
 30
0
 10
46.42548
 20
65.23052800000001
 30
0
 10
46.45932
 20
65.22163999999999
 30
0
  0
SPLINE
  5
1ED
100
AcDbEntity
  8
0
  6
ByLayer
 62
    3
370
   -1
100
AcDbSpline
210
0
220
0
230
0
 70
    8
 71
    3
 72
    8
 73
    4
 74
    0
 42
1e-07
 43
1e-07
 40
0
 40
0
 40
0
 40
0
 40
1
 40
1
 40
1
 40
1
 10
46.45932
 20
65.22163999999999
 30
0
 10
46.49316
 20
65.21275300000001
 30
0
 10
46.526829
 20
65.20831
 30
0
 10
46.560327
 20
65.20831
 30
0
  0
SPLINE
  5
1EE
100
AcDbEntity
  8
0
  6
ByLayer
 62
    3
370
   -1
100
AcDbSpline
210
0
220
0
230
0
 70
    8
 71
    3
 72
    8
 73
    4
 74
    0
 42
1e-07
 43
1e-07
 40
0
 40
0
 40
0
 40
0
 40
1
 40
1
 40
1
 40
1
 10
46.560327
 20
65.20831
 30
0
 10
46.617069
 20
65.20831
 30
0
 10
46.660651
 20
65.22112799999999
 30
0
 10
46.691072
 20
65.246764
 30
0
  0
SPLINE
  5
1EF
100
AcDbEntity
  8
0
  6
ByLayer
 62
    3
370
   -1
100
AcDbSpline
210
0
220
0
230
0
 70
    8
 71
    3
 72
    8
 73
    4
 74
    0
 42
1e-07
 43
1e-07
 40
0
 40
0
 40
0
 40
0
 40
1
 40
1
 40
1
 40
1
 10
46.691072
 20
65.246764
 30
0
 10
46.721494
 20
65.2724
 30
0
 10
46.736705
 20
65.30931699999999
 30
0
 10
46.736705
 20
65.357513
 30
0
  0
SPLINE
  5
1F0
100
AcDbEntity
  8
0
  6
ByLayer
 62
    3
370
   -1
100
AcDbSpline
210
0
220
0
230
0
 70
    8
 71
    3
 72
    8
 73
    4
 74
    0
 42
1e-07
 43
1e-07
 40
0
 40
0
 40
0
 40
0
 40
1
 40
1
 40
1
 40
1
 10
46.736705
 20
65.357513
 30
0
 10
46.736705
 20
65.401949
 30
0
 10
46.721494
 20
65.437157
 30
0
 10
46.691072
 20
65.46313499999999
 30
0
  0
SPLINE
  5
1F1
100
AcDbEntity
  8
0
  6
ByLayer
 62
    3
370
   -1
100
AcDbSpline
210
0
220
0
230
0
 70
    8
 71
    3
 72
    8
 73
    4
 74
    0
 42
1e-07
 43
1e-07
 40
0
 40
0
 40
0
 40
0
 40
1
 40
1
 40
1
 40
1
 10
46.691072
 20
65.46313499999999
 30
0
 10
46.660651
 20
65.48945500000001
 30
0
 10
46.619462
 20
65.50261500000001
 30
0
 10
46.567505
 20
65.50261500000001
 30
0
  0
LINE
  5
1F2
100
AcDbEntity
  8
0
  6
ByLayer
 62
    3
370
   -1
100
AcDbLine
 10
46.567505
 20
65.50261500000001
 11
46.488545
 21
65.50261500000001
  0
LINE
  5
1F3
100
AcDbEntity
  8
0
  6
ByLayer
 62
    3
370
   -1
100
AcDbLine
 10
46.488545
 20
65.50261500000001
 11
46.488545
 21
65.587728
  0
LINE
  5
1F4
100
AcDbEntity
  8
0
  6
ByLayer
 62
    3
370
   -1
100
AcDbLine
 10
46.488545
 20
65.587728
 11
46.567505
 21
65.587728
  0
SPLINE
  5
1F5
100
AcDbEntity
  8
0
  6
ByLayer
 62
    3
370
   -1
100
AcDbSpline
210
0
220
0
230
0
 70
    8
 71
    3
 72
    8
 73
    4
 74
    0
 42
1e-07
 43
1e-07
 40
0
 40
0
 40
0
 40
0
 40
1
 40
1
 40
1
 40
1
 10
46.567505
 20
65.587728
 30
0
 10
46.615018
 20
65.587728
 30
0
 10
46.652105
 20
65.598153
 30
0
 10
46.678767
 20
65.619004
 30
0
  0
SPLINE
  5
1F6
100
AcDbEntity
  8
0
  6
ByLayer
 62
    3
370
   -1
100
AcDbSpline
210
0
220
0
230
0
 70
    8
 71
    3
 72
    8
 73
    4
 74
    0
 42
1e-07
 43
1e-07
 40
0
 40
0
 40
0
 40
0
 40
1
 40
1
 40
1
 40
1
 10
46.678767
 20
65.619004
 30
0
 10
46.705429
 20
65.639855
 30
0
 10
46.71876
 20
65.668909
 30
0
 10
46.71876
 20
65.70616800000001
 30
0
  0
SPLINE
  5
1F7
100
AcDbEntity
  8
0
  6
ByLayer
 62
    3
370
   -1
100
AcDbSpline
210
0
220
0
230
0
 70
    8
 71
    3
 72
    8
 73
    4
 74
    0
 42
1e-07
 43
1e-07
 40
0
 40
0
 40
0
 40
0
 40
1
 40
1
 40
1
 40
1
 10
46.71876
 20
65.70616800000001
 30
0
 10
46.71876
 20
65.74547699999999
 30
0
 10
46.706283
 20
65.77555700000001
 30
0
 10
46.68133
 20
65.796408
 30
0
  0
SPLINE
  5
1F8
100
AcDbEntity
  8
0
  6
ByLayer
 62
    3
370
   -1
100
AcDbSpline
210
0
220
0
230
0
 70
    8
 71
    3
 72
    8
 73
    4
 74
    0
 42
1e-07
 43
1e-07
 40
0
 40
0
 40
0
 40
0
 40
1
 40
1
 40
1
 40
1
 10
46.68133
 20
65.796408
 30
0
 10
46.65672
 20
65.8176
 30
0
 10
46.621512
 20
65.828197
 30
0
 10
46.575709
 20
65.828197
 30
0
  0
SPLINE
  5
1F9
100
AcDbEntity
  8
0
  6
ByLayer
 62
    3
370
   -1
100
AcDbSpline
210
0
220
0
230
0
 70
    8
 71
    3
 72
    8
 73
    4
 74
    0
 42
1e-07
 43
1e-07
 40
0
 40
0
 40
0
 40
0
 40
1
 40
1
 40
1
 40
1
 10
46.575709
 20
65.828197
 30
0
 10
46.545287
 20
65.828197
 30
0
 10
46.51384
 20
65.82477799999999
 30
0
 10
46.481367
 20
65.817942
 30
0
  0
SPLINE
  5
1FA
100
AcDbEntity
  8
0
  6
ByLayer
 62
    3
370
   -1
100
AcDbSpline
210
0
220
0
230
0
 70
    8
 71
    3
 72
    8
 73
    4
 74
    0
 42
1e-07
 43
1e-07
 40
0
 40
0
 40
0
 40
0
 40
1
 40
1
 40
1
 40
1
 10
46.481367
 20
65.817942
 30
0
 10
46.448895
 20
65.811106
 30
0
 10
46.414884
 20
65.80085099999999
 30
0
 10
46.379334
 20
65.787178
 30
0
  0
LINE
  5
1FB
100
AcDbEntity
  8
0
  6
ByLayer
 62
    3
370
   -1
100
AcDbLine
 10
46.379334
 20
65.787178
 11
46.379334
 21
65.882546
  0
SPLINE
  5
1FC
100
AcDbEntity
  8
0
  6
ByLayer
 62
    3
370
   -1
100
AcDbSpline
210
0
220
0
230
0
 70
    8
 71
    3
 72
    8
 73
    4
 74
    0
 42
1e-07
 43
1e-07
 40
0
 40
0
 40
0
 40
0
 40
1
 40
1
 40
1
 40
1
 10
46.379334
 20
65.882546
 30
0
 10
46.420694
 20
65.893484
 30
0
 10
46.45744
 20
65.901687
 30
0
 10
46.48957
 20
65.907157
 30
0
  0
SPLINE
  5
1FD
100
AcDbEntity
  8
0
  6
ByLayer
 62
    3
370
   -1
100
AcDbSpline
210
0
220
0
230
0
 70
    8
 71
    3
 72
    8
 73
    4
 74
    0
 42
1e-07
 43
1e-07
 40
0
 40
0
 40
0
 40
0
 40
1
 40
1
 40
1
 40
1
 10
46.48957
 20
65.907157
 30
0
 10
46.522043
 20
65.912626
 30
0
 10
46.550756
 20
65.91536000000001
 30
0
 10
46.575709
 20
65.91536000000001
 30
0
  0
SPLINE
  5
1FE
100
AcDbEntity
  8
0
  6
ByLayer
 62
    3
370
   -1
100
AcDbSpline
210
0
220
0
230
0
 70
    8
 71
    3
 72
    8
 73
    4
 74
    0
 42
1e-07
 43
1e-07
 40
0
 40
0
 40
0
 40
0
 40
1
 40
1
 40
1
 40
1
 10
46.575709
 20
65.91536000000001
 30
0
 10
46.650225
 20
65.91536000000001
 30
0
 10
46.709701
 20
65.89655999999999
 30
0
 10
46.754138
 20
65.85896
 30
0
  0
SPLINE
  5
1FF
100
AcDbEntity
  8
0
  6
ByLayer
 62
    3
370
   -1
100
AcDbSpline
210
0
220
0
230
0
 70
    8
 71
    3
 72
    8
 73
    4
 74
    0
 42
1e-07
 43
1e-07
 40
0
 40
0
 40
0
 40
0
 40
1
 40
1
 40
1
 40
1
 10
46.754138
 20
65.85896
 30
0
 10
46.798916
 20
65.821702
 30
0
 10
46.821305
 20
65.772138
 30
0
 10
46.821305
 20
65.710269
 30
0
  0
SPLINE
  5
200
100
AcDbEntity
  8
0
  6
ByLayer
 62
    3
370
   -1
100
AcDbSpline
210
0
220
0
230
0
 70
    8
 71
    3
 72
    8
 73
    4
 74
    0
 42
1e-07
 43
1e-07
 40
0
 40
0
 40
0
 40
0
 40
1
 40
1
 40
1
 40
1
 10
46.821305
 20
65.710269
 30
0
 10
46.821305
 20
65.668226
 30
0
 10
46.809512
 20
65.633189
 30
0
 10
46.785927
 20
65.60516
 30
0
  0
SPLINE
  5
201
100
AcDbEntity
  8
0
  6
ByLayer
 62
    3
370
   -1
100
AcDbSpline
210
0
220
0
230
0
 70
    8
 71
    3
 72
    8
 73
    4
 74
    0
 42
1e-07
 43
1e-07
 40
0
 40
0
 40
0
 40
0
 40
1
 40
1
 40
1
 40
1
 10
46.785927
 20
65.60516
 30
0
 10
46.762683
 20
65.57713099999999
 30
0
 10
46.728672
 20
65.557306
 30
0
 10
46.683894
 20
65.54568399999999
 30
0
  0
LINE
  5
202
100
AcDbEntity
  8
0
  6
ByLayer
 62
    3
370
   -1
100
AcDbLine
 10
46.683894
 20
65.54568399999999
 11
46.683894
 21
65.54568399999999
  0
SPLINE
  5
203
100
AcDbEntity
  8
0
  6
ByLayer
 62
    3
370
   -1
100
AcDbSpline
210
0
220
0
230
0
 70
    8
 71
    3
 72
    8
 73
    4
 74
    0
 42
1e-07
 43
1e-07
 40
0
 40
0
 40
0
 40
0
 40
1
 40
1
 40
1
 40
1
 10
47.165345
 20
65.52056
 30
0
 10
47.165345
 20
65.53936
 30
0
 10
47.17184
 20
65.55559700000001
 30
0
 10
47.184829
 20
65.56926900000001
 30
0
  0
SPLINE
  5
204
100
AcDbEntity
  8
0
  6
ByLayer
 62
    3
370
   -1
100
AcDbSpline
210
0
220
0
230
0
 70
    8
 71
    3
 72
    8
 73
    4
 74
    0
 42
1e-07
 43
1e-07
 40
0
 40
0
 40
0
 40
0
 40
1
 40
1
 40
1
 40
1
 10
47.184829
 20
65.56926900000001
 30
0
 10
47.19816
 20
65.582942
 30
0
 10
47.214054
 20
65.58977899999999
 30
0
 10
47.232512
 20
65.58977899999999
 30
0
  0
SPLINE
  5
205
100
AcDbEntity
  8
0
  6
ByLayer
 62
    3
370
   -1
100
AcDbSpline
210
0
220
0
230
0
 70
    8
 71
    3
 72
    8
 73
    4
 74
    0
 42
1e-07
 43
1e-07
 40
0
 40
0
 40
0
 40
0
 40
1
 40
1
 40
1
 40
1
 10
47.232512
 20
65.58977899999999
 30
0
 10
47.251654
 20
65.58977899999999
 30
0
 10
47.268061
 20
65.582942
 30
0
 10
47.281734
 20
65.56926900000001
 30
0
  0
SPLINE
  5
206
100
AcDbEntity
  8
0
  6
ByLayer
 62
    3
370
   -1
100
AcDbSpline
210
0
220
0
230
0
 70
    8
 71
    3
 72
    8
 73
    4
 74
    0
 42
1e-07
 43
1e-07
 40
0
 40
0
 40
0
 40
0
 40
1
 40
1
 40
1
 40
1
 10
47.281734
 20
65.56926900000001
 30
0
 10
47.295407
 20
65.55559700000001
 30
0
 10
47.302243
 20
65.53936
 30
0
 10
47.302243
 20
65.52056
 30
0
  0
SPLINE
  5
207
100
AcDbEntity
  8
0
  6
ByLayer
 62
    3
370
   -1
100
AcDbSpline
210
0
220
0
230
0
 70
    8
 71
    3
 72
    8
 73
    4
 74
    0
 42
1e-07
 43
1e-07
 40
0
 40
0
 40
0
 40
0
 40
1
 40
1
 40
1
 40
1
 10
47.302243
 20
65.52056
 30
0
 10
47.302243
 20
65.501419
 30
0
 10
47.295407
 20
65.48518199999999
 30
0
 10
47.281734
 20
65.471851
 30
0
  0
SPLINE
  5
208
100
AcDbEntity
  8
0
  6
ByLayer
 62
    3
370
   -1
100
AcDbSpline
210
0
220
0
230
0
 70
    8
 71
    3
 72
    8
 73
    4
 74
    0
 42
1e-07
 43
1e-07
 40
0
 40
0
 40
0
 40
0
 40
1
 40
1
 40
1
 40
1
 10
47.281734
 20
65.471851
 30
0
 10
47.268403
 20
65.45851999999999
 30
0
 10
47.251996
 20
65.45185499999999
 30
0
 10
47.232512
 20
65.45185499999999
 30
0
  0
SPLINE
  5
209
100
AcDbEntity
  8
0
  6
ByLayer
 62
    3
370
   -1
100
AcDbSpline
210
0
220
0
230
0
 70
    8
 71
    3
 72
    8
 73
    4
 74
    0
 42
1e-07
 43
1e-07
 40
0
 40
0
 40
0
 40
0
 40
1
 40
1
 40
1
 40
1
 10
47.232512
 20
65.45185499999999
 30
0
 10
47.21337
 20
65.45185499999999
 30
0
 10
47.197305
 20
65.458349
 30
0
 10
47.184316
 20
65.471339
 30
0
  0
SPLINE
  5
20A
100
AcDbEntity
  8
0
  6
ByLayer
 62
    3
370
   -1
100
AcDbSpline
210
0
220
0
230
0
 70
    8
 71
    3
 72
    8
 73
    4
 74
    0
 42
1e-07
 43
1e-07
 40
0
 40
0
 40
0
 40
0
 40
1
 40
1
 40
1
 40
1
 10
47.184316
 20
65.471339
 30
0
 10
47.171669
 20
65.484328
 30
0
 10
47.165345
 20
65.50073500000001
 30
0
 10
47.165345
 20
65.52056
 30
0
  0
LINE
  5
20B
100
AcDbEntity
  8
0
  6
ByLayer
 62
    3
370
   -1
100
AcDbLine
 10
47.165345
 20
65.52056
 11
47.165345
 21
65.52056
  0
SPLINE
  5
20C
100
AcDbEntity
  8
0
  6
ByLayer
 62
    3
370
   -1
100
AcDbSpline
210
0
220
0
230
0
 70
    8
 71
    3
 72
    8
 73
    4
 74
    0
 42
1e-07
 43
1e-07
 40
0
 40
0
 40
0
 40
0
 40
1
 40
1
 40
1
 40
1
 10
47.233538
 20
65.833324
 30
0
 10
47.185341
 20
65.833324
 30
0
 10
47.14928
 20
65.807346
 30
0
 10
47.125353
 20
65.75538899999999
 30
0
  0
SPLINE
  5
20D
100
AcDbEntity
  8
0
  6
ByLayer
 62
    3
370
   -1
100
AcDbSpline
210
0
220
0
230
0
 70
    8
 71
    3
 72
    8
 73
    4
 74
    0
 42
1e-07
 43
1e-07
 40
0
 40
0
 40
0
 40
0
 40
1
 40
1
 40
1
 40
1
 10
47.125353
 20
65.75538899999999
 30
0
 10
47.101767
 20
65.703433
 30
0
 10
47.089974
 20
65.624302
 30
0
 10
47.089974
 20
65.51799699999999
 30
0
  0
SPLINE
  5
20E
100
AcDbEntity
  8
0
  6
ByLayer
 62
    3
370
   -1
100
AcDbSpline
210
0
220
0
230
0
 70
    8
 71
    3
 72
    8
 73
    4
 74
    0
 42
1e-07
 43
1e-07
 40
0
 40
0
 40
0
 40
0
 40
1
 40
1
 40
1
 40
1
 10
47.089974
 20
65.51799699999999
 30
0
 10
47.089974
 20
65.41203299999999
 30
0
 10
47.101767
 20
65.333073
 30
0
 10
47.125353
 20
65.28111699999999
 30
0
  0
SPLINE
  5
20F
100
AcDbEntity
  8
0
  6
ByLayer
 62
    3
370
   -1
100
AcDbSpline
210
0
220
0
230
0
 70
    8
 71
    3
 72
    8
 73
    4
 74
    0
 42
1e-07
 43
1e-07
 40
0
 40
0
 40
0
 40
0
 40
1
 40
1
 40
1
 40
1
 10
47.125353
 20
65.28111699999999
 30
0
 10
47.14928
 20
65.22915999999999
 30
0
 10
47.185341
 20
65.203182
 30
0
 10
47.233538
 20
65.203182
 30
0
  0
SPLINE
  5
210
100
AcDbEntity
  8
0
  6
ByLayer
 62
    3
370
   -1
100
AcDbSpline
210
0
220
0
230
0
 70
    8
 71
    3
 72
    8
 73
    4
 74
    0
 42
1e-07
 43
1e-07
 40
0
 40
0
 40
0
 40
0
 40
1
 40
1
 40
1
 40
1
 10
47.233538
 20
65.203182
 30
0
 10
47.282076
 20
65.203182
 30
0
 10
47.318138
 20
65.22915999999999
 30
0
 10
47.341723
 20
65.28111699999999
 30
0
  0
SPLINE
  5
211
100
AcDbEntity
  8
0
  6
ByLayer
 62
    3
370
   -1
100
AcDbSpline
210
0
220
0
230
0
 70
    8
 71
    3
 72
    8
 73
    4
 74
    0
 42
1e-07
 43
1e-07
 40
0
 40
0
 40
0
 40
0
 40
1
 40
1
 40
1
 40
1
 10
47.341723
 20
65.28111699999999
 30
0
 10
47.36565
 20
65.333073
 30
0
 10
47.377614
 20
65.41203299999999
 30
0
 10
47.377614
 20
65.51799699999999
 30
0
  0
SPLINE
  5
212
100
AcDbEntity
  8
0
  6
ByLayer
 62
    3
370
   -1
100
AcDbSpline
210
0
220
0
230
0
 70
    8
 71
    3
 72
    8
 73
    4
 74
    0
 42
1e-07
 43
1e-07
 40
0
 40
0
 40
0
 40
0
 40
1
 40
1
 40
1
 40
1
 10
47.377614
 20
65.51799699999999
 30
0
 10
47.377614
 20
65.624302
 30
0
 10
47.36565
 20
65.703433
 30
0
 10
47.341723
 20
65.75538899999999
 30
0
  0
SPLINE
  5
213
100
AcDbEntity
  8
0
  6
ByLayer
 62
    3
370
   -1
100
AcDbSpline
210
0
220
0
230
0
 70
    8
 71
    3
 72
    8
 73
    4
 74
    0
 42
1e-07
 43
1e-07
 40
0
 40
0
 40
0
 40
0
 40
1
 40
1
 40
1
 40
1
 10
47.341723
 20
65.75538899999999
 30
0
 10
47.318138
 20
65.807346
 30
0
 10
47.282076
 20
65.833324
 30
0
 10
47.233538
 20
65.833324
 30
0
  0
LINE
  5
214
100
AcDbEntity
  8
0
  6
ByLayer
 62
    3
370
   -1
100
AcDbLine
 10
47.233538
 20
65.833324
 11
47.233538
 21
65.833324
  0
SPLINE
  5
215
100
AcDbEntity
  8
0
  6
ByLayer
 62
    3
370
   -1
100
AcDbSpline
210
0
220
0
230
0
 70
    8
 71
    3
 72
    8
 73
    4
 74
    0
 42
1e-07
 43
1e-07
 40
0
 40
0
 40
0
 40
0
 40
1
 40
1
 40
1
 40
1
 10
47.233538
 20
65.91536000000001
 30
0
 10
47.315232
 20
65.91536000000001
 30
0
 10
47.37693
 20
65.881862
 30
0
 10
47.418632
 20
65.81486599999999
 30
0
  0
SPLINE
  5
216
100
AcDbEntity
  8
0
  6
ByLayer
 62
    3
370
   -1
100
AcDbSpline
210
0
220
0
230
0
 70
    8
 71
    3
 72
    8
 73
    4
 74
    0
 42
1e-07
 43
1e-07
 40
0
 40
0
 40
0
 40
0
 40
1
 40
1
 40
1
 40
1
 10
47.418632
 20
65.81486599999999
 30
0
 10
47.460676
 20
65.74786899999999
 30
0
 10
47.481698
 20
65.64891299999999
 30
0
 10
47.481698
 20
65.51799699999999
 30
0
  0
SPLINE
  5
217
100
AcDbEntity
  8
0
  6
ByLayer
 62
    3
370
   -1
100
AcDbSpline
210
0
220
0
230
0
 70
    8
 71
    3
 72
    8
 73
    4
 74
    0
 42
1e-07
 43
1e-07
 40
0
 40
0
 40
0
 40
0
 40
1
 40
1
 40
1
 40
1
 10
47.481698
 20
65.51799699999999
 30
0
 10
47.481698
 20
65.387422
 30
0
 10
47.460676
 20
65.28863699999999
 30
0
 10
47.418632
 20
65.22163999999999
 30
0
  0
SPLINE
  5
218
100
AcDbEntity
  8
0
  6
ByLayer
 62
    3
370
   -1
100
AcDbSpline
210
0
220
0
230
0
 70
    8
 71
    3
 72
    8
 73
    4
 74
    0
 42
1e-07
 43
1e-07
 40
0
 40
0
 40
0
 40
0
 40
1
 40
1
 40
1
 40
1
 10
47.418632
 20
65.22163999999999
 30
0
 10
47.37693
 20
65.154644
 30
0
 10
47.315232
 20
65.121146
 30
0
 10
47.233538
 20
65.121146
 30
0
  0
SPLINE
  5
219
100
AcDbEntity
  8
0
  6
ByLayer
 62
    3
370
   -1
100
AcDbSpline
210
0
220
0
230
0
 70
    8
 71
    3
 72
    8
 73
    4
 74
    0
 42
1e-07
 43
1e-07
 40
0
 40
0
 40
0
 40
0
 40
1
 40
1
 40
1
 40
1
 10
47.233538
 20
65.121146
 30
0
 10
47.151843
 20
65.121146
 30
0
 10
47.090145
 20
65.154644
 30
0
 10
47.048443
 20
65.22163999999999
 30
0
  0
SPLINE
  5
21A
100
AcDbEntity
  8
0
  6
ByLayer
 62
    3
370
   -1
100
AcDbSpline
210
0
220
0
230
0
 70
    8
 71
    3
 72
    8
 73
    4
 74
    0
 42
1e-07
 43
1e-07
 40
0
 40
0
 40
0
 40
0
 40
1
 40
1
 40
1
 40
1
 10
47.048443
 20
65.22163999999999
 30
0
 10
47.006741
 20
65.28863699999999
 30
0
 10
46.985891
 20
65.387422
 30
0
 10
46.985891
 20
65.51799699999999
 30
0
  0
SPLINE
  5
21B
100
AcDbEntity
  8
0
  6
ByLayer
 62
    3
370
   -1
100
AcDbSpline
210
0
220
0
230
0
 70
    8
 71
    3
 72
    8
 73
    4
 74
    0
 42
1e-07
 43
1e-07
 40
0
 40
0
 40
0
 40
0
 40
1
 40
1
 40
1
 40
1
 10
46.985891
 20
65.51799699999999
 30
0
 10
46.985891
 20
65.64891299999999
 30
0
 10
47.006741
 20
65.74786899999999
 30
0
 10
47.048443
 20
65.81486599999999
 30
0
  0
SPLINE
  5
21C
100
AcDbEntity
  8
0
  6
ByLayer
 62
    3
370
   -1
100
AcDbSpline
210
0
220
0
230
0
 70
    8
 71
    3
 72
    8
 73
    4
 74
    0
 42
1e-07
 43
1e-07
 40
0
 40
0
 40
0
 40
0
 40
1
 40
1
 40
1
 40
1
 10
47.048443
 20
65.81486599999999
 30
0
 10
47.090145
 20
65.881862
 30
0
 10
47.151843
 20
65.91536000000001
 30
0
 10
47.233538
 20
65.91536000000001
 30
0
  0
LINE
  5
21D
100
AcDbEntity
  8
0
  6
ByLayer
 62
    3
370
   -1
100
AcDbLine
 10
47.233538
 20
65.91536000000001
 11
47.233538
 21
65.91536000000001
  0
SPLINE
  5
21E
100
AcDbEntity
  8
0
  6
ByLayer
 62
    3
370
   -1
100
AcDbSpline
210
0
220
0
230
0
 70
    8
 71
    3
 72
    8
 73
    4
 74
    0
 42
1e-07
 43
1e-07
 40
0
 40
0
 40
0
 40
0
 40
1
 40
1
 40
1
 40
1
 10
47.797025
 20
65.52056
 30
0
 10
47.797025
 20
65.53936
 30
0
 10
47.803519
 20
65.55559700000001
 30
0
 10
47.816508
 20
65.56926900000001
 30
0
  0
SPLINE
  5
21F
100
AcDbEntity
  8
0
  6
ByLayer
 62
    3
370
   -1
100
AcDbSpline
210
0
220
0
230
0
 70
    8
 71
    3
 72
    8
 73
    4
 74
    0
 42
1e-07
 43
1e-07
 40
0
 40
0
 40
0
 40
0
 40
1
 40
1
 40
1
 40
1
 10
47.816508
 20
65.56926900000001
 30
0
 10
47.829839
 20
65.582942
 30
0
 10
47.845734
 20
65.58977899999999
 30
0
 10
47.864192
 20
65.58977899999999
 30
0
  0
SPLINE
  5
220
100
AcDbEntity
  8
0
  6
ByLayer
 62
    3
370
   -1
100
AcDbSpline
210
0
220
0
230
0
 70
    8
 71
    3
 72
    8
 73
    4
 74
    0
 42
1e-07
 43
1e-07
 40
0
 40
0
 40
0
 40
0
 40
1
 40
1
 40
1
 40
1
 10
47.864192
 20
65.58977899999999
 30
0
 10
47.883334
 20
65.58977899999999
 30
0
 10
47.899741
 20
65.582942
 30
0
 10
47.913414
 20
65.56926900000001
 30
0
  0
SPLINE
  5
221
100
AcDbEntity
  8
0
  6
ByLayer
 62
    3
370
   -1
100
AcDbSpline
210
0
220
0
230
0
 70
    8
 71
    3
 72
    8
 73
    4
 74
    0
 42
1e-07
 43
1e-07
 40
0
 40
0
 40
0
 40
0
 40
1
 40
1
 40
1
 40
1
 10
47.913414
 20
65.56926900000001
 30
0
 10
47.927087
 20
65.55559700000001
 30
0
 10
47.933923
 20
65.53936
 30
0
 10
47.933923
 20
65.52056
 30
0
  0
SPLINE
  5
222
100
AcDbEntity
  8
0
  6
ByLayer
 62
    3
370
   -1
100
AcDbSpline
210
0
220
0
230
0
 70
    8
 71
    3
 72
    8
 73
    4
 74
    0
 42
1e-07
 43
1e-07
 40
0
 40
0
 40
0
 40
0
 40
1
 40
1
 40
1
 40
1
 10
47.933923
 20
65.52056
 30
0
 10
47.933923
 20
65.501419
 30
0
 10
47.927087
 20
65.48518199999999
 30
0
 10
47.913414
 20
65.471851
 30
0
  0
SPLINE
  5
223
100
AcDbEntity
  8
0
  6
ByLayer
 62
    3
370
   -1
100
AcDbSpline
210
0
220
0
230
0
 70
    8
 71
    3
 72
    8
 73
    4
 74
    0
 42
1e-07
 43
1e-07
 40
0
 40
0
 40
0
 40
0
 40
1
 40
1
 40
1
 40
1
 10
47.913414
 20
65.471851
 30
0
 10
47.900083
 20
65.45851999999999
 30
0
 10
47.883676
 20
65.45185499999999
 30
0
 10
47.864192
 20
65.45185499999999
 30
0
  0
SPLINE
  5
224
100
AcDbEntity
  8
0
  6
ByLayer
 62
    3
370
   -1
100
AcDbSpline
210
0
220
0
230
0
 70
    8
 71
    3
 72
    8
 73
    4
 74
    0
 42
1e-07
 43
1e-07
 40
0
 40
0
 40
0
 40
0
 40
1
 40
1
 40
1
 40
1
 10
47.864192
 20
65.45185499999999
 30
0
 10
47.84505
 20
65.45185499999999
 30
0
 10
47.828985
 20
65.458349
 30
0
 10
47.815996
 20
65.471339
 30
0
  0
SPLINE
  5
225
100
AcDbEntity
  8
0
  6
ByLayer
 62
    3
370
   -1
100
AcDbSpline
210
0
220
0
230
0
 70
    8
 71
    3
 72
    8
 73
    4
 74
    0
 42
1e-07
 43
1e-07
 40
0
 40
0
 40
0
 40
0
 40
1
 40
1
 40
1
 40
1
 10
47.815996
 20
65.471339
 30
0
 10
47.803348
 20
65.484328
 30
0
 10
47.797025
 20
65.50073500000001
 30
0
 10
47.797025
 20
65.52056
 30
0
  0
LINE
  5
226
100
AcDbEntity
  8
0
  6
ByLayer
 62
    3
370
   -1
100
AcDbLine
 10
47.797025
 20
65.52056
 11
47.797025
 21
65.52056
  0
SPLINE
  5
227
100
AcDbEntity
  8
0
  6
ByLayer
 62
    3
370
   -1
100
AcDbSpline
210
0
220
0
230
0
 70
    8
 71
    3
 72
    8
 73
    4
 74
    0
 42
1e-07
 43
1e-07
 40
0
 40
0
 40
0
 40
0
 40
1
 40
1
 40
1
 40
1
 10
47.865217
 20
65.833324
 30
0
 10
47.817021
 20
65.833324
 30
0
 10
47.780959
 20
65.807346
 30
0
 10
47.757032
 20
65.75538899999999
 30
0
  0
SPLINE
  5
228
100
AcDbEntity
  8
0
  6
ByLayer
 62
    3
370
   -1
100
AcDbSpline
210
0
220
0
230
0
 70
    8
 71
    3
 72
    8
 73
    4
 74
    0
 42
1e-07
 43
1e-07
 40
0
 40
0
 40
0
 40
0
 40
1
 40
1
 40
1
 40
1
 10
47.757032
 20
65.75538899999999
 30
0
 10
47.733446
 20
65.703433
 30
0
 10
47.721654
 20
65.624302
 30
0
 10
47.721654
 20
65.51799699999999
 30
0
  0
SPLINE
  5
229
100
AcDbEntity
  8
0
  6
ByLayer
 62
    3
370
   -1
100
AcDbSpline
210
0
220
0
230
0
 70
    8
 71
    3
 72
    8
 73
    4
 74
    0
 42
1e-07
 43
1e-07
 40
0
 40
0
 40
0
 40
0
 40
1
 40
1
 40
1
 40
1
 10
47.721654
 20
65.51799699999999
 30
0
 10
47.721654
 20
65.41203299999999
 30
0
 10
47.733446
 20
65.333073
 30
0
 10
47.757032
 20
65.28111699999999
 30
0
  0
SPLINE
  5
22A
100
AcDbEntity
  8
0
  6
ByLayer
 62
    3
370
   -1
100
AcDbSpline
210
0
220
0
230
0
 70
    8
 71
    3
 72
    8
 73
    4
 74
    0
 42
1e-07
 43
1e-07
 40
0
 40
0
 40
0
 40
0
 40
1
 40
1
 40
1
 40
1
 10
47.757032
 20
65.28111699999999
 30
0
 10
47.780959
 20
65.22915999999999
 30
0
 10
47.817021
 20
65.203182
 30
0
 10
47.865217
 20
65.203182
 30
0
  0
SPLINE
  5
22B
100
AcDbEntity
  8
0
  6
ByLayer
 62
    3
370
   -1
100
AcDbSpline
210
0
220
0
230
0
 70
    8
 71
    3
 72
    8
 73
    4
 74
    0
 42
1e-07
 43
1e-07
 40
0
 40
0
 40
0
 40
0
 40
1
 40
1
 40
1
 40
1
 10
47.865217
 20
65.203182
 30
0
 10
47.913755
 20
65.203182
 30
0
 10
47.949817
 20
65.22915999999999
 30
0
 10
47.973403
 20
65.28111699999999
 30
0
  0
SPLINE
  5
22C
100
AcDbEntity
  8
0
  6
ByLayer
 62
    3
370
   -1
100
AcDbSpline
210
0
220
0
230
0
 70
    8
 71
    3
 72
    8
 73
    4
 74
    0
 42
1e-07
 43
1e-07
 40
0
 40
0
 40
0
 40
0
 40
1
 40
1
 40
1
 40
1
 10
47.973403
 20
65.28111699999999
 30
0
 10
47.99733
 20
65.333073
 30
0
 10
48.009294
 20
65.41203299999999
 30
0
 10
48.009294
 20
65.51799699999999
 30
0
  0
SPLINE
  5
22D
100
AcDbEntity
  8
0
  6
ByLayer
 62
    3
370
   -1
100
AcDbSpline
210
0
220
0
230
0
 70
    8
 71
    3
 72
    8
 73
    4
 74
    0
 42
1e-07
 43
1e-07
 40
0
 40
0
 40
0
 40
0
 40
1
 40
1
 40
1
 40
1
 10
48.009294
 20
65.51799699999999
 30
0
 10
48.009294
 20
65.624302
 30
0
 10
47.99733
 20
65.703433
 30
0
 10
47.973403
 20
65.75538899999999
 30
0
  0
SPLINE
  5
22E
100
AcDbEntity
  8
0
  6
ByLayer
 62
    3
370
   -1
100
AcDbSpline
210
0
220
0
230
0
 70
    8
 71
    3
 72
    8
 73
    4
 74
    0
 42
1e-07
 43
1e-07
 40
0
 40
0
 40
0
 40
0
 40
1
 40
1
 40
1
 40
1
 10
47.973403
 20
65.75538899999999
 30
0
 10
47.949817
 20
65.807346
 30
0
 10
47.913755
 20
65.833324
 30
0
 10
47.865217
 20
65.833324
 30
0
  0
LINE
  5
22F
100
AcDbEntity
  8
0
  6
ByLayer
 62
    3
370
   -1
100
AcDbLine
 10
47.865217
 20
65.833324
 11
47.865217
 21
65.833324
  0
SPLINE
  5
230
100
AcDbEntity
  8
0
  6
ByLayer
 62
    3
370
   -1
100
AcDbSpline
210
0
220
0
230
0
 70
    8
 71
    3
 72
    8
 73
    4
 74
    0
 42
1e-07
 43
1e-07
 40
0
 40
0
 40
0
 40
0
 40
1
 40
1
 40
1
 40
1
 10
47.865217
 20
65.91536000000001
 30
0
 10
47.946912
 20
65.91536000000001
 30
0
 10
48.00861
 20
65.881862
 30
0
 10
48.050312
 20
65.81486599999999
 30
0
  0
SPLINE
  5
231
100
AcDbEntity
  8
0
  6
ByLayer
 62
    3
370
   -1
100
AcDbSpline
210
0
220
0
230
0
 70
    8
 71
    3
 72
    8
 73
    4
 74
    0
 42
1e-07
 43
1e-07
 40
0
 40
0
 40
0
 40
0
 40
1
 40
1
 40
1
 40
1
 10
48.050312
 20
65.81486599999999
 30
0
 10
48.092356
 20
65.74786899999999
 30
0
 10
48.113378
 20
65.64891299999999
 30
0
 10
48.113378
 20
65.51799699999999
 30
0
  0
SPLINE
  5
232
100
AcDbEntity
  8
0
  6
ByLayer
 62
    3
370
   -1
100
AcDbSpline
210
0
220
0
230
0
 70
    8
 71
    3
 72
    8
 73
    4
 74
    0
 42
1e-07
 43
1e-07
 40
0
 40
0
 40
0
 40
0
 40
1
 40
1
 40
1
 40
1
 10
48.113378
 20
65.51799699999999
 30
0
 10
48.113378
 20
65.387422
 30
0
 10
48.092356
 20
65.28863699999999
 30
0
 10
48.050312
 20
65.22163999999999
 30
0
  0
SPLINE
  5
233
100
AcDbEntity
  8
0
  6
ByLayer
 62
    3
370
   -1
100
AcDbSpline
210
0
220
0
230
0
 70
    8
 71
    3
 72
    8
 73
    4
 74
    0
 42
1e-07
 43
1e-07
 40
0
 40
0
 40
0
 40
0
 40
1
 40
1
 40
1
 40
1
 10
48.050312
 20
65.22163999999999
 30
0
 10
48.00861
 20
65.154644
 30
0
 10
47.946912
 20
65.121146
 30
0
 10
47.865217
 20
65.121146
 30
0
  0
SPLINE
  5
234
100
AcDbEntity
  8
0
  6
ByLayer
 62
    3
370
   -1
100
AcDbSpline
210
0
220
0
230
0
 70
    8
 71
    3
 72
    8
 73
    4
 74
    0
 42
1e-07
 43
1e-07
 40
0
 40
0
 40
0
 40
0
 40
1
 40
1
 40
1
 40
1
 10
47.865217
 20
65.121146
 30
0
 10
47.783523
 20
65.121146
 30
0
 10
47.721825
 20
65.154644
 30
0
 10
47.680123
 20
65.22163999999999
 30
0
  0
SPLINE
  5
235
100
AcDbEntity
  8
0
  6
ByLayer
 62
    3
370
   -1
100
AcDbSpline
210
0
220
0
230
0
 70
    8
 71
    3
 72
    8
 73
    4
 74
    0
 42
1e-07
 43
1e-07
 40
0
 40
0
 40
0
 40
0
 40
1
 40
1
 40
1
 40
1
 10
47.680123
 20
65.22163999999999
 30
0
 10
47.638421
 20
65.28863699999999
 30
0
 10
47.617571
 20
65.387422
 30
0
 10
47.617571
 20
65.51799699999999
 30
0
  0
SPLINE
  5
236
100
AcDbEntity
  8
0
  6
ByLayer
 62
    3
370
   -1
100
AcDbSpline
210
0
220
0
230
0
 70
    8
 71
    3
 72
    8
 73
    4
 74
    0
 42
1e-07
 43
1e-07
 40
0
 40
0
 40
0
 40
0
 40
1
 40
1
 40
1
 40
1
 10
47.617571
 20
65.51799699999999
 30
0
 10
47.617571
 20
65.64891299999999
 30
0
 10
47.638421
 20
65.74786899999999
 30
0
 10
47.680123
 20
65.81486599999999
 30
0
  0
SPLINE
  5
237
100
AcDbEntity
  8
0
  6
ByLayer
 62
    3
370
   -1
100
AcDbSpline
210
0
220
0
230
0
 70
    8
 71
    3
 72
    8
 73
    4
 74
    0
 42
1e-07
 43
1e-07
 40
0
 40
0
 40
0
 40
0
 40
1
 40
1
 40
1
 40
1
 10
47.680123
 20
65.81486599999999
 30
0
 10
47.721825
 20
65.881862
 30
0
 10
47.783523
 20
65.91536000000001
 30
0
 10
47.865217
 20
65.91536000000001
 30
0
  0
LINE
  5
238
100
AcDbEntity
  8
0
  6
ByLayer
 62
    3
370
   -1
100
AcDbLine
 10
47.865217
 20
65.91536000000001
 11
47.865217
 21
65.91536000000001
  0
LINE
  5
239
100
AcDbEntity
  8
0
  6
ByLayer
 62
    3
370
   -1
100
AcDbLine
 10
49.385966
 20
65.710269
 11
49.180362
 21
65.43544799999999
  0
LINE
  5
23A
100
AcDbEntity
  8
0
  6
ByLayer
 62
    3
370
   -1
100
AcDbLine
 10
49.180362
 20
65.43544799999999
 11
49.405962
 21
65.136015
  0
LINE
  5
23B
100
AcDbEntity
  8
0
  6
ByLayer
 62
    3
370
   -1
100
AcDbLine
 10
49.405962
 20
65.136015
 11
49.296751
 21
65.136015
  0
LINE
  5
23C
100
AcDbEntity
  8
0
  6
ByLayer
 62
    3
370
   -1
100
AcDbLine
 10
49.296751
 20
65.136015
 11
49.128577
 21
65.366229
  0
LINE
  5
23D
100
AcDbEntity
  8
0
  6
ByLayer
 62
    3
370
   -1
100
AcDbLine
 10
49.128577
 20
65.366229
 11
48.960915
 21
65.136015
  0
LINE
  5
23E
100
AcDbEntity
  8
0
  6
ByLayer
 62
    3
370
   -1
100
AcDbLine
 10
48.960915
 20
65.136015
 11
48.851704
 21
65.136015
  0
LINE
  5
23F
100
AcDbEntity
  8
0
  6
ByLayer
 62
    3
370
   -1
100
AcDbLine
 10
48.851704
 20
65.136015
 11
49.077305
 21
65.43544799999999
  0
LINE
  5
240
100
AcDbEntity
  8
0
  6
ByLayer
 62
    3
370
   -1
100
AcDbLine
 10
49.077305
 20
65.43544799999999
 11
48.871701
 21
65.710269
  0
LINE
  5
241
100
AcDbEntity
  8
0
  6
ByLayer
 62
    3
370
   -1
100
AcDbLine
 10
48.871701
 20
65.710269
 11
48.976297
 21
65.710269
  0
LINE
  5
242
100
AcDbEntity
  8
0
  6
ByLayer
 62
    3
370
   -1
100
AcDbLine
 10
48.976297
 20
65.710269
 11
49.128577
 21
65.50261500000001
  0
LINE
  5
243
100
AcDbEntity
  8
0
  6
ByLayer
 62
    3
370
   -1
100
AcDbLine
 10
49.128577
 20
65.50261500000001
 11
49.279831
 21
65.710269
  0
LINE
  5
244
100
AcDbEntity
  8
0
  6
ByLayer
 62
    3
370
   -1
100
AcDbLine
 10
49.279831
 20
65.710269
 11
49.385966
 21
65.710269
  0
LINE
  5
245
100
AcDbEntity
  8
0
  6
ByLayer
 62
    3
370
   -1
100
AcDbLine
 10
50.214533
 20
65.223179
 11
50.375529
 21
65.223179
  0
LINE
  5
246
100
AcDbEntity
  8
0
  6
ByLayer
 62
    3
370
   -1
100
AcDbLine
 10
50.375529
 20
65.223179
 11
50.375529
 21
65.8082
  0
LINE
  5
247
100
AcDbEntity
  8
0
  6
ByLayer
 62
    3
370
   -1
100
AcDbLine
 10
50.375529
 20
65.8082
 11
50.202227
 21
65.769233
  0
LINE
  5
248
100
AcDbEntity
  8
0
  6
ByLayer
 62
    3
370
   -1
100
AcDbLine
 10
50.202227
 20
65.769233
 11
50.202227
 21
65.863575
  0
LINE
  5
249
100
AcDbEntity
  8
0
  6
ByLayer
 62
    3
370
   -1
100
AcDbLine
 10
50.202227
 20
65.863575
 11
50.374504
 21
65.901517
  0
LINE
  5
24A
100
AcDbEntity
  8
0
  6
ByLayer
 62
    3
370
   -1
100
AcDbLine
 10
50.374504
 20
65.901517
 11
50.478075
 21
65.901517
  0
LINE
  5
24B
100
AcDbEntity
  8
0
  6
ByLayer
 62
    3
370
   -1
100
AcDbLine
 10
50.478075
 20
65.901517
 11
50.478075
 21
65.223179
  0
LINE
  5
24C
100
AcDbEntity
  8
0
  6
ByLayer
 62
    3
370
   -1
100
AcDbLine
 10
50.478075
 20
65.223179
 11
50.63702
 21
65.223179
  0
LINE
  5
24D
100
AcDbEntity
  8
0
  6
ByLayer
 62
    3
370
   -1
100
AcDbLine
 10
50.63702
 20
65.223179
 11
50.63702
 21
65.136015
  0
LINE
  5
24E
100
AcDbEntity
  8
0
  6
ByLayer
 62
    3
370
   -1
100
AcDbLine
 10
50.63702
 20
65.136015
 11
50.214533
 21
65.136015
  0
LINE
  5
24F
100
AcDbEntity
  8
0
  6
ByLayer
 62
    3
370
   -1
100
AcDbLine
 10
50.214533
 20
65.136015
 11
50.214533
 21
65.223179
  0
LINE
  5
250
100
AcDbEntity
  8
0
  6
ByLayer
 62
    3
370
   -1
100
AcDbLine
 10
50.813911
 20
65.901517
 11
51.201533
 21
65.901517
  0
LINE
  5
251
100
AcDbEntity
  8
0
  6
ByLayer
 62
    3
370
   -1
100
AcDbLine
 10
51.201533
 20
65.901517
 11
51.201533
 21
65.814353
  0
LINE
  5
252
100
AcDbEntity
  8
0
  6
ByLayer
 62
    3
370
   -1
100
AcDbLine
 10
51.201533
 20
65.814353
 11
50.908253
 21
65.814353
  0
LINE
  5
253
100
AcDbEntity
  8
0
  6
ByLayer
 62
    3
370
   -1
100
AcDbLine
 10
50.908253
 20
65.814353
 11
50.908253
 21
65.626182
  0
SPLINE
  5
254
100
AcDbEntity
  8
0
  6
ByLayer
 62
    3
370
   -1
100
AcDbSpline
210
0
220
0
230
0
 70
    8
 71
    3
 72
    8
 73
    4
 74
    0
 42
1e-07
 43
1e-07
 40
0
 40
0
 40
0
 40
0
 40
1
 40
1
 40
1
 40
1
 10
50.908253
 20
65.626182
 30
0
 10
50.922951
 20
65.63165100000001
 30
0
 10
50.937649
 20
65.635582
 30
0
 10
50.952347
 20
65.637975
 30
0
  0
SPLINE
  5
255
100
AcDbEntity
  8
0
  6
ByLayer
 62
    3
370
   -1
100
AcDbSpline
210
0
220
0
230
0
 70
    8
 71
    3
 72
    8
 73
    4
 74
    0
 42
1e-07
 43
1e-07
 40
0
 40
0
 40
0
 40
0
 40
1
 40
1
 40
1
 40
1
 10
50.952347
 20
65.637975
 30
0
 10
50.967387
 20
65.640709
 30
0
 10
50.982427
 20
65.642076
 30
0
 10
50.997468
 20
65.642076
 30
0
  0
SPLINE
  5
256
100
AcDbEntity
  8
0
  6
ByLayer
 62
    3
370
   -1
100
AcDbSpline
210
0
220
0
230
0
 70
    8
 71
    3
 72
    8
 73
    4
 74
    0
 42
1e-07
 43
1e-07
 40
0
 40
0
 40
0
 40
0
 40
1
 40
1
 40
1
 40
1
 10
50.997468
 20
65.642076
 30
0
 10
51.076769
 20
65.642076
 30
0
 10
51.139663
 20
65.618662
 30
0
 10
51.186151
 20
65.571833
 30
0
  0
SPLINE
  5
257
100
AcDbEntity
  8
0
  6
ByLayer
 62
    3
370
   -1
100
AcDbSpline
210
0
220
0
230
0
 70
    8
 71
    3
 72
    8
 73
    4
 74
    0
 42
1e-07
 43
1e-07
 40
0
 40
0
 40
0
 40
0
 40
1
 40
1
 40
1
 40
1
 10
51.186151
 20
65.571833
 30
0
 10
51.232638
 20
65.525004
 30
0
 10
51.255882
 20
65.461596
 30
0
 10
51.255882
 20
65.38161100000001
 30
0
  0
SPLINE
  5
258
100
AcDbEntity
  8
0
  6
ByLayer
 62
    3
370
   -1
100
AcDbSpline
210
0
220
0
230
0
 70
    8
 71
    3
 72
    8
 73
    4
 74
    0
 42
1e-07
 43
1e-07
 40
0
 40
0
 40
0
 40
0
 40
1
 40
1
 40
1
 40
1
 10
51.255882
 20
65.38161100000001
 30
0
 10
51.255882
 20
65.30094200000001
 30
0
 10
51.231442
 20
65.237364
 30
0
 10
51.182562
 20
65.190877
 30
0
  0
SPLINE
  5
259
100
AcDbEntity
  8
0
  6
ByLayer
 62
    3
370
   -1
100
AcDbSpline
210
0
220
0
230
0
 70
    8
 71
    3
 72
    8
 73
    4
 74
    0
 42
1e-07
 43
1e-07
 40
0
 40
0
 40
0
 40
0
 40
1
 40
1
 40
1
 40
1
 10
51.182562
 20
65.190877
 30
0
 10
51.134024
 20
65.144389
 30
0
 10
51.06754
 20
65.121146
 30
0
 10
50.983111
 20
65.121146
 30
0
  0
SPLINE
  5
25A
100
AcDbEntity
  8
0
  6
ByLayer
 62
    3
370
   -1
100
AcDbSpline
210
0
220
0
230
0
 70
    8
 71
    3
 72
    8
 73
    4
 74
    0
 42
1e-07
 43
1e-07
 40
0
 40
0
 40
0
 40
0
 40
1
 40
1
 40
1
 40
1
 10
50.983111
 20
65.121146
 30
0
 10
50.942435
 20
65.121146
 30
0
 10
50.905177
 20
65.12388
 30
0
 10
50.871337
 20
65.129349
 30
0
  0
SPLINE
  5
25B
100
AcDbEntity
  8
0
  6
ByLayer
 62
    3
370
   -1
100
AcDbSpline
210
0
220
0
230
0
 70
    8
 71
    3
 72
    8
 73
    4
 74
    0
 42
1e-07
 43
1e-07
 40
0
 40
0
 40
0
 40
0
 40
1
 40
1
 40
1
 40
1
 10
50.871337
 20
65.129349
 30
0
 10
50.837838
 20
65.134818
 30
0
 10
50.807758
 20
65.143022
 30
0
 10
50.781097
 20
65.15396
 30
0
  0
LINE
  5
25C
100
AcDbEntity
  8
0
  6
ByLayer
 62
    3
370
   -1
100
AcDbLine
 10
50.781097
 20
65.15396
 11
50.781097
 21
65.259069
  0
SPLINE
  5
25D
100
AcDbEntity
  8
0
  6
ByLayer
 62
    3
370
   -1
100
AcDbSpline
210
0
220
0
230
0
 70
    8
 71
    3
 72
    8
 73
    4
 74
    0
 42
1e-07
 43
1e-07
 40
0
 40
0
 40
0
 40
0
 40
1
 40
1
 40
1
 40
1
 10
50.781097
 20
65.259069
 30
0
 10
50.812544
 20
65.241978
 30
0
 10
50.844162
 20
65.22915999999999
 30
0
 10
50.875951
 20
65.220615
 30
0
  0
SPLINE
  5
25E
100
AcDbEntity
  8
0
  6
ByLayer
 62
    3
370
   -1
100
AcDbSpline
210
0
220
0
230
0
 70
    8
 71
    3
 72
    8
 73
    4
 74
    0
 42
1e-07
 43
1e-07
 40
0
 40
0
 40
0
 40
0
 40
1
 40
1
 40
1
 40
1
 10
50.875951
 20
65.220615
 30
0
 10
50.90774
 20
65.212411
 30
0
 10
50.940213
 20
65.208309
 30
0
 10
50.973369
 20
65.208309
 30
0
  0
SPLINE
  5
25F
100
AcDbEntity
  8
0
  6
ByLayer
 62
    3
370
   -1
100
AcDbSpline
210
0
220
0
230
0
 70
    8
 71
    3
 72
    8
 73
    4
 74
    0
 42
1e-07
 43
1e-07
 40
0
 40
0
 40
0
 40
0
 40
1
 40
1
 40
1
 40
1
 10
50.973369
 20
65.208309
 30
0
 10
51.030453
 20
65.208309
 30
0
 10
51.074376
 20
65.223349
 30
0
 10
51.10514
 20
65.253429
 30
0
  0
SPLINE
  5
260
100
AcDbEntity
  8
0
  6
ByLayer
 62
    3
370
   -1
100
AcDbSpline
210
0
220
0
230
0
 70
    8
 71
    3
 72
    8
 73
    4
 74
    0
 42
1e-07
 43
1e-07
 40
0
 40
0
 40
0
 40
0
 40
1
 40
1
 40
1
 40
1
 10
51.10514
 20
65.253429
 30
0
 10
51.136246
 20
65.283509
 30
0
 10
51.151798
 20
65.32623599999999
 30
0
 10
51.151798
 20
65.38161100000001
 30
0
  0
SPLINE
  5
261
100
AcDbEntity
  8
0
  6
ByLayer
 62
    3
370
   -1
100
AcDbSpline
210
0
220
0
230
0
 70
    8
 71
    3
 72
    8
 73
    4
 74
    0
 42
1e-07
 43
1e-07
 40
0
 40
0
 40
0
 40
0
 40
1
 40
1
 40
1
 40
1
 10
51.151798
 20
65.38161100000001
 30
0
 10
51.151798
 20
65.436302
 30
0
 10
51.135733
 20
65.478858
 30
0
 10
51.103602
 20
65.50928
 30
0
  0
SPLINE
  5
262
100
AcDbEntity
  8
0
  6
ByLayer
 62
    3
370
   -1
100
AcDbSpline
210
0
220
0
230
0
 70
    8
 71
    3
 72
    8
 73
    4
 74
    0
 42
1e-07
 43
1e-07
 40
0
 40
0
 40
0
 40
0
 40
1
 40
1
 40
1
 40
1
 10
51.103602
 20
65.50928
 30
0
 10
51.071813
 20
65.53970200000001
 30
0
 10
51.027376
 20
65.554913
 30
0
 10
50.970293
 20
65.554913
 30
0
  0
SPLINE
  5
263
100
AcDbEntity
  8
0
  6
ByLayer
 62
    3
370
   -1
100
AcDbSpline
210
0
220
0
230
0
 70
    8
 71
    3
 72
    8
 73
    4
 74
    0
 42
1e-07
 43
1e-07
 40
0
 40
0
 40
0
 40
0
 40
1
 40
1
 40
1
 40
1
 10
50.970293
 20
65.554913
 30
0
 10
50.942605
 20
65.554913
 30
0
 10
50.915602
 20
65.551666
 30
0
 10
50.889282
 20
65.545171
 30
0
  0
SPLINE
  5
264
100
AcDbEntity
  8
0
  6
ByLayer
 62
    3
370
   -1
100
AcDbSpline
210
0
220
0
230
0
 70
    8
 71
    3
 72
    8
 73
    4
 74
    0
 42
1e-07
 43
1e-07
 40
0
 40
0
 40
0
 40
0
 40
1
 40
1
 40
1
 40
1
 10
50.889282
 20
65.545171
 30
0
 10
50.862962
 20
65.539018
 30
0
 10
50.837838
 20
65.529618
 30
0
 10
50.813911
 20
65.516971
 30
0
  0
LINE
  5
265
100
AcDbEntity
  8
0
  6
ByLayer
 62
    3
370
   -1
100
AcDbLine
 10
50.813911
 20
65.516971
 11
50.813911
 21
65.901517
  0
SPLINE
  5
266
100
AcDbEntity
  8
0
  6
ByLayer
 62
    3
370
   -1
100
AcDbSpline
210
0
220
0
230
0
 70
    8
 71
    3
 72
    8
 73
    4
 74
    0
 42
1e-07
 43
1e-07
 40
0
 40
0
 40
0
 40
0
 40
1
 40
1
 40
1
 40
1
 10
51.587104
 20
65.52056
 30
0
 10
51.587104
 20
65.53936
 30
0
 10
51.593598
 20
65.55559700000001
 30
0
 10
51.606587
 20
65.56926900000001
 30
0
  0
SPLINE
  5
267
100
AcDbEntity
  8
0
  6
ByLayer
 62
    3
370
   -1
100
AcDbSpline
210
0
220
0
230
0
 70
    8
 71
    3
 72
    8
 73
    4
 74
    0
 42
1e-07
 43
1e-07
 40
0
 40
0
 40
0
 40
0
 40
1
 40
1
 40
1
 40
1
 10
51.606587
 20
65.56926900000001
 30
0
 10
51.619918
 20
65.582942
 30
0
 10
51.635812
 20
65.58977899999999
 30
0
 10
51.654271
 20
65.58977899999999
 30
0
  0
SPLINE
  5
268
100
AcDbEntity
  8
0
  6
ByLayer
 62
    3
370
   -1
100
AcDbSpline
210
0
220
0
230
0
 70
    8
 71
    3
 72
    8
 73
    4
 74
    0
 42
1e-07
 43
1e-07
 40
0
 40
0
 40
0
 40
0
 40
1
 40
1
 40
1
 40
1
 10
51.654271
 20
65.58977899999999
 30
0
 10
51.673413
 20
65.58977899999999
 30
0
 10
51.68982
 20
65.582942
 30
0
 10
51.703493
 20
65.56926900000001
 30
0
  0
SPLINE
  5
269
100
AcDbEntity
  8
0
  6
ByLayer
 62
    3
370
   -1
100
AcDbSpline
210
0
220
0
230
0
 70
    8
 71
    3
 72
    8
 73
    4
 74
    0
 42
1e-07
 43
1e-07
 40
0
 40
0
 40
0
 40
0
 40
1
 40
1
 40
1
 40
1
 10
51.703493
 20
65.56926900000001
 30
0
 10
51.717165
 20
65.55559700000001
 30
0
 10
51.724001
 20
65.53936
 30
0
 10
51.724001
 20
65.52056
 30
0
  0
SPLINE
  5
26A
100
AcDbEntity
  8
0
  6
ByLayer
 62
    3
370
   -1
100
AcDbSpline
210
0
220
0
230
0
 70
    8
 71
    3
 72
    8
 73
    4
 74
    0
 42
1e-07
 43
1e-07
 40
0
 40
0
 40
0
 40
0
 40
1
 40
1
 40
1
 40
1
 10
51.724001
 20
65.52056
 30
0
 10
51.724001
 20
65.501419
 30
0
 10
51.717165
 20
65.48518199999999
 30
0
 10
51.703493
 20
65.471851
 30
0
  0
SPLINE
  5
26B
100
AcDbEntity
  8
0
  6
ByLayer
 62
    3
370
   -1
100
AcDbSpline
210
0
220
0
230
0
 70
    8
 71
    3
 72
    8
 73
    4
 74
    0
 42
1e-07
 43
1e-07
 40
0
 40
0
 40
0
 40
0
 40
1
 40
1
 40
1
 40
1
 10
51.703493
 20
65.471851
 30
0
 10
51.690162
 20
65.45851999999999
 30
0
 10
51.673754
 20
65.45185499999999
 30
0
 10
51.654271
 20
65.45185499999999
 30
0
  0
SPLINE
  5
26C
100
AcDbEntity
  8
0
  6
ByLayer
 62
    3
370
   -1
100
AcDbSpline
210
0
220
0
230
0
 70
    8
 71
    3
 72
    8
 73
    4
 74
    0
 42
1e-07
 43
1e-07
 40
0
 40
0
 40
0
 40
0
 40
1
 40
1
 40
1
 40
1
 10
51.654271
 20
65.45185499999999
 30
0
 10
51.635129
 20
65.45185499999999
 30
0
 10
51.619063
 20
65.458349
 30
0
 10
51.606074
 20
65.471339
 30
0
  0
SPLINE
  5
26D
100
AcDbEntity
  8
0
  6
ByLayer
 62
    3
370
   -1
100
AcDbSpline
210
0
220
0
230
0
 70
    8
 71
    3
 72
    8
 73
    4
 74
    0
 42
1e-07
 43
1e-07
 40
0
 40
0
 40
0
 40
0
 40
1
 40
1
 40
1
 40
1
 10
51.606074
 20
65.471339
 30
0
 10
51.593427
 20
65.484328
 30
0
 10
51.587104
 20
65.50073500000001
 30
0
 10
51.587104
 20
65.52056
 30
0
  0
LINE
  5
26E
100
AcDbEntity
  8
0
  6
ByLayer
 62
    3
370
   -1
100
AcDbLine
 10
51.587104
 20
65.52056
 11
51.587104
 21
65.52056
  0
SPLINE
  5
26F
100
AcDbEntity
  8
0
  6
ByLayer
 62
    3
370
   -1
100
AcDbSpline
210
0
220
0
230
0
 70
    8
 71
    3
 72
    8
 73
    4
 74
    0
 42
1e-07
 43
1e-07
 40
0
 40
0
 40
0
 40
0
 40
1
 40
1
 40
1
 40
1
 10
51.655296
 20
65.833324
 30
0
 10
51.6071
 20
65.833324
 30
0
 10
51.571038
 20
65.807346
 30
0
 10
51.547111
 20
65.75538899999999
 30
0
  0
SPLINE
  5
270
100
AcDbEntity
  8
0
  6
ByLayer
 62
    3
370
   -1
100
AcDbSpline
210
0
220
0
230
0
 70
    8
 71
    3
 72
    8
 73
    4
 74
    0
 42
1e-07
 43
1e-07
 40
0
 40
0
 40
0
 40
0
 40
1
 40
1
 40
1
 40
1
 10
51.547111
 20
65.75538899999999
 30
0
 10
51.523525
 20
65.703433
 30
0
 10
51.511733
 20
65.624302
 30
0
 10
51.511733
 20
65.51799699999999
 30
0
  0
SPLINE
  5
271
100
AcDbEntity
  8
0
  6
ByLayer
 62
    3
370
   -1
100
AcDbSpline
210
0
220
0
230
0
 70
    8
 71
    3
 72
    8
 73
    4
 74
    0
 42
1e-07
 43
1e-07
 40
0
 40
0
 40
0
 40
0
 40
1
 40
1
 40
1
 40
1
 10
51.511733
 20
65.51799699999999
 30
0
 10
51.511733
 20
65.41203299999999
 30
0
 10
51.523525
 20
65.333073
 30
0
 10
51.547111
 20
65.28111699999999
 30
0
  0
SPLINE
  5
272
100
AcDbEntity
  8
0
  6
ByLayer
 62
    3
370
   -1
100
AcDbSpline
210
0
220
0
230
0
 70
    8
 71
    3
 72
    8
 73
    4
 74
    0
 42
1e-07
 43
1e-07
 40
0
 40
0
 40
0
 40
0
 40
1
 40
1
 40
1
 40
1
 10
51.547111
 20
65.28111699999999
 30
0
 10
51.571038
 20
65.22915999999999
 30
0
 10
51.6071
 20
65.203182
 30
0
 10
51.655296
 20
65.203182
 30
0
  0
SPLINE
  5
273
100
AcDbEntity
  8
0
  6
ByLayer
 62
    3
370
   -1
100
AcDbSpline
210
0
220
0
230
0
 70
    8
 71
    3
 72
    8
 73
    4
 74
    0
 42
1e-07
 43
1e-07
 40
0
 40
0
 40
0
 40
0
 40
1
 40
1
 40
1
 40
1
 10
51.655296
 20
65.203182
 30
0
 10
51.703834
 20
65.203182
 30
0
 10
51.739896
 20
65.22915999999999
 30
0
 10
51.763482
 20
65.28111699999999
 30
0
  0
SPLINE
  5
274
100
AcDbEntity
  8
0
  6
ByLayer
 62
    3
370
   -1
100
AcDbSpline
210
0
220
0
230
0
 70
    8
 71
    3
 72
    8
 73
    4
 74
    0
 42
1e-07
 43
1e-07
 40
0
 40
0
 40
0
 40
0
 40
1
 40
1
 40
1
 40
1
 10
51.763482
 20
65.28111699999999
 30
0
 10
51.787409
 20
65.333073
 30
0
 10
51.799372
 20
65.41203299999999
 30
0
 10
51.799372
 20
65.51799699999999
 30
0
  0
SPLINE
  5
275
100
AcDbEntity
  8
0
  6
ByLayer
 62
    3
370
   -1
100
AcDbSpline
210
0
220
0
230
0
 70
    8
 71
    3
 72
    8
 73
    4
 74
    0
 42
1e-07
 43
1e-07
 40
0
 40
0
 40
0
 40
0
 40
1
 40
1
 40
1
 40
1
 10
51.799372
 20
65.51799699999999
 30
0
 10
51.799372
 20
65.624302
 30
0
 10
51.787409
 20
65.703433
 30
0
 10
51.763482
 20
65.75538899999999
 30
0
  0
SPLINE
  5
276
100
AcDbEntity
  8
0
  6
ByLayer
 62
    3
370
   -1
100
AcDbSpline
210
0
220
0
230
0
 70
    8
 71
    3
 72
    8
 73
    4
 74
    0
 42
1e-07
 43
1e-07
 40
0
 40
0
 40
0
 40
0
 40
1
 40
1
 40
1
 40
1
 10
51.763482
 20
65.75538899999999
 30
0
 10
51.739896
 20
65.807346
 30
0
 10
51.703834
 20
65.833324
 30
0
 10
51.655296
 20
65.833324
 30
0
  0
LINE
  5
277
100
AcDbEntity
  8
0
  6
ByLayer
 62
    3
370
   -1
100
AcDbLine
 10
51.655296
 20
65.833324
 11
51.655296
 21
65.833324
  0
SPLINE
  5
278
100
AcDbEntity
  8
0
  6
ByLayer
 62
    3
370
   -1
100
AcDbSpline
210
0
220
0
230
0
 70
    8
 71
    3
 72
    8
 73
    4
 74
    0
 42
1e-07
 43
1e-07
 40
0
 40
0
 40
0
 40
0
 40
1
 40
1
 40
1
 40
1
 10
51.655296
 20
65.91536000000001
 30
0
 10
51.736991
 20
65.91536000000001
 30
0
 10
51.798689
 20
65.881862
 30
0
 10
51.840391
 20
65.81486599999999
 30
0
  0
SPLINE
  5
279
100
AcDbEntity
  8
0
  6
ByLayer
 62
    3
370
   -1
100
AcDbSpline
210
0
220
0
230
0
 70
    8
 71
    3
 72
    8
 73
    4
 74
    0
 42
1e-07
 43
1e-07
 40
0
 40
0
 40
0
 40
0
 40
1
 40
1
 40
1
 40
1
 10
51.840391
 20
65.81486599999999
 30
0
 10
51.882434
 20
65.74786899999999
 30
0
 10
51.903456
 20
65.64891299999999
 30
0
 10
51.903456
 20
65.51799699999999
 30
0
  0
SPLINE
  5
27A
100
AcDbEntity
  8
0
  6
ByLayer
 62
    3
370
   -1
100
AcDbSpline
210
0
220
0
230
0
 70
    8
 71
    3
 72
    8
 73
    4
 74
    0
 42
1e-07
 43
1e-07
 40
0
 40
0
 40
0
 40
0
 40
1
 40
1
 40
1
 40
1
 10
51.903456
 20
65.51799699999999
 30
0
 10
51.903456
 20
65.387422
 30
0
 10
51.882434
 20
65.28863699999999
 30
0
 10
51.840391
 20
65.22163999999999
 30
0
  0
SPLINE
  5
27B
100
AcDbEntity
  8
0
  6
ByLayer
 62
    3
370
   -1
100
AcDbSpline
210
0
220
0
230
0
 70
    8
 71
    3
 72
    8
 73
    4
 74
    0
 42
1e-07
 43
1e-07
 40
0
 40
0
 40
0
 40
0
 40
1
 40
1
 40
1
 40
1
 10
51.840391
 20
65.22163999999999
 30
0
 10
51.798689
 20
65.154644
 30
0
 10
51.736991
 20
65.121146
 30
0
 10
51.655296
 20
65.121146
 30
0
  0
SPLINE
  5
27C
100
AcDbEntity
  8
0
  6
ByLayer
 62
    3
370
   -1
100
AcDbSpline
210
0
220
0
230
0
 70
    8
 71
    3
 72
    8
 73
    4
 74
    0
 42
1e-07
 43
1e-07
 40
0
 40
0
 40
0
 40
0
 40
1
 40
1
 40
1
 40
1
 10
51.655296
 20
65.121146
 30
0
 10
51.573602
 20
65.121146
 30
0
 10
51.511904
 20
65.154644
 30
0
 10
51.470202
 20
65.22163999999999
 30
0
  0
SPLINE
  5
27D
100
AcDbEntity
  8
0
  6
ByLayer
 62
    3
370
   -1
100
AcDbSpline
210
0
220
0
230
0
 70
    8
 71
    3
 72
    8
 73
    4
 74
    0
 42
1e-07
 43
1e-07
 40
0
 40
0
 40
0
 40
0
 40
1
 40
1
 40
1
 40
1
 10
51.470202
 20
65.22163999999999
 30
0
 10
51.4285
 20
65.28863699999999
 30
0
 10
51.407649
 20
65.387422
 30
0
 10
51.407649
 20
65.51799699999999
 30
0
  0
SPLINE
  5
27E
100
AcDbEntity
  8
0
  6
ByLayer
 62
    3
370
   -1
100
AcDbSpline
210
0
220
0
230
0
 70
    8
 71
    3
 72
    8
 73
    4
 74
    0
 42
1e-07
 43
1e-07
 40
0
 40
0
 40
0
 40
0
 40
1
 40
1
 40
1
 40
1
 10
51.407649
 20
65.51799699999999
 30
0
 10
51.407649
 20
65.64891299999999
 30
0
 10
51.4285
 20
65.74786899999999
 30
0
 10
51.470202
 20
65.81486599999999
 30
0
  0
SPLINE
  5
27F
100
AcDbEntity
  8
0
  6
ByLayer
 62
    3
370
   -1
100
AcDbSpline
210
0
220
0
230
0
 70
    8
 71
    3
 72
    8
 73
    4
 74
    0
 42
1e-07
 43
1e-07
 40
0
 40
0
 40
0
 40
0
 40
1
 40
1
 40
1
 40
1
 10
51.470202
 20
65.81486599999999
 30
0
 10
51.511904
 20
65.881862
 30
0
 10
51.573602
 20
65.91536000000001
 30
0
 10
51.655296
 20
65.91536000000001
 30
0
  0
LINE
  5
280
100
AcDbEntity
  8
0
  6
ByLayer
 62
    3
370
   -1
100
AcDbLine
 10
51.655296
 20
65.91536000000001
 11
51.655296
 21
65.91536000000001
  0
SPLINE
  5
281
100
AcDbEntity
  8
0
  6
ByLayer
 62
    3
370
   -1
100
AcDbSpline
210
0
220
0
230
0
 70
    8
 71
    3
 72
    8
 73
    4
 74
    0
 42
1e-07
 43
1e-07
 40
0
 40
0
 40
0
 40
0
 40
1
 40
1
 40
1
 40
1
 10
52.94942
 20
65.65181800000001
 30
0
 10
52.961041
 20
65.676429
 30
0
 10
52.975739
 20
65.694546
 30
0
 10
52.993514
 20
65.70616800000001
 30
0
  0
SPLINE
  5
282
100
AcDbEntity
  8
0
  6
ByLayer
 62
    3
370
   -1
100
AcDbSpline
210
0
220
0
230
0
 70
    8
 71
    3
 72
    8
 73
    4
 74
    0
 42
1e-07
 43
1e-07
 40
0
 40
0
 40
0
 40
0
 40
1
 40
1
 40
1
 40
1
 10
52.993514
 20
65.70616800000001
 30
0
 10
53.01163
 20
65.718131
 30
0
 10
53.033336
 20
65.724113
 30
0
 10
53.058631
 20
65.724113
 30
0
  0
SPLINE
  5
283
100
AcDbEntity
  8
0
  6
ByLayer
 62
    3
370
   -1
100
AcDbSpline
210
0
220
0
230
0
 70
    8
 71
    3
 72
    8
 73
    4
 74
    0
 42
1e-07
 43
1e-07
 40
0
 40
0
 40
0
 40
0
 40
1
 40
1
 40
1
 40
1
 10
53.058631
 20
65.724113
 30
0
 10
53.104776
 20
65.724113
 30
0
 10
53.137248
 20
65.70616800000001
 30
0
 10
53.156049
 20
65.670277
 30
0
  0
SPLINE
  5
284
100
AcDbEntity
  8
0
  6
ByLayer
 62
    3
370
   -1
100
AcDbSpline
210
0
220
0
230
0
 70
    8
 71
    3
 72
    8
 73
    4
 74
    0
 42
1e-07
 43
1e-07
 40
0
 40
0
 40
0
 40
0
 40
1
 40
1
 40
1
 40
1
 10
53.156049
 20
65.670277
 30
0
 10
53.17519
 20
65.634728
 30
0
 10
53.184761
 20
65.56756
 30
0
 10
53.184761
 20
65.46877499999999
 30
0
  0
LINE
  5
285
100
AcDbEntity
  8
0
  6
ByLayer
 62
    3
370
   -1
100
AcDbLine
 10
53.184761
 20
65.46877499999999
 11
53.184761
 21
65.136015
  0
LINE
  5
286
100
AcDbEntity
  8
0
  6
ByLayer
 62
    3
370
   -1
100
AcDbLine
 10
53.184761
 20
65.136015
 11
53.098623
 21
65.136015
  0
LINE
  5
287
100
AcDbEntity
  8
0
  6
ByLayer
 62
    3
370
   -1
100
AcDbLine
 10
53.098623
 20
65.136015
 11
53.098623
 21
65.464673
  0
SPLINE
  5
288
100
AcDbEntity
  8
0
  6
ByLayer
 62
    3
370
   -1
100
AcDbSpline
210
0
220
0
230
0
 70
    8
 71
    3
 72
    8
 73
    4
 74
    0
 42
1e-07
 43
1e-07
 40
0
 40
0
 40
0
 40
0
 40
1
 40
1
 40
1
 40
1
 10
53.098623
 20
65.464673
 30
0
 10
53.098623
 20
65.54568399999999
 30
0
 10
53.094008
 20
65.59593099999999
 30
0
 10
53.084779
 20
65.615415
 30
0
  0
SPLINE
  5
289
100
AcDbEntity
  8
0
  6
ByLayer
 62
    3
370
   -1
100
AcDbSpline
210
0
220
0
230
0
 70
    8
 71
    3
 72
    8
 73
    4
 74
    0
 42
1e-07
 43
1e-07
 40
0
 40
0
 40
0
 40
0
 40
1
 40
1
 40
1
 40
1
 10
53.084779
 20
65.615415
 30
0
 10
53.075892
 20
65.63524
 30
0
 10
53.059485
 20
65.64515299999999
 30
0
 10
53.035558
 20
65.64515299999999
 30
0
  0
SPLINE
  5
28A
100
AcDbEntity
  8
0
  6
ByLayer
 62
    3
370
   -1
100
AcDbSpline
210
0
220
0
230
0
 70
    8
 71
    3
 72
    8
 73
    4
 74
    0
 42
1e-07
 43
1e-07
 40
0
 40
0
 40
0
 40
0
 40
1
 40
1
 40
1
 40
1
 10
53.035558
 20
65.64515299999999
 30
0
 10
53.008212
 20
65.64515299999999
 30
0
 10
52.989412
 20
65.634557
 30
0
 10
52.979157
 20
65.613364
 30
0
  0
SPLINE
  5
28B
100
AcDbEntity
  8
0
  6
ByLayer
 62
    3
370
   -1
100
AcDbSpline
210
0
220
0
230
0
 70
    8
 71
    3
 72
    8
 73
    4
 74
    0
 42
1e-07
 43
1e-07
 40
0
 40
0
 40
0
 40
0
 40
1
 40
1
 40
1
 40
1
 10
52.979157
 20
65.613364
 30
0
 10
52.969245
 20
65.592513
 30
0
 10
52.964288
 20
65.54294899999999
 30
0
 10
52.964288
 20
65.464673
 30
0
  0
LINE
  5
28C
100
AcDbEntity
  8
0
  6
ByLayer
 62
    3
370
   -1
100
AcDbLine
 10
52.964288
 20
65.464673
 11
52.964288
 21
65.136015
  0
LINE
  5
28D
100
AcDbEntity
  8
0
  6
ByLayer
 62
    3
370
   -1
100
AcDbLine
 10
52.964288
 20
65.136015
 11
52.87815
 21
65.136015
  0
LINE
  5
28E
100
AcDbEntity
  8
0
  6
ByLayer
 62
    3
370
   -1
100
AcDbLine
 10
52.87815
 20
65.136015
 11
52.87815
 21
65.464673
  0
SPLINE
  5
28F
100
AcDbEntity
  8
0
  6
ByLayer
 62
    3
370
   -1
100
AcDbSpline
210
0
220
0
230
0
 70
    8
 71
    3
 72
    8
 73
    4
 74
    0
 42
1e-07
 43
1e-07
 40
0
 40
0
 40
0
 40
0
 40
1
 40
1
 40
1
 40
1
 10
52.87815
 20
65.464673
 30
0
 10
52.87815
 20
65.54670900000001
 30
0
 10
52.873194
 20
65.59729900000001
 30
0
 10
52.863281
 20
65.61644
 30
0
  0
SPLINE
  5
290
100
AcDbEntity
  8
0
  6
ByLayer
 62
    3
370
   -1
100
AcDbSpline
210
0
220
0
230
0
 70
    8
 71
    3
 72
    8
 73
    4
 74
    0
 42
1e-07
 43
1e-07
 40
0
 40
0
 40
0
 40
0
 40
1
 40
1
 40
1
 40
1
 10
52.863281
 20
65.61644
 30
0
 10
52.85371
 20
65.635582
 30
0
 10
52.836278
 20
65.64515299999999
 30
0
 10
52.810983
 20
65.64515299999999
 30
0
  0
SPLINE
  5
291
100
AcDbEntity
  8
0
  6
ByLayer
 62
    3
370
   -1
100
AcDbSpline
210
0
220
0
230
0
 70
    8
 71
    3
 72
    8
 73
    4
 74
    0
 42
1e-07
 43
1e-07
 40
0
 40
0
 40
0
 40
0
 40
1
 40
1
 40
1
 40
1
 10
52.810983
 20
65.64515299999999
 30
0
 10
52.78603
 20
65.64515299999999
 30
0
 10
52.768598
 20
65.634557
 30
0
 10
52.758685
 20
65.613364
 30
0
  0
SPLINE
  5
292
100
AcDbEntity
  8
0
  6
ByLayer
 62
    3
370
   -1
100
AcDbSpline
210
0
220
0
230
0
 70
    8
 71
    3
 72
    8
 73
    4
 74
    0
 42
1e-07
 43
1e-07
 40
0
 40
0
 40
0
 40
0
 40
1
 40
1
 40
1
 40
1
 10
52.758685
 20
65.613364
 30
0
 10
52.749114
 20
65.592513
 30
0
 10
52.744329
 20
65.54294899999999
 30
0
 10
52.744329
 20
65.464673
 30
0
  0
LINE
  5
293
100
AcDbEntity
  8
0
  6
ByLayer
 62
    3
370
   -1
100
AcDbLine
 10
52.744329
 20
65.464673
 11
52.744329
 21
65.136015
  0
LINE
  5
294
100
AcDbEntity
  8
0
  6
ByLayer
 62
    3
370
   -1
100
AcDbLine
 10
52.744329
 20
65.136015
 11
52.658703
 21
65.136015
  0
LINE
  5
295
100
AcDbEntity
  8
0
  6
ByLayer
 62
    3
370
   -1
100
AcDbLine
 10
52.658703
 20
65.136015
 11
52.658703
 21
65.710269
  0
LINE
  5
296
100
AcDbEntity
  8
0
  6
ByLayer
 62
    3
370
   -1
100
AcDbLine
 10
52.658703
 20
65.710269
 11
52.744329
 21
65.710269
  0
LINE
  5
297
100
AcDbEntity
  8
0
  6
ByLayer
 62
    3
370
   -1
100
AcDbLine
 10
52.744329
 20
65.710269
 11
52.744329
 21
65.66104799999999
  0
SPLINE
  5
298
100
AcDbEntity
  8
0
  6
ByLayer
 62
    3
370
   -1
100
AcDbSpline
210
0
220
0
230
0
 70
    8
 71
    3
 72
    8
 73
    4
 74
    0
 42
1e-07
 43
1e-07
 40
0
 40
0
 40
0
 40
0
 40
1
 40
1
 40
1
 40
1
 10
52.744329
 20
65.66104799999999
 30
0
 10
52.755609
 20
65.681557
 30
0
 10
52.769623
 20
65.697109
 30
0
 10
52.786372
 20
65.707706
 30
0
  0
SPLINE
  5
299
100
AcDbEntity
  8
0
  6
ByLayer
 62
    3
370
   -1
100
AcDbSpline
210
0
220
0
230
0
 70
    8
 71
    3
 72
    8
 73
    4
 74
    0
 42
1e-07
 43
1e-07
 40
0
 40
0
 40
0
 40
0
 40
1
 40
1
 40
1
 40
1
 10
52.786372
 20
65.707706
 30
0
 10
52.803463
 20
65.718644
 30
0
 10
52.822776
 20
65.724113
 30
0
 10
52.84431
 20
65.724113
 30
0
  0
SPLINE
  5
29A
100
AcDbEntity
  8
0
  6
ByLayer
 62
    3
370
   -1
100
AcDbSpline
210
0
220
0
230
0
 70
    8
 71
    3
 72
    8
 73
    4
 74
    0
 42
1e-07
 43
1e-07
 40
0
 40
0
 40
0
 40
0
 40
1
 40
1
 40
1
 40
1
 10
52.84431
 20
65.724113
 30
0
 10
52.870288
 20
65.724113
 30
0
 10
52.891823
 20
65.718131
 30
0
 10
52.908914
 20
65.70616800000001
 30
0
  0
SPLINE
  5
29B
100
AcDbEntity
  8
0
  6
ByLayer
 62
    3
370
   -1
100
AcDbSpline
210
0
220
0
230
0
 70
    8
 71
    3
 72
    8
 73
    4
 74
    0
 42
1e-07
 43
1e-07
 40
0
 40
0
 40
0
 40
0
 40
1
 40
1
 40
1
 40
1
 10
52.908914
 20
65.70616800000001
 30
0
 10
52.926347
 20
65.694204
 30
0
 10
52.939849
 20
65.67608799999999
 30
0
 10
52.94942
 20
65.65181800000001
 30
0
  0
LINE
  5
29C
100
AcDbEntity
  8
0
  6
ByLayer
 62
    3
370
   -1
100
AcDbLine
 10
52.94942
 20
65.65181800000001
 11
52.94942
 21
65.65181800000001
  0
SPLINE
  5
29D
100
AcDbEntity
  8
0
  6
ByLayer
 62
    3
370
   -1
100
AcDbSpline
210
0
220
0
230
0
 70
    8
 71
    3
 72
    8
 73
    4
 74
    0
 42
1e-07
 43
1e-07
 40
0
 40
0
 40
0
 40
0
 40
1
 40
1
 40
1
 40
1
 10
53.581099
 20
65.65181800000001
 30
0
 10
53.592721
 20
65.676429
 30
0
 10
53.607419
 20
65.694546
 30
0
 10
53.625194
 20
65.70616800000001
 30
0
  0
SPLINE
  5
29E
100
AcDbEntity
  8
0
  6
ByLayer
 62
    3
370
   -1
100
AcDbSpline
210
0
220
0
230
0
 70
    8
 71
    3
 72
    8
 73
    4
 74
    0
 42
1e-07
 43
1e-07
 40
0
 40
0
 40
0
 40
0
 40
1
 40
1
 40
1
 40
1
 10
53.625194
 20
65.70616800000001
 30
0
 10
53.64331
 20
65.718131
 30
0
 10
53.665015
 20
65.724113
 30
0
 10
53.69031
 20
65.724113
 30
0
  0
SPLINE
  5
29F
100
AcDbEntity
  8
0
  6
ByLayer
 62
    3
370
   -1
100
AcDbSpline
210
0
220
0
230
0
 70
    8
 71
    3
 72
    8
 73
    4
 74
    0
 42
1e-07
 43
1e-07
 40
0
 40
0
 40
0
 40
0
 40
1
 40
1
 40
1
 40
1
 10
53.69031
 20
65.724113
 30
0
 10
53.736455
 20
65.724113
 30
0
 10
53.768928
 20
65.70616800000001
 30
0
 10
53.787728
 20
65.670277
 30
0
  0
SPLINE
  5
2A0
100
AcDbEntity
  8
0
  6
ByLayer
 62
    3
370
   -1
100
AcDbSpline
210
0
220
0
230
0
 70
    8
 71
    3
 72
    8
 73
    4
 74
    0
 42
1e-07
 43
1e-07
 40
0
 40
0
 40
0
 40
0
 40
1
 40
1
 40
1
 40
1
 10
53.787728
 20
65.670277
 30
0
 10
53.80687
 20
65.634728
 30
0
 10
53.816441
 20
65.56756
 30
0
 10
53.816441
 20
65.46877499999999
 30
0
  0
LINE
  5
2A1
100
AcDbEntity
  8
0
  6
ByLayer
 62
    3
370
   -1
100
AcDbLine
 10
53.816441
 20
65.46877499999999
 11
53.816441
 21
65.136015
  0
LINE
  5
2A2
100
AcDbEntity
  8
0
  6
ByLayer
 62
    3
370
   -1
100
AcDbLine
 10
53.816441
 20
65.136015
 11
53.730303
 21
65.136015
  0
LINE
  5
2A3
100
AcDbEntity
  8
0
  6
ByLayer
 62
    3
370
   -1
100
AcDbLine
 10
53.730303
 20
65.136015
 11
53.730303
 21
65.464673
  0
SPLINE
  5
2A4
100
AcDbEntity
  8
0
  6
ByLayer
 62
    3
370
   -1
100
AcDbSpline
210
0
220
0
230
0
 70
    8
 71
    3
 72
    8
 73
    4
 74
    0
 42
1e-07
 43
1e-07
 40
0
 40
0
 40
0
 40
0
 40
1
 40
1
 40
1
 40
1
 10
53.730303
 20
65.464673
 30
0
 10
53.730303
 20
65.54568399999999
 30
0
 10
53.725688
 20
65.59593099999999
 30
0
 10
53.716459
 20
65.615415
 30
0
  0
SPLINE
  5
2A5
100
AcDbEntity
  8
0
  6
ByLayer
 62
    3
370
   -1
100
AcDbSpline
210
0
220
0
230
0
 70
    8
 71
    3
 72
    8
 73
    4
 74
    0
 42
1e-07
 43
1e-07
 40
0
 40
0
 40
0
 40
0
 40
1
 40
1
 40
1
 40
1
 10
53.716459
 20
65.615415
 30
0
 10
53.707572
 20
65.63524
 30
0
 10
53.691165
 20
65.64515299999999
 30
0
 10
53.667237
 20
65.64515299999999
 30
0
  0
SPLINE
  5
2A6
100
AcDbEntity
  8
0
  6
ByLayer
 62
    3
370
   -1
100
AcDbSpline
210
0
220
0
230
0
 70
    8
 71
    3
 72
    8
 73
    4
 74
    0
 42
1e-07
 43
1e-07
 40
0
 40
0
 40
0
 40
0
 40
1
 40
1
 40
1
 40
1
 10
53.667237
 20
65.64515299999999
 30
0
 10
53.639892
 20
65.64515299999999
 30
0
 10
53.621092
 20
65.634557
 30
0
 10
53.610837
 20
65.613364
 30
0
  0
SPLINE
  5
2A7
100
AcDbEntity
  8
0
  6
ByLayer
 62
    3
370
   -1
100
AcDbSpline
210
0
220
0
230
0
 70
    8
 71
    3
 72
    8
 73
    4
 74
    0
 42
1e-07
 43
1e-07
 40
0
 40
0
 40
0
 40
0
 40
1
 40
1
 40
1
 40
1
 10
53.610837
 20
65.613364
 30
0
 10
53.600925
 20
65.592513
 30
0
 10
53.595968
 20
65.54294899999999
 30
0
 10
53.595968
 20
65.464673
 30
0
  0
LINE
  5
2A8
100
AcDbEntity
  8
0
  6
ByLayer
 62
    3
370
   -1
100
AcDbLine
 10
53.595968
 20
65.464673
 11
53.595968
 21
65.136015
  0
LINE
  5
2A9
100
AcDbEntity
  8
0
  6
ByLayer
 62
    3
370
   -1
100
AcDbLine
 10
53.595968
 20
65.136015
 11
53.50983
 21
65.136015
  0
LINE
  5
2AA
100
AcDbEntity
  8
0
  6
ByLayer
 62
    3
370
   -1
100
AcDbLine
 10
53.50983
 20
65.136015
 11
53.50983
 21
65.464673
  0
SPLINE
  5
2AB
100
AcDbEntity
  8
0
  6
ByLayer
 62
    3
370
   -1
100
AcDbSpline
210
0
220
0
230
0
 70
    8
 71
    3
 72
    8
 73
    4
 74
    0
 42
1e-07
 43
1e-07
 40
0
 40
0
 40
0
 40
0
 40
1
 40
1
 40
1
 40
1
 10
53.50983
 20
65.464673
 30
0
 10
53.50983
 20
65.54670900000001
 30
0
 10
53.504874
 20
65.59729900000001
 30
0
 10
53.494961
 20
65.61644
 30
0
  0
SPLINE
  5
2AC
100
AcDbEntity
  8
0
  6
ByLayer
 62
    3
370
   -1
100
AcDbSpline
210
0
220
0
230
0
 70
    8
 71
    3
 72
    8
 73
    4
 74
    0
 42
1e-07
 43
1e-07
 40
0
 40
0
 40
0
 40
0
 40
1
 40
1
 40
1
 40
1
 10
53.494961
 20
65.61644
 30
0
 10
53.48539
 20
65.635582
 30
0
 10
53.467958
 20
65.64515299999999
 30
0
 10
53.442663
 20
65.64515299999999
 30
0
  0
SPLINE
  5
2AD
100
AcDbEntity
  8
0
  6
ByLayer
 62
    3
370
   -1
100
AcDbSpline
210
0
220
0
230
0
 70
    8
 71
    3
 72
    8
 73
    4
 74
    0
 42
1e-07
 43
1e-07
 40
0
 40
0
 40
0
 40
0
 40
1
 40
1
 40
1
 40
1
 10
53.442663
 20
65.64515299999999
 30
0
 10
53.41771
 20
65.64515299999999
 30
0
 10
53.400277
 20
65.634557
 30
0
 10
53.390364
 20
65.613364
 30
0
  0
SPLINE
  5
2AE
100
AcDbEntity
  8
0
  6
ByLayer
 62
    3
370
   -1
100
AcDbSpline
210
0
220
0
230
0
 70
    8
 71
    3
 72
    8
 73
    4
 74
    0
 42
1e-07
 43
1e-07
 40
0
 40
0
 40
0
 40
0
 40
1
 40
1
 40
1
 40
1
 10
53.390364
 20
65.613364
 30
0
 10
53.380794
 20
65.592513
 30
0
 10
53.376009
 20
65.54294899999999
 30
0
 10
53.376009
 20
65.464673
 30
0
  0
LINE
  5
2AF
100
AcDbEntity
  8
0
  6
ByLayer
 62
    3
370
   -1
100
AcDbLine
 10
53.376009
 20
65.464673
 11
53.376009
 21
65.136015
  0
LINE
  5
2B0
100
AcDbEntity
  8
0
  6
ByLayer
 62
    3
370
   -1
100
AcDbLine
 10
53.376009
 20
65.136015
 11
53.290383
 21
65.136015
  0
LINE
  5
2B1
100
AcDbEntity
  8
0
  6
ByLayer
 62
    3
370
   -1
100
AcDbLine
 10
53.290383
 20
65.136015
 11
53.290383
 21
65.710269
  0
LINE
  5
2B2
100
AcDbEntity
  8
0
  6
ByLayer
 62
    3
370
   -1
100
AcDbLine
 10
53.290383
 20
65.710269
 11
53.376009
 21
65.710269
  0
LINE
  5
2B3
100
AcDbEntity
  8
0
  6
ByLayer
 62
    3
370
   -1
100
AcDbLine
 10
53.376009
 20
65.710269
 11
53.376009
 21
65.66104799999999
  0
SPLINE
  5
2B4
100
AcDbEntity
  8
0
  6
ByLayer
 62
    3
370
   -1
100
AcDbSpline
210
0
220
0
230
0
 70
    8
 71
    3
 72
    8
 73
    4
 74
    0
 42
1e-07
 43
1e-07
 40
0
 40
0
 40
0
 40
0
 40
1
 40
1
 40
1
 40
1
 10
53.376009
 20
65.66104799999999
 30
0
 10
53.387289
 20
65.681557
 30
0
 10
53.401303
 20
65.697109
 30
0
 10
53.418052
 20
65.707706
 30
0
  0
SPLINE
  5
2B5
100
AcDbEntity
  8
0
  6
ByLayer
 62
    3
370
   -1
100
AcDbSpline
210
0
220
0
230
0
 70
    8
 71
    3
 72
    8
 73
    4
 74
    0
 42
1e-07
 43
1e-07
 40
0
 40
0
 40
0
 40
0
 40
1
 40
1
 40
1
 40
1
 10
53.418052
 20
65.707706
 30
0
 10
53.435143
 20
65.718644
 30
0
 10
53.454455
 20
65.724113
 30
0
 10
53.47599
 20
65.724113
 30
0
  0
SPLINE
  5
2B6
100
AcDbEntity
  8
0
  6
ByLayer
 62
    3
370
   -1
100
AcDbSpline
210
0
220
0
230
0
 70
    8
 71
    3
 72
    8
 73
    4
 74
    0
 42
1e-07
 43
1e-07
 40
0
 40
0
 40
0
 40
0
 40
1
 40
1
 40
1
 40
1
 10
53.47599
 20
65.724113
 30
0
 10
53.501968
 20
65.724113
 30
0
 10
53.523503
 20
65.718131
 30
0
 10
53.540594
 20
65.70616800000001
 30
0
  0
SPLINE
  5
2B7
100
AcDbEntity
  8
0
  6
ByLayer
 62
    3
370
   -1
100
AcDbSpline
210
0
220
0
230
0
 70
    8
 71
    3
 72
    8
 73
    4
 74
    0
 42
1e-07
 43
1e-07
 40
0
 40
0
 40
0
 40
0
 40
1
 40
1
 40
1
 40
1
 10
53.540594
 20
65.70616800000001
 30
0
 10
53.558027
 20
65.694204
 30
0
 10
53.571528
 20
65.67608799999999
 30
0
 10
53.581099
 20
65.65181800000001
 30
0
  0
LINE
  5
2B8
100
AcDbEntity
  8
0
  6
ByLayer
 62
    3
370
   -1
100
AcDbLine
 10
53.581099
 20
65.65181800000001
 11
53.581099
 21
65.65181800000001
  0
ENDSEC
  0
SECTION
  2
OBJECTS
  0
DICTIONARY
  5
C
330
0
100
AcDbDictionary
281
    1
  3
ACAD_GROUP
350
D
  0
DICTIONARY
  5
D
330
C
100
AcDbDictionary
281
    1
  0
ENDSEC
  0
EOF
